<?xml version="1.0" encoding="utf-8"?><svg xmlns="http://www.w3.org/2000/svg" version="1.1" xmlns:xlink="http://www.w3.org/1999/xlink" viewBox="0 0 351 351"><rect width="351" height="351" fill="#FFFFFF"></rect><path shape-rendering="geometricPrecision" d="M 9 9 v 63 h 63 v -63 h -63 z M 18 18 v 45 h 45 v -45 h -45 z M 342 9 v 63 h -63 v -63 h 63 z M 333 18 v 45 h -45 v -45 h 45 z M 9 342 v -63 h 63 v 63 h -63 z M 18 333 v -45 h 45 v 45 h -45 z" fill-rule="evenodd" fill="#000000"/><path shape-rendering="geometricPrecision" d="M 27 27 v 27 h 27 v -27 h -27 z M 324 27 v 27 h -27 v -27 h 27 z M 27 324 v -27 h 27 v 27 h -27 z" fill="#000000"/><path shape-rendering="geometricPrecision" d="M 9 108 v 9 h 9 v -9 h -9 z M 9 117 v 9 h 9 v -9 h -9 z M 9 135 v 9 h 9 v -9 h -9 z M 9 153 v 9 h 9 v -9 h -9 z M 9 162 v 9 h 9 v -9 h -9 z M 9 171 v 9 h 9 v -9 h -9 z M 9 189 v 9 h 9 v -9 h -9 z M 9 198 v 9 h 9 v -9 h -9 z M 9 207 v 9 h 9 v -9 h -9 z M 9 225 v 9 h 9 v -9 h -9 z M 9 261 v 9 h 9 v -9 h -9 z M 18 99 v 9 h 9 v -9 h -9 z M 18 135 v 9 h 9 v -9 h -9 z M 18 144 v 9 h 9 v -9 h -9 z M 18 153 v 9 h 9 v -9 h -9 z M 18 171 v 9 h 9 v -9 h -9 z M 18 180 v 9 h 9 v -9 h -9 z M 18 252 v 9 h 9 v -9 h -9 z M 18 261 v 9 h 9 v -9 h -9 z M 27 81 v 9 h 9 v -9 h -9 z M 27 90 v 9 h 9 v -9 h -9 z M 27 108 v 9 h 9 v -9 h -9 z M 27 126 v 9 h 9 v -9 h -9 z M 27 135 v 9 h 9 v -9 h -9 z M 27 180 v 9 h 9 v -9 h -9 z M 27 189 v 9 h 9 v -9 h -9 z M 27 198 v 9 h 9 v -9 h -9 z M 27 225 v 9 h 9 v -9 h -9 z M 27 243 v 9 h 9 v -9 h -9 z M 36 81 v 9 h 9 v -9 h -9 z M 36 90 v 9 h 9 v -9 h -9 z M 36 117 v 9 h 9 v -9 h -9 z M 36 144 v 9 h 9 v -9 h -9 z M 36 153 v 9 h 9 v -9 h -9 z M 36 162 v 9 h 9 v -9 h -9 z M 36 180 v 9 h 9 v -9 h -9 z M 36 225 v 9 h 9 v -9 h -9 z M 36 234 v 9 h 9 v -9 h -9 z M 36 252 v 9 h 9 v -9 h -9 z M 36 261 v 9 h 9 v -9 h -9 z M 45 81 v 9 h 9 v -9 h -9 z M 45 90 v 9 h 9 v -9 h -9 z M 45 99 v 9 h 9 v -9 h -9 z M 45 108 v 9 h 9 v -9 h -9 z M 45 117 v 9 h 9 v -9 h -9 z M 45 126 v 9 h 9 v -9 h -9 z M 45 144 v 9 h 9 v -9 h -9 z M 45 171 v 9 h 9 v -9 h -9 z M 45 180 v 9 h 9 v -9 h -9 z M 45 189 v 9 h 9 v -9 h -9 z M 45 216 v 9 h 9 v -9 h -9 z M 45 234 v 9 h 9 v -9 h -9 z M 45 243 v 9 h 9 v -9 h -9 z M 54 81 v 9 h 9 v -9 h -9 z M 54 90 v 9 h 9 v -9 h -9 z M 54 135 v 9 h 9 v -9 h -9 z M 54 171 v 9 h 9 v -9 h -9 z M 54 207 v 9 h 9 v -9 h -9 z M 54 252 v 9 h 9 v -9 h -9 z M 63 81 v 9 h 9 v -9 h -9 z M 63 99 v 9 h 9 v -9 h -9 z M 63 117 v 9 h 9 v -9 h -9 z M 63 135 v 9 h 9 v -9 h -9 z M 63 153 v 9 h 9 v -9 h -9 z M 63 171 v 9 h 9 v -9 h -9 z M 63 189 v 9 h 9 v -9 h -9 z M 63 207 v 9 h 9 v -9 h -9 z M 63 225 v 9 h 9 v -9 h -9 z M 63 243 v 9 h 9 v -9 h -9 z M 63 261 v 9 h 9 v -9 h -9 z M 72 81 v 9 h 9 v -9 h -9 z M 72 108 v 9 h 9 v -9 h -9 z M 72 126 v 9 h 9 v -9 h -9 z M 72 144 v 9 h 9 v -9 h -9 z M 72 189 v 9 h 9 v -9 h -9 z M 72 252 v 9 h 9 v -9 h -9 z M 81 9 v 9 h 9 v -9 h -9 z M 81 27 v 9 h 9 v -9 h -9 z M 81 36 v 9 h 9 v -9 h -9 z M 81 45 v 9 h 9 v -9 h -9 z M 81 54 v 9 h 9 v -9 h -9 z M 81 63 v 9 h 9 v -9 h -9 z M 81 108 v 9 h 9 v -9 h -9 z M 81 117 v 9 h 9 v -9 h -9 z M 81 171 v 9 h 9 v -9 h -9 z M 81 189 v 9 h 9 v -9 h -9 z M 81 198 v 9 h 9 v -9 h -9 z M 81 207 v 9 h 9 v -9 h -9 z M 81 225 v 9 h 9 v -9 h -9 z M 81 234 v 9 h 9 v -9 h -9 z M 81 243 v 9 h 9 v -9 h -9 z M 81 252 v 9 h 9 v -9 h -9 z M 81 279 v 9 h 9 v -9 h -9 z M 81 288 v 9 h 9 v -9 h -9 z M 81 297 v 9 h 9 v -9 h -9 z M 81 306 v 9 h 9 v -9 h -9 z M 81 315 v 9 h 9 v -9 h -9 z M 90 9 v 9 h 9 v -9 h -9 z M 90 18 v 9 h 9 v -9 h -9 z M 90 45 v 9 h 9 v -9 h -9 z M 90 54 v 9 h 9 v -9 h -9 z M 90 81 v 9 h 9 v -9 h -9 z M 90 117 v 9 h 9 v -9 h -9 z M 90 135 v 9 h 9 v -9 h -9 z M 90 144 v 9 h 9 v -9 h -9 z M 90 153 v 9 h 9 v -9 h -9 z M 90 261 v 9 h 9 v -9 h -9 z M 90 288 v 9 h 9 v -9 h -9 z M 90 315 v 9 h 9 v -9 h -9 z M 90 324 v 9 h 9 v -9 h -9 z M 99 9 v 9 h 9 v -9 h -9 z M 99 18 v 9 h 9 v -9 h -9 z M 99 27 v 9 h 9 v -9 h -9 z M 99 45 v 9 h 9 v -9 h -9 z M 99 54 v 9 h 9 v -9 h -9 z M 99 63 v 9 h 9 v -9 h -9 z M 99 72 v 9 h 9 v -9 h -9 z M 99 81 v 9 h 9 v -9 h -9 z M 99 90 v 9 h 9 v -9 h -9 z M 99 99 v 9 h 9 v -9 h -9 z M 99 108 v 9 h 9 v -9 h -9 z M 99 117 v 9 h 9 v -9 h -9 z M 99 126 v 9 h 9 v -9 h -9 z M 99 189 v 9 h 9 v -9 h -9 z M 99 207 v 9 h 9 v -9 h -9 z M 99 216 v 9 h 9 v -9 h -9 z M 99 225 v 9 h 9 v -9 h -9 z M 99 234 v 9 h 9 v -9 h -9 z M 99 252 v 9 h 9 v -9 h -9 z M 99 261 v 9 h 9 v -9 h -9 z M 99 270 v 9 h 9 v -9 h -9 z M 99 279 v 9 h 9 v -9 h -9 z M 99 288 v 9 h 9 v -9 h -9 z M 99 315 v 9 h 9 v -9 h -9 z M 99 324 v 9 h 9 v -9 h -9 z M 99 333 v 9 h 9 v -9 h -9 z M 108 9 v 9 h 9 v -9 h -9 z M 108 18 v 9 h 9 v -9 h -9 z M 108 45 v 9 h 9 v -9 h -9 z M 108 54 v 9 h 9 v -9 h -9 z M 108 72 v 9 h 9 v -9 h -9 z M 108 81 v 9 h 9 v -9 h -9 z M 108 90 v 9 h 9 v -9 h -9 z M 108 99 v 9 h 9 v -9 h -9 z M 108 117 v 9 h 9 v -9 h -9 z M 108 126 v 9 h 9 v -9 h -9 z M 108 153 v 9 h 9 v -9 h -9 z M 108 198 v 9 h 9 v -9 h -9 z M 108 216 v 9 h 9 v -9 h -9 z M 108 252 v 9 h 9 v -9 h -9 z M 108 261 v 9 h 9 v -9 h -9 z M 108 279 v 9 h 9 v -9 h -9 z M 108 288 v 9 h 9 v -9 h -9 z M 108 333 v 9 h 9 v -9 h -9 z M 117 18 v 9 h 9 v -9 h -9 z M 117 27 v 9 h 9 v -9 h -9 z M 117 54 v 9 h 9 v -9 h -9 z M 117 63 v 9 h 9 v -9 h -9 z M 117 81 v 9 h 9 v -9 h -9 z M 117 108 v 9 h 9 v -9 h -9 z M 117 126 v 9 h 9 v -9 h -9 z M 117 135 v 9 h 9 v -9 h -9 z M 117 162 v 9 h 9 v -9 h -9 z M 117 171 v 9 h 9 v -9 h -9 z M 117 207 v 9 h 9 v -9 h -9 z M 117 216 v 9 h 9 v -9 h -9 z M 117 234 v 9 h 9 v -9 h -9 z M 117 252 v 9 h 9 v -9 h -9 z M 117 261 v 9 h 9 v -9 h -9 z M 117 270 v 9 h 9 v -9 h -9 z M 117 279 v 9 h 9 v -9 h -9 z M 117 297 v 9 h 9 v -9 h -9 z M 117 324 v 9 h 9 v -9 h -9 z M 117 333 v 9 h 9 v -9 h -9 z M 126 45 v 9 h 9 v -9 h -9 z M 126 72 v 9 h 9 v -9 h -9 z M 126 117 v 9 h 9 v -9 h -9 z M 126 135 v 9 h 9 v -9 h -9 z M 126 153 v 9 h 9 v -9 h -9 z M 126 162 v 9 h 9 v -9 h -9 z M 126 171 v 9 h 9 v -9 h -9 z M 126 180 v 9 h 9 v -9 h -9 z M 126 189 v 9 h 9 v -9 h -9 z M 126 198 v 9 h 9 v -9 h -9 z M 126 216 v 9 h 9 v -9 h -9 z M 126 243 v 9 h 9 v -9 h -9 z M 126 288 v 9 h 9 v -9 h -9 z M 135 18 v 9 h 9 v -9 h -9 z M 135 63 v 9 h 9 v -9 h -9 z M 135 90 v 9 h 9 v -9 h -9 z M 135 99 v 9 h 9 v -9 h -9 z M 135 108 v 9 h 9 v -9 h -9 z M 135 117 v 9 h 9 v -9 h -9 z M 135 144 v 9 h 9 v -9 h -9 z M 135 153 v 9 h 9 v -9 h -9 z M 135 162 v 9 h 9 v -9 h -9 z M 135 189 v 9 h 9 v -9 h -9 z M 135 198 v 9 h 9 v -9 h -9 z M 135 225 v 9 h 9 v -9 h -9 z M 135 243 v 9 h 9 v -9 h -9 z M 135 252 v 9 h 9 v -9 h -9 z M 135 270 v 9 h 9 v -9 h -9 z M 135 288 v 9 h 9 v -9 h -9 z M 135 297 v 9 h 9 v -9 h -9 z M 135 306 v 9 h 9 v -9 h -9 z M 135 333 v 9 h 9 v -9 h -9 z M 144 9 v 9 h 9 v -9 h -9 z M 144 27 v 9 h 9 v -9 h -9 z M 144 36 v 9 h 9 v -9 h -9 z M 144 45 v 9 h 9 v -9 h -9 z M 144 54 v 9 h 9 v -9 h -9 z M 144 81 v 9 h 9 v -9 h -9 z M 144 99 v 9 h 9 v -9 h -9 z M 144 126 v 9 h 9 v -9 h -9 z M 144 144 v 9 h 9 v -9 h -9 z M 144 162 v 9 h 9 v -9 h -9 z M 144 171 v 9 h 9 v -9 h -9 z M 144 189 v 9 h 9 v -9 h -9 z M 144 198 v 9 h 9 v -9 h -9 z M 144 207 v 9 h 9 v -9 h -9 z M 144 225 v 9 h 9 v -9 h -9 z M 144 243 v 9 h 9 v -9 h -9 z M 144 252 v 9 h 9 v -9 h -9 z M 144 288 v 9 h 9 v -9 h -9 z M 144 297 v 9 h 9 v -9 h -9 z M 144 324 v 9 h 9 v -9 h -9 z M 144 333 v 9 h 9 v -9 h -9 z M 153 9 v 9 h 9 v -9 h -9 z M 153 18 v 9 h 9 v -9 h -9 z M 153 63 v 9 h 9 v -9 h -9 z M 153 72 v 9 h 9 v -9 h -9 z M 153 81 v 9 h 9 v -9 h -9 z M 153 90 v 9 h 9 v -9 h -9 z M 153 117 v 9 h 9 v -9 h -9 z M 153 144 v 9 h 9 v -9 h -9 z M 153 153 v 9 h 9 v -9 h -9 z M 153 198 v 9 h 9 v -9 h -9 z M 153 216 v 9 h 9 v -9 h -9 z M 153 225 v 9 h 9 v -9 h -9 z M 153 234 v 9 h 9 v -9 h -9 z M 153 243 v 9 h 9 v -9 h -9 z M 153 252 v 9 h 9 v -9 h -9 z M 153 270 v 9 h 9 v -9 h -9 z M 153 279 v 9 h 9 v -9 h -9 z M 153 297 v 9 h 9 v -9 h -9 z M 153 315 v 9 h 9 v -9 h -9 z M 153 333 v 9 h 9 v -9 h -9 z M 162 9 v 9 h 9 v -9 h -9 z M 162 18 v 9 h 9 v -9 h -9 z M 162 45 v 9 h 9 v -9 h -9 z M 162 108 v 9 h 9 v -9 h -9 z M 162 117 v 9 h 9 v -9 h -9 z M 162 135 v 9 h 9 v -9 h -9 z M 162 144 v 9 h 9 v -9 h -9 z M 162 162 v 9 h 9 v -9 h -9 z M 162 171 v 9 h 9 v -9 h -9 z M 162 189 v 9 h 9 v -9 h -9 z M 162 207 v 9 h 9 v -9 h -9 z M 162 225 v 9 h 9 v -9 h -9 z M 162 243 v 9 h 9 v -9 h -9 z M 162 252 v 9 h 9 v -9 h -9 z M 162 261 v 9 h 9 v -9 h -9 z M 162 270 v 9 h 9 v -9 h -9 z M 162 288 v 9 h 9 v -9 h -9 z M 162 306 v 9 h 9 v -9 h -9 z M 162 324 v 9 h 9 v -9 h -9 z M 171 18 v 9 h 9 v -9 h -9 z M 171 45 v 9 h 9 v -9 h -9 z M 171 54 v 9 h 9 v -9 h -9 z M 171 63 v 9 h 9 v -9 h -9 z M 171 72 v 9 h 9 v -9 h -9 z M 171 99 v 9 h 9 v -9 h -9 z M 171 117 v 9 h 9 v -9 h -9 z M 171 126 v 9 h 9 v -9 h -9 z M 171 135 v 9 h 9 v -9 h -9 z M 171 144 v 9 h 9 v -9 h -9 z M 171 153 v 9 h 9 v -9 h -9 z M 171 162 v 9 h 9 v -9 h -9 z M 171 180 v 9 h 9 v -9 h -9 z M 171 198 v 9 h 9 v -9 h -9 z M 171 234 v 9 h 9 v -9 h -9 z M 171 252 v 9 h 9 v -9 h -9 z M 171 261 v 9 h 9 v -9 h -9 z M 171 315 v 9 h 9 v -9 h -9 z M 171 324 v 9 h 9 v -9 h -9 z M 171 333 v 9 h 9 v -9 h -9 z M 180 18 v 9 h 9 v -9 h -9 z M 180 27 v 9 h 9 v -9 h -9 z M 180 36 v 9 h 9 v -9 h -9 z M 180 45 v 9 h 9 v -9 h -9 z M 180 54 v 9 h 9 v -9 h -9 z M 180 72 v 9 h 9 v -9 h -9 z M 180 81 v 9 h 9 v -9 h -9 z M 180 99 v 9 h 9 v -9 h -9 z M 180 108 v 9 h 9 v -9 h -9 z M 180 117 v 9 h 9 v -9 h -9 z M 180 126 v 9 h 9 v -9 h -9 z M 180 135 v 9 h 9 v -9 h -9 z M 180 144 v 9 h 9 v -9 h -9 z M 180 180 v 9 h 9 v -9 h -9 z M 180 189 v 9 h 9 v -9 h -9 z M 180 198 v 9 h 9 v -9 h -9 z M 180 207 v 9 h 9 v -9 h -9 z M 180 225 v 9 h 9 v -9 h -9 z M 180 243 v 9 h 9 v -9 h -9 z M 180 261 v 9 h 9 v -9 h -9 z M 180 270 v 9 h 9 v -9 h -9 z M 180 279 v 9 h 9 v -9 h -9 z M 180 288 v 9 h 9 v -9 h -9 z M 180 297 v 9 h 9 v -9 h -9 z M 180 333 v 9 h 9 v -9 h -9 z M 189 9 v 9 h 9 v -9 h -9 z M 189 63 v 9 h 9 v -9 h -9 z M 189 72 v 9 h 9 v -9 h -9 z M 189 81 v 9 h 9 v -9 h -9 z M 189 99 v 9 h 9 v -9 h -9 z M 189 108 v 9 h 9 v -9 h -9 z M 189 117 v 9 h 9 v -9 h -9 z M 189 135 v 9 h 9 v -9 h -9 z M 189 144 v 9 h 9 v -9 h -9 z M 189 162 v 9 h 9 v -9 h -9 z M 189 171 v 9 h 9 v -9 h -9 z M 189 180 v 9 h 9 v -9 h -9 z M 189 207 v 9 h 9 v -9 h -9 z M 189 225 v 9 h 9 v -9 h -9 z M 189 234 v 9 h 9 v -9 h -9 z M 189 261 v 9 h 9 v -9 h -9 z M 189 270 v 9 h 9 v -9 h -9 z M 189 279 v 9 h 9 v -9 h -9 z M 189 297 v 9 h 9 v -9 h -9 z M 189 315 v 9 h 9 v -9 h -9 z M 198 36 v 9 h 9 v -9 h -9 z M 198 126 v 9 h 9 v -9 h -9 z M 198 153 v 9 h 9 v -9 h -9 z M 198 171 v 9 h 9 v -9 h -9 z M 198 180 v 9 h 9 v -9 h -9 z M 198 189 v 9 h 9 v -9 h -9 z M 198 216 v 9 h 9 v -9 h -9 z M 198 261 v 9 h 9 v -9 h -9 z M 198 306 v 9 h 9 v -9 h -9 z M 207 27 v 9 h 9 v -9 h -9 z M 207 54 v 9 h 9 v -9 h -9 z M 207 63 v 9 h 9 v -9 h -9 z M 207 72 v 9 h 9 v -9 h -9 z M 207 81 v 9 h 9 v -9 h -9 z M 207 90 v 9 h 9 v -9 h -9 z M 207 99 v 9 h 9 v -9 h -9 z M 207 144 v 9 h 9 v -9 h -9 z M 207 171 v 9 h 9 v -9 h -9 z M 207 189 v 9 h 9 v -9 h -9 z M 207 207 v 9 h 9 v -9 h -9 z M 207 225 v 9 h 9 v -9 h -9 z M 207 234 v 9 h 9 v -9 h -9 z M 207 243 v 9 h 9 v -9 h -9 z M 207 252 v 9 h 9 v -9 h -9 z M 207 261 v 9 h 9 v -9 h -9 z M 207 270 v 9 h 9 v -9 h -9 z M 207 279 v 9 h 9 v -9 h -9 z M 207 288 v 9 h 9 v -9 h -9 z M 207 297 v 9 h 9 v -9 h -9 z M 207 306 v 9 h 9 v -9 h -9 z M 207 324 v 9 h 9 v -9 h -9 z M 207 333 v 9 h 9 v -9 h -9 z M 216 27 v 9 h 9 v -9 h -9 z M 216 45 v 9 h 9 v -9 h -9 z M 216 72 v 9 h 9 v -9 h -9 z M 216 81 v 9 h 9 v -9 h -9 z M 216 90 v 9 h 9 v -9 h -9 z M 216 99 v 9 h 9 v -9 h -9 z M 216 135 v 9 h 9 v -9 h -9 z M 216 144 v 9 h 9 v -9 h -9 z M 216 153 v 9 h 9 v -9 h -9 z M 216 189 v 9 h 9 v -9 h -9 z M 216 261 v 9 h 9 v -9 h -9 z M 216 279 v 9 h 9 v -9 h -9 z M 216 288 v 9 h 9 v -9 h -9 z M 216 297 v 9 h 9 v -9 h -9 z M 216 333 v 9 h 9 v -9 h -9 z M 225 9 v 9 h 9 v -9 h -9 z M 225 36 v 9 h 9 v -9 h -9 z M 225 54 v 9 h 9 v -9 h -9 z M 225 63 v 9 h 9 v -9 h -9 z M 225 99 v 9 h 9 v -9 h -9 z M 225 108 v 9 h 9 v -9 h -9 z M 225 117 v 9 h 9 v -9 h -9 z M 225 126 v 9 h 9 v -9 h -9 z M 225 171 v 9 h 9 v -9 h -9 z M 225 189 v 9 h 9 v -9 h -9 z M 225 198 v 9 h 9 v -9 h -9 z M 225 207 v 9 h 9 v -9 h -9 z M 225 225 v 9 h 9 v -9 h -9 z M 225 234 v 9 h 9 v -9 h -9 z M 225 243 v 9 h 9 v -9 h -9 z M 225 270 v 9 h 9 v -9 h -9 z M 225 279 v 9 h 9 v -9 h -9 z M 225 297 v 9 h 9 v -9 h -9 z M 225 315 v 9 h 9 v -9 h -9 z M 225 324 v 9 h 9 v -9 h -9 z M 225 333 v 9 h 9 v -9 h -9 z M 234 9 v 9 h 9 v -9 h -9 z M 234 36 v 9 h 9 v -9 h -9 z M 234 81 v 9 h 9 v -9 h -9 z M 234 90 v 9 h 9 v -9 h -9 z M 234 108 v 9 h 9 v -9 h -9 z M 234 126 v 9 h 9 v -9 h -9 z M 234 135 v 9 h 9 v -9 h -9 z M 234 144 v 9 h 9 v -9 h -9 z M 234 153 v 9 h 9 v -9 h -9 z M 234 216 v 9 h 9 v -9 h -9 z M 234 234 v 9 h 9 v -9 h -9 z M 234 288 v 9 h 9 v -9 h -9 z M 243 9 v 9 h 9 v -9 h -9 z M 243 27 v 9 h 9 v -9 h -9 z M 243 45 v 9 h 9 v -9 h -9 z M 243 54 v 9 h 9 v -9 h -9 z M 243 63 v 9 h 9 v -9 h -9 z M 243 72 v 9 h 9 v -9 h -9 z M 243 117 v 9 h 9 v -9 h -9 z M 243 162 v 9 h 9 v -9 h -9 z M 243 171 v 9 h 9 v -9 h -9 z M 243 189 v 9 h 9 v -9 h -9 z M 243 207 v 9 h 9 v -9 h -9 z M 243 234 v 9 h 9 v -9 h -9 z M 243 243 v 9 h 9 v -9 h -9 z M 243 252 v 9 h 9 v -9 h -9 z M 243 261 v 9 h 9 v -9 h -9 z M 243 270 v 9 h 9 v -9 h -9 z M 243 279 v 9 h 9 v -9 h -9 z M 243 288 v 9 h 9 v -9 h -9 z M 243 324 v 9 h 9 v -9 h -9 z M 243 333 v 9 h 9 v -9 h -9 z M 252 9 v 9 h 9 v -9 h -9 z M 252 27 v 9 h 9 v -9 h -9 z M 252 36 v 9 h 9 v -9 h -9 z M 252 54 v 9 h 9 v -9 h -9 z M 252 99 v 9 h 9 v -9 h -9 z M 252 108 v 9 h 9 v -9 h -9 z M 252 117 v 9 h 9 v -9 h -9 z M 252 153 v 9 h 9 v -9 h -9 z M 252 198 v 9 h 9 v -9 h -9 z M 252 207 v 9 h 9 v -9 h -9 z M 252 225 v 9 h 9 v -9 h -9 z M 252 270 v 9 h 9 v -9 h -9 z M 252 279 v 9 h 9 v -9 h -9 z M 252 288 v 9 h 9 v -9 h -9 z M 252 324 v 9 h 9 v -9 h -9 z M 252 333 v 9 h 9 v -9 h -9 z M 261 9 v 9 h 9 v -9 h -9 z M 261 27 v 9 h 9 v -9 h -9 z M 261 45 v 9 h 9 v -9 h -9 z M 261 54 v 9 h 9 v -9 h -9 z M 261 63 v 9 h 9 v -9 h -9 z M 261 162 v 9 h 9 v -9 h -9 z M 261 171 v 9 h 9 v -9 h -9 z M 261 216 v 9 h 9 v -9 h -9 z M 261 234 v 9 h 9 v -9 h -9 z M 261 243 v 9 h 9 v -9 h -9 z M 261 252 v 9 h 9 v -9 h -9 z M 261 261 v 9 h 9 v -9 h -9 z M 261 270 v 9 h 9 v -9 h -9 z M 261 279 v 9 h 9 v -9 h -9 z M 261 288 v 9 h 9 v -9 h -9 z M 261 297 v 9 h 9 v -9 h -9 z M 261 306 v 9 h 9 v -9 h -9 z M 261 315 v 9 h 9 v -9 h -9 z M 261 333 v 9 h 9 v -9 h -9 z M 270 81 v 9 h 9 v -9 h -9 z M 270 90 v 9 h 9 v -9 h -9 z M 270 99 v 9 h 9 v -9 h -9 z M 270 108 v 9 h 9 v -9 h -9 z M 270 153 v 9 h 9 v -9 h -9 z M 270 162 v 9 h 9 v -9 h -9 z M 270 171 v 9 h 9 v -9 h -9 z M 270 180 v 9 h 9 v -9 h -9 z M 270 189 v 9 h 9 v -9 h -9 z M 270 198 v 9 h 9 v -9 h -9 z M 270 216 v 9 h 9 v -9 h -9 z M 270 252 v 9 h 9 v -9 h -9 z M 270 261 v 9 h 9 v -9 h -9 z M 270 297 v 9 h 9 v -9 h -9 z M 270 306 v 9 h 9 v -9 h -9 z M 270 324 v 9 h 9 v -9 h -9 z M 279 99 v 9 h 9 v -9 h -9 z M 279 126 v 9 h 9 v -9 h -9 z M 279 135 v 9 h 9 v -9 h -9 z M 279 144 v 9 h 9 v -9 h -9 z M 279 162 v 9 h 9 v -9 h -9 z M 279 189 v 9 h 9 v -9 h -9 z M 279 198 v 9 h 9 v -9 h -9 z M 279 243 v 9 h 9 v -9 h -9 z M 279 261 v 9 h 9 v -9 h -9 z M 279 279 v 9 h 9 v -9 h -9 z M 279 297 v 9 h 9 v -9 h -9 z M 279 315 v 9 h 9 v -9 h -9 z M 279 324 v 9 h 9 v -9 h -9 z M 279 333 v 9 h 9 v -9 h -9 z M 288 81 v 9 h 9 v -9 h -9 z M 288 108 v 9 h 9 v -9 h -9 z M 288 126 v 9 h 9 v -9 h -9 z M 288 144 v 9 h 9 v -9 h -9 z M 288 162 v 9 h 9 v -9 h -9 z M 288 171 v 9 h 9 v -9 h -9 z M 288 180 v 9 h 9 v -9 h -9 z M 288 198 v 9 h 9 v -9 h -9 z M 288 207 v 9 h 9 v -9 h -9 z M 288 225 v 9 h 9 v -9 h -9 z M 288 243 v 9 h 9 v -9 h -9 z M 288 261 v 9 h 9 v -9 h -9 z M 288 297 v 9 h 9 v -9 h -9 z M 288 306 v 9 h 9 v -9 h -9 z M 297 81 v 9 h 9 v -9 h -9 z M 297 90 v 9 h 9 v -9 h -9 z M 297 108 v 9 h 9 v -9 h -9 z M 297 117 v 9 h 9 v -9 h -9 z M 297 126 v 9 h 9 v -9 h -9 z M 297 144 v 9 h 9 v -9 h -9 z M 297 153 v 9 h 9 v -9 h -9 z M 297 198 v 9 h 9 v -9 h -9 z M 297 216 v 9 h 9 v -9 h -9 z M 297 225 v 9 h 9 v -9 h -9 z M 297 234 v 9 h 9 v -9 h -9 z M 297 243 v 9 h 9 v -9 h -9 z M 297 252 v 9 h 9 v -9 h -9 z M 297 261 v 9 h 9 v -9 h -9 z M 297 270 v 9 h 9 v -9 h -9 z M 297 279 v 9 h 9 v -9 h -9 z M 297 288 v 9 h 9 v -9 h -9 z M 297 297 v 9 h 9 v -9 h -9 z M 297 315 v 9 h 9 v -9 h -9 z M 297 324 v 9 h 9 v -9 h -9 z M 306 81 v 9 h 9 v -9 h -9 z M 306 90 v 9 h 9 v -9 h -9 z M 306 108 v 9 h 9 v -9 h -9 z M 306 117 v 9 h 9 v -9 h -9 z M 306 144 v 9 h 9 v -9 h -9 z M 306 162 v 9 h 9 v -9 h -9 z M 306 171 v 9 h 9 v -9 h -9 z M 306 189 v 9 h 9 v -9 h -9 z M 306 207 v 9 h 9 v -9 h -9 z M 306 216 v 9 h 9 v -9 h -9 z M 306 243 v 9 h 9 v -9 h -9 z M 306 261 v 9 h 9 v -9 h -9 z M 306 270 v 9 h 9 v -9 h -9 z M 306 279 v 9 h 9 v -9 h -9 z M 306 297 v 9 h 9 v -9 h -9 z M 306 306 v 9 h 9 v -9 h -9 z M 306 333 v 9 h 9 v -9 h -9 z M 315 81 v 9 h 9 v -9 h -9 z M 315 90 v 9 h 9 v -9 h -9 z M 315 99 v 9 h 9 v -9 h -9 z M 315 108 v 9 h 9 v -9 h -9 z M 315 135 v 9 h 9 v -9 h -9 z M 315 144 v 9 h 9 v -9 h -9 z M 315 153 v 9 h 9 v -9 h -9 z M 315 162 v 9 h 9 v -9 h -9 z M 315 180 v 9 h 9 v -9 h -9 z M 315 207 v 9 h 9 v -9 h -9 z M 315 225 v 9 h 9 v -9 h -9 z M 315 234 v 9 h 9 v -9 h -9 z M 315 243 v 9 h 9 v -9 h -9 z M 315 315 v 9 h 9 v -9 h -9 z M 315 324 v 9 h 9 v -9 h -9 z M 315 333 v 9 h 9 v -9 h -9 z M 324 90 v 9 h 9 v -9 h -9 z M 324 135 v 9 h 9 v -9 h -9 z M 324 144 v 9 h 9 v -9 h -9 z M 324 180 v 9 h 9 v -9 h -9 z M 324 189 v 9 h 9 v -9 h -9 z M 324 198 v 9 h 9 v -9 h -9 z M 324 207 v 9 h 9 v -9 h -9 z M 324 216 v 9 h 9 v -9 h -9 z M 324 225 v 9 h 9 v -9 h -9 z M 324 243 v 9 h 9 v -9 h -9 z M 324 261 v 9 h 9 v -9 h -9 z M 324 279 v 9 h 9 v -9 h -9 z M 324 297 v 9 h 9 v -9 h -9 z M 324 333 v 9 h 9 v -9 h -9 z M 333 81 v 9 h 9 v -9 h -9 z M 333 108 v 9 h 9 v -9 h -9 z M 333 126 v 9 h 9 v -9 h -9 z M 333 135 v 9 h 9 v -9 h -9 z M 333 144 v 9 h 9 v -9 h -9 z M 333 153 v 9 h 9 v -9 h -9 z M 333 162 v 9 h 9 v -9 h -9 z M 333 180 v 9 h 9 v -9 h -9 z M 333 189 v 9 h 9 v -9 h -9 z M 333 198 v 9 h 9 v -9 h -9 z M 333 207 v 9 h 9 v -9 h -9 z M 333 225 v 9 h 9 v -9 h -9 z M 333 234 v 9 h 9 v -9 h -9 z M 333 243 v 9 h 9 v -9 h -9 z M 333 270 v 9 h 9 v -9 h -9 z M 333 279 v 9 h 9 v -9 h -9 z M 333 297 v 9 h 9 v -9 h -9 z M 333 315 v 9 h 9 v -9 h -9 z M 333 324 v 9 h 9 v -9 h -9 z M 333 333 v 9 h 9 v -9 h -9 z" fill="#000000"/></svg>