<?xml version="1.0" encoding="utf-8"?><svg xmlns="http://www.w3.org/2000/svg" version="1.1" xmlns:xlink="http://www.w3.org/1999/xlink" viewBox="0 0 387 387"><rect width="387" height="387" fill="#FFFFFF"></rect><path shape-rendering="geometricPrecision" d="M 9 9 v 63 h 63 v -63 h -63 z M 18 18 v 45 h 45 v -45 h -45 z M 378 9 v 63 h -63 v -63 h 63 z M 369 18 v 45 h -45 v -45 h 45 z M 9 378 v -63 h 63 v 63 h -63 z M 18 369 v -45 h 45 v 45 h -45 z" fill-rule="evenodd" fill="#000000"/><path shape-rendering="geometricPrecision" d="M 27 27 v 27 h 27 v -27 h -27 z M 360 27 v 27 h -27 v -27 h 27 z M 27 360 v -27 h 27 v 27 h -27 z" fill="#000000"/><path shape-rendering="geometricPrecision" d="M 9 81 v 9 h 9 v -9 h -9 z M 9 90 v 9 h 9 v -9 h -9 z M 9 117 v 9 h 9 v -9 h -9 z M 9 126 v 9 h 9 v -9 h -9 z M 9 135 v 9 h 9 v -9 h -9 z M 9 171 v 9 h 9 v -9 h -9 z M 9 198 v 9 h 9 v -9 h -9 z M 9 207 v 9 h 9 v -9 h -9 z M 9 225 v 9 h 9 v -9 h -9 z M 9 243 v 9 h 9 v -9 h -9 z M 9 270 v 9 h 9 v -9 h -9 z M 18 81 v 9 h 9 v -9 h -9 z M 18 90 v 9 h 9 v -9 h -9 z M 18 99 v 9 h 9 v -9 h -9 z M 18 117 v 9 h 9 v -9 h -9 z M 18 144 v 9 h 9 v -9 h -9 z M 18 153 v 9 h 9 v -9 h -9 z M 18 162 v 9 h 9 v -9 h -9 z M 18 180 v 9 h 9 v -9 h -9 z M 18 279 v 9 h 9 v -9 h -9 z M 18 288 v 9 h 9 v -9 h -9 z M 27 81 v 9 h 9 v -9 h -9 z M 27 99 v 9 h 9 v -9 h -9 z M 27 117 v 9 h 9 v -9 h -9 z M 27 126 v 9 h 9 v -9 h -9 z M 27 135 v 9 h 9 v -9 h -9 z M 27 144 v 9 h 9 v -9 h -9 z M 27 153 v 9 h 9 v -9 h -9 z M 27 162 v 9 h 9 v -9 h -9 z M 27 171 v 9 h 9 v -9 h -9 z M 27 189 v 9 h 9 v -9 h -9 z M 27 198 v 9 h 9 v -9 h -9 z M 27 225 v 9 h 9 v -9 h -9 z M 27 252 v 9 h 9 v -9 h -9 z M 27 261 v 9 h 9 v -9 h -9 z M 27 297 v 9 h 9 v -9 h -9 z M 36 90 v 9 h 9 v -9 h -9 z M 36 135 v 9 h 9 v -9 h -9 z M 36 144 v 9 h 9 v -9 h -9 z M 36 153 v 9 h 9 v -9 h -9 z M 36 180 v 9 h 9 v -9 h -9 z M 36 189 v 9 h 9 v -9 h -9 z M 36 207 v 9 h 9 v -9 h -9 z M 36 252 v 9 h 9 v -9 h -9 z M 36 261 v 9 h 9 v -9 h -9 z M 36 279 v 9 h 9 v -9 h -9 z M 36 288 v 9 h 9 v -9 h -9 z M 36 297 v 9 h 9 v -9 h -9 z M 45 81 v 9 h 9 v -9 h -9 z M 45 108 v 9 h 9 v -9 h -9 z M 45 135 v 9 h 9 v -9 h -9 z M 45 144 v 9 h 9 v -9 h -9 z M 45 153 v 9 h 9 v -9 h -9 z M 45 162 v 9 h 9 v -9 h -9 z M 45 171 v 9 h 9 v -9 h -9 z M 45 180 v 9 h 9 v -9 h -9 z M 45 207 v 9 h 9 v -9 h -9 z M 45 216 v 9 h 9 v -9 h -9 z M 45 243 v 9 h 9 v -9 h -9 z M 45 261 v 9 h 9 v -9 h -9 z M 45 270 v 9 h 9 v -9 h -9 z M 45 288 v 9 h 9 v -9 h -9 z M 45 297 v 9 h 9 v -9 h -9 z M 54 99 v 9 h 9 v -9 h -9 z M 54 108 v 9 h 9 v -9 h -9 z M 54 117 v 9 h 9 v -9 h -9 z M 54 135 v 9 h 9 v -9 h -9 z M 54 153 v 9 h 9 v -9 h -9 z M 54 162 v 9 h 9 v -9 h -9 z M 54 198 v 9 h 9 v -9 h -9 z M 54 216 v 9 h 9 v -9 h -9 z M 54 261 v 9 h 9 v -9 h -9 z M 54 270 v 9 h 9 v -9 h -9 z M 54 297 v 9 h 9 v -9 h -9 z M 63 81 v 9 h 9 v -9 h -9 z M 63 99 v 9 h 9 v -9 h -9 z M 63 117 v 9 h 9 v -9 h -9 z M 63 135 v 9 h 9 v -9 h -9 z M 63 153 v 9 h 9 v -9 h -9 z M 63 171 v 9 h 9 v -9 h -9 z M 63 189 v 9 h 9 v -9 h -9 z M 63 207 v 9 h 9 v -9 h -9 z M 63 225 v 9 h 9 v -9 h -9 z M 63 243 v 9 h 9 v -9 h -9 z M 63 261 v 9 h 9 v -9 h -9 z M 63 279 v 9 h 9 v -9 h -9 z M 63 297 v 9 h 9 v -9 h -9 z M 72 90 v 9 h 9 v -9 h -9 z M 72 108 v 9 h 9 v -9 h -9 z M 72 117 v 9 h 9 v -9 h -9 z M 72 144 v 9 h 9 v -9 h -9 z M 72 153 v 9 h 9 v -9 h -9 z M 72 180 v 9 h 9 v -9 h -9 z M 72 216 v 9 h 9 v -9 h -9 z M 72 234 v 9 h 9 v -9 h -9 z M 72 243 v 9 h 9 v -9 h -9 z M 72 261 v 9 h 9 v -9 h -9 z M 72 279 v 9 h 9 v -9 h -9 z M 72 288 v 9 h 9 v -9 h -9 z M 81 9 v 9 h 9 v -9 h -9 z M 81 36 v 9 h 9 v -9 h -9 z M 81 45 v 9 h 9 v -9 h -9 z M 81 54 v 9 h 9 v -9 h -9 z M 81 63 v 9 h 9 v -9 h -9 z M 81 72 v 9 h 9 v -9 h -9 z M 81 81 v 9 h 9 v -9 h -9 z M 81 99 v 9 h 9 v -9 h -9 z M 81 108 v 9 h 9 v -9 h -9 z M 81 135 v 9 h 9 v -9 h -9 z M 81 144 v 9 h 9 v -9 h -9 z M 81 162 v 9 h 9 v -9 h -9 z M 81 180 v 9 h 9 v -9 h -9 z M 81 189 v 9 h 9 v -9 h -9 z M 81 216 v 9 h 9 v -9 h -9 z M 81 225 v 9 h 9 v -9 h -9 z M 81 270 v 9 h 9 v -9 h -9 z M 81 288 v 9 h 9 v -9 h -9 z M 81 306 v 9 h 9 v -9 h -9 z M 81 333 v 9 h 9 v -9 h -9 z M 81 351 v 9 h 9 v -9 h -9 z M 81 360 v 9 h 9 v -9 h -9 z M 81 369 v 9 h 9 v -9 h -9 z M 90 27 v 9 h 9 v -9 h -9 z M 90 45 v 9 h 9 v -9 h -9 z M 90 54 v 9 h 9 v -9 h -9 z M 90 81 v 9 h 9 v -9 h -9 z M 90 90 v 9 h 9 v -9 h -9 z M 90 99 v 9 h 9 v -9 h -9 z M 90 108 v 9 h 9 v -9 h -9 z M 90 117 v 9 h 9 v -9 h -9 z M 90 126 v 9 h 9 v -9 h -9 z M 90 135 v 9 h 9 v -9 h -9 z M 90 171 v 9 h 9 v -9 h -9 z M 90 180 v 9 h 9 v -9 h -9 z M 90 207 v 9 h 9 v -9 h -9 z M 90 216 v 9 h 9 v -9 h -9 z M 90 225 v 9 h 9 v -9 h -9 z M 90 252 v 9 h 9 v -9 h -9 z M 90 270 v 9 h 9 v -9 h -9 z M 90 279 v 9 h 9 v -9 h -9 z M 90 288 v 9 h 9 v -9 h -9 z M 90 306 v 9 h 9 v -9 h -9 z M 90 324 v 9 h 9 v -9 h -9 z M 90 333 v 9 h 9 v -9 h -9 z M 99 9 v 9 h 9 v -9 h -9 z M 99 27 v 9 h 9 v -9 h -9 z M 99 45 v 9 h 9 v -9 h -9 z M 99 63 v 9 h 9 v -9 h -9 z M 99 81 v 9 h 9 v -9 h -9 z M 99 90 v 9 h 9 v -9 h -9 z M 99 117 v 9 h 9 v -9 h -9 z M 99 144 v 9 h 9 v -9 h -9 z M 99 153 v 9 h 9 v -9 h -9 z M 99 162 v 9 h 9 v -9 h -9 z M 99 171 v 9 h 9 v -9 h -9 z M 99 189 v 9 h 9 v -9 h -9 z M 99 198 v 9 h 9 v -9 h -9 z M 99 216 v 9 h 9 v -9 h -9 z M 99 243 v 9 h 9 v -9 h -9 z M 99 252 v 9 h 9 v -9 h -9 z M 99 261 v 9 h 9 v -9 h -9 z M 99 315 v 9 h 9 v -9 h -9 z M 99 333 v 9 h 9 v -9 h -9 z M 99 351 v 9 h 9 v -9 h -9 z M 99 360 v 9 h 9 v -9 h -9 z M 108 18 v 9 h 9 v -9 h -9 z M 108 45 v 9 h 9 v -9 h -9 z M 108 54 v 9 h 9 v -9 h -9 z M 108 72 v 9 h 9 v -9 h -9 z M 108 108 v 9 h 9 v -9 h -9 z M 108 117 v 9 h 9 v -9 h -9 z M 108 126 v 9 h 9 v -9 h -9 z M 108 162 v 9 h 9 v -9 h -9 z M 108 207 v 9 h 9 v -9 h -9 z M 108 225 v 9 h 9 v -9 h -9 z M 108 243 v 9 h 9 v -9 h -9 z M 108 252 v 9 h 9 v -9 h -9 z M 108 270 v 9 h 9 v -9 h -9 z M 108 288 v 9 h 9 v -9 h -9 z M 108 297 v 9 h 9 v -9 h -9 z M 108 333 v 9 h 9 v -9 h -9 z M 108 342 v 9 h 9 v -9 h -9 z M 108 360 v 9 h 9 v -9 h -9 z M 117 18 v 9 h 9 v -9 h -9 z M 117 27 v 9 h 9 v -9 h -9 z M 117 63 v 9 h 9 v -9 h -9 z M 117 90 v 9 h 9 v -9 h -9 z M 117 99 v 9 h 9 v -9 h -9 z M 117 108 v 9 h 9 v -9 h -9 z M 117 126 v 9 h 9 v -9 h -9 z M 117 135 v 9 h 9 v -9 h -9 z M 117 144 v 9 h 9 v -9 h -9 z M 117 216 v 9 h 9 v -9 h -9 z M 117 225 v 9 h 9 v -9 h -9 z M 117 279 v 9 h 9 v -9 h -9 z M 117 297 v 9 h 9 v -9 h -9 z M 117 306 v 9 h 9 v -9 h -9 z M 117 315 v 9 h 9 v -9 h -9 z M 117 324 v 9 h 9 v -9 h -9 z M 117 360 v 9 h 9 v -9 h -9 z M 117 369 v 9 h 9 v -9 h -9 z M 126 9 v 9 h 9 v -9 h -9 z M 126 27 v 9 h 9 v -9 h -9 z M 126 45 v 9 h 9 v -9 h -9 z M 126 99 v 9 h 9 v -9 h -9 z M 126 126 v 9 h 9 v -9 h -9 z M 126 135 v 9 h 9 v -9 h -9 z M 126 144 v 9 h 9 v -9 h -9 z M 126 162 v 9 h 9 v -9 h -9 z M 126 180 v 9 h 9 v -9 h -9 z M 126 189 v 9 h 9 v -9 h -9 z M 126 243 v 9 h 9 v -9 h -9 z M 126 279 v 9 h 9 v -9 h -9 z M 126 288 v 9 h 9 v -9 h -9 z M 126 324 v 9 h 9 v -9 h -9 z M 126 333 v 9 h 9 v -9 h -9 z M 126 360 v 9 h 9 v -9 h -9 z M 126 369 v 9 h 9 v -9 h -9 z M 135 9 v 9 h 9 v -9 h -9 z M 135 18 v 9 h 9 v -9 h -9 z M 135 27 v 9 h 9 v -9 h -9 z M 135 36 v 9 h 9 v -9 h -9 z M 135 45 v 9 h 9 v -9 h -9 z M 135 63 v 9 h 9 v -9 h -9 z M 135 81 v 9 h 9 v -9 h -9 z M 135 99 v 9 h 9 v -9 h -9 z M 135 126 v 9 h 9 v -9 h -9 z M 135 180 v 9 h 9 v -9 h -9 z M 135 189 v 9 h 9 v -9 h -9 z M 135 198 v 9 h 9 v -9 h -9 z M 135 216 v 9 h 9 v -9 h -9 z M 135 225 v 9 h 9 v -9 h -9 z M 135 234 v 9 h 9 v -9 h -9 z M 135 252 v 9 h 9 v -9 h -9 z M 135 270 v 9 h 9 v -9 h -9 z M 135 279 v 9 h 9 v -9 h -9 z M 135 306 v 9 h 9 v -9 h -9 z M 135 315 v 9 h 9 v -9 h -9 z M 135 324 v 9 h 9 v -9 h -9 z M 135 333 v 9 h 9 v -9 h -9 z M 135 351 v 9 h 9 v -9 h -9 z M 135 360 v 9 h 9 v -9 h -9 z M 135 369 v 9 h 9 v -9 h -9 z M 144 36 v 9 h 9 v -9 h -9 z M 144 45 v 9 h 9 v -9 h -9 z M 144 54 v 9 h 9 v -9 h -9 z M 144 81 v 9 h 9 v -9 h -9 z M 144 90 v 9 h 9 v -9 h -9 z M 144 117 v 9 h 9 v -9 h -9 z M 144 144 v 9 h 9 v -9 h -9 z M 144 153 v 9 h 9 v -9 h -9 z M 144 189 v 9 h 9 v -9 h -9 z M 144 216 v 9 h 9 v -9 h -9 z M 144 261 v 9 h 9 v -9 h -9 z M 144 279 v 9 h 9 v -9 h -9 z M 144 288 v 9 h 9 v -9 h -9 z M 144 306 v 9 h 9 v -9 h -9 z M 144 324 v 9 h 9 v -9 h -9 z M 144 333 v 9 h 9 v -9 h -9 z M 144 351 v 9 h 9 v -9 h -9 z M 153 9 v 9 h 9 v -9 h -9 z M 153 27 v 9 h 9 v -9 h -9 z M 153 45 v 9 h 9 v -9 h -9 z M 153 63 v 9 h 9 v -9 h -9 z M 153 72 v 9 h 9 v -9 h -9 z M 153 81 v 9 h 9 v -9 h -9 z M 153 90 v 9 h 9 v -9 h -9 z M 153 108 v 9 h 9 v -9 h -9 z M 153 135 v 9 h 9 v -9 h -9 z M 153 144 v 9 h 9 v -9 h -9 z M 153 153 v 9 h 9 v -9 h -9 z M 153 171 v 9 h 9 v -9 h -9 z M 153 189 v 9 h 9 v -9 h -9 z M 153 225 v 9 h 9 v -9 h -9 z M 153 234 v 9 h 9 v -9 h -9 z M 153 252 v 9 h 9 v -9 h -9 z M 153 288 v 9 h 9 v -9 h -9 z M 153 297 v 9 h 9 v -9 h -9 z M 153 306 v 9 h 9 v -9 h -9 z M 153 360 v 9 h 9 v -9 h -9 z M 162 18 v 9 h 9 v -9 h -9 z M 162 36 v 9 h 9 v -9 h -9 z M 162 54 v 9 h 9 v -9 h -9 z M 162 72 v 9 h 9 v -9 h -9 z M 162 81 v 9 h 9 v -9 h -9 z M 162 108 v 9 h 9 v -9 h -9 z M 162 117 v 9 h 9 v -9 h -9 z M 162 135 v 9 h 9 v -9 h -9 z M 162 144 v 9 h 9 v -9 h -9 z M 162 162 v 9 h 9 v -9 h -9 z M 162 171 v 9 h 9 v -9 h -9 z M 162 180 v 9 h 9 v -9 h -9 z M 162 189 v 9 h 9 v -9 h -9 z M 162 198 v 9 h 9 v -9 h -9 z M 162 279 v 9 h 9 v -9 h -9 z M 162 288 v 9 h 9 v -9 h -9 z M 162 297 v 9 h 9 v -9 h -9 z M 162 306 v 9 h 9 v -9 h -9 z M 162 333 v 9 h 9 v -9 h -9 z M 171 9 v 9 h 9 v -9 h -9 z M 171 27 v 9 h 9 v -9 h -9 z M 171 45 v 9 h 9 v -9 h -9 z M 171 54 v 9 h 9 v -9 h -9 z M 171 63 v 9 h 9 v -9 h -9 z M 171 99 v 9 h 9 v -9 h -9 z M 171 108 v 9 h 9 v -9 h -9 z M 171 117 v 9 h 9 v -9 h -9 z M 171 135 v 9 h 9 v -9 h -9 z M 171 153 v 9 h 9 v -9 h -9 z M 171 162 v 9 h 9 v -9 h -9 z M 171 171 v 9 h 9 v -9 h -9 z M 171 180 v 9 h 9 v -9 h -9 z M 171 216 v 9 h 9 v -9 h -9 z M 171 225 v 9 h 9 v -9 h -9 z M 171 234 v 9 h 9 v -9 h -9 z M 171 243 v 9 h 9 v -9 h -9 z M 171 252 v 9 h 9 v -9 h -9 z M 171 288 v 9 h 9 v -9 h -9 z M 171 297 v 9 h 9 v -9 h -9 z M 171 315 v 9 h 9 v -9 h -9 z M 171 324 v 9 h 9 v -9 h -9 z M 171 333 v 9 h 9 v -9 h -9 z M 171 342 v 9 h 9 v -9 h -9 z M 171 351 v 9 h 9 v -9 h -9 z M 171 369 v 9 h 9 v -9 h -9 z M 180 36 v 9 h 9 v -9 h -9 z M 180 45 v 9 h 9 v -9 h -9 z M 180 72 v 9 h 9 v -9 h -9 z M 180 81 v 9 h 9 v -9 h -9 z M 180 90 v 9 h 9 v -9 h -9 z M 180 117 v 9 h 9 v -9 h -9 z M 180 135 v 9 h 9 v -9 h -9 z M 180 144 v 9 h 9 v -9 h -9 z M 180 153 v 9 h 9 v -9 h -9 z M 180 189 v 9 h 9 v -9 h -9 z M 180 198 v 9 h 9 v -9 h -9 z M 180 216 v 9 h 9 v -9 h -9 z M 180 225 v 9 h 9 v -9 h -9 z M 180 234 v 9 h 9 v -9 h -9 z M 180 252 v 9 h 9 v -9 h -9 z M 180 261 v 9 h 9 v -9 h -9 z M 180 270 v 9 h 9 v -9 h -9 z M 180 279 v 9 h 9 v -9 h -9 z M 180 288 v 9 h 9 v -9 h -9 z M 180 306 v 9 h 9 v -9 h -9 z M 180 333 v 9 h 9 v -9 h -9 z M 180 351 v 9 h 9 v -9 h -9 z M 180 360 v 9 h 9 v -9 h -9 z M 189 18 v 9 h 9 v -9 h -9 z M 189 36 v 9 h 9 v -9 h -9 z M 189 63 v 9 h 9 v -9 h -9 z M 189 72 v 9 h 9 v -9 h -9 z M 189 99 v 9 h 9 v -9 h -9 z M 189 108 v 9 h 9 v -9 h -9 z M 189 153 v 9 h 9 v -9 h -9 z M 189 171 v 9 h 9 v -9 h -9 z M 189 180 v 9 h 9 v -9 h -9 z M 189 189 v 9 h 9 v -9 h -9 z M 189 198 v 9 h 9 v -9 h -9 z M 189 225 v 9 h 9 v -9 h -9 z M 189 234 v 9 h 9 v -9 h -9 z M 189 261 v 9 h 9 v -9 h -9 z M 189 288 v 9 h 9 v -9 h -9 z M 189 315 v 9 h 9 v -9 h -9 z M 189 351 v 9 h 9 v -9 h -9 z M 189 360 v 9 h 9 v -9 h -9 z M 198 36 v 9 h 9 v -9 h -9 z M 198 54 v 9 h 9 v -9 h -9 z M 198 81 v 9 h 9 v -9 h -9 z M 198 90 v 9 h 9 v -9 h -9 z M 198 99 v 9 h 9 v -9 h -9 z M 198 108 v 9 h 9 v -9 h -9 z M 198 126 v 9 h 9 v -9 h -9 z M 198 135 v 9 h 9 v -9 h -9 z M 198 153 v 9 h 9 v -9 h -9 z M 198 180 v 9 h 9 v -9 h -9 z M 198 207 v 9 h 9 v -9 h -9 z M 198 216 v 9 h 9 v -9 h -9 z M 198 225 v 9 h 9 v -9 h -9 z M 198 252 v 9 h 9 v -9 h -9 z M 198 270 v 9 h 9 v -9 h -9 z M 198 279 v 9 h 9 v -9 h -9 z M 198 288 v 9 h 9 v -9 h -9 z M 198 324 v 9 h 9 v -9 h -9 z M 198 333 v 9 h 9 v -9 h -9 z M 198 342 v 9 h 9 v -9 h -9 z M 198 351 v 9 h 9 v -9 h -9 z M 207 9 v 9 h 9 v -9 h -9 z M 207 27 v 9 h 9 v -9 h -9 z M 207 36 v 9 h 9 v -9 h -9 z M 207 45 v 9 h 9 v -9 h -9 z M 207 63 v 9 h 9 v -9 h -9 z M 207 72 v 9 h 9 v -9 h -9 z M 207 81 v 9 h 9 v -9 h -9 z M 207 90 v 9 h 9 v -9 h -9 z M 207 108 v 9 h 9 v -9 h -9 z M 207 126 v 9 h 9 v -9 h -9 z M 207 144 v 9 h 9 v -9 h -9 z M 207 171 v 9 h 9 v -9 h -9 z M 207 189 v 9 h 9 v -9 h -9 z M 207 207 v 9 h 9 v -9 h -9 z M 207 216 v 9 h 9 v -9 h -9 z M 207 243 v 9 h 9 v -9 h -9 z M 207 252 v 9 h 9 v -9 h -9 z M 207 270 v 9 h 9 v -9 h -9 z M 207 279 v 9 h 9 v -9 h -9 z M 207 306 v 9 h 9 v -9 h -9 z M 207 333 v 9 h 9 v -9 h -9 z M 207 342 v 9 h 9 v -9 h -9 z M 207 351 v 9 h 9 v -9 h -9 z M 216 9 v 9 h 9 v -9 h -9 z M 216 18 v 9 h 9 v -9 h -9 z M 216 72 v 9 h 9 v -9 h -9 z M 216 99 v 9 h 9 v -9 h -9 z M 216 117 v 9 h 9 v -9 h -9 z M 216 126 v 9 h 9 v -9 h -9 z M 216 144 v 9 h 9 v -9 h -9 z M 216 153 v 9 h 9 v -9 h -9 z M 216 162 v 9 h 9 v -9 h -9 z M 216 171 v 9 h 9 v -9 h -9 z M 216 180 v 9 h 9 v -9 h -9 z M 216 189 v 9 h 9 v -9 h -9 z M 216 216 v 9 h 9 v -9 h -9 z M 216 225 v 9 h 9 v -9 h -9 z M 216 261 v 9 h 9 v -9 h -9 z M 216 270 v 9 h 9 v -9 h -9 z M 216 315 v 9 h 9 v -9 h -9 z M 216 324 v 9 h 9 v -9 h -9 z M 216 333 v 9 h 9 v -9 h -9 z M 216 342 v 9 h 9 v -9 h -9 z M 216 360 v 9 h 9 v -9 h -9 z M 216 369 v 9 h 9 v -9 h -9 z M 225 27 v 9 h 9 v -9 h -9 z M 225 63 v 9 h 9 v -9 h -9 z M 225 72 v 9 h 9 v -9 h -9 z M 225 108 v 9 h 9 v -9 h -9 z M 225 126 v 9 h 9 v -9 h -9 z M 225 135 v 9 h 9 v -9 h -9 z M 225 144 v 9 h 9 v -9 h -9 z M 225 153 v 9 h 9 v -9 h -9 z M 225 171 v 9 h 9 v -9 h -9 z M 225 189 v 9 h 9 v -9 h -9 z M 225 216 v 9 h 9 v -9 h -9 z M 225 243 v 9 h 9 v -9 h -9 z M 225 252 v 9 h 9 v -9 h -9 z M 225 261 v 9 h 9 v -9 h -9 z M 225 297 v 9 h 9 v -9 h -9 z M 225 315 v 9 h 9 v -9 h -9 z M 225 324 v 9 h 9 v -9 h -9 z M 225 342 v 9 h 9 v -9 h -9 z M 225 351 v 9 h 9 v -9 h -9 z M 225 369 v 9 h 9 v -9 h -9 z M 234 9 v 9 h 9 v -9 h -9 z M 234 18 v 9 h 9 v -9 h -9 z M 234 36 v 9 h 9 v -9 h -9 z M 234 117 v 9 h 9 v -9 h -9 z M 234 135 v 9 h 9 v -9 h -9 z M 234 171 v 9 h 9 v -9 h -9 z M 234 198 v 9 h 9 v -9 h -9 z M 234 216 v 9 h 9 v -9 h -9 z M 234 225 v 9 h 9 v -9 h -9 z M 234 252 v 9 h 9 v -9 h -9 z M 234 261 v 9 h 9 v -9 h -9 z M 234 279 v 9 h 9 v -9 h -9 z M 234 297 v 9 h 9 v -9 h -9 z M 234 315 v 9 h 9 v -9 h -9 z M 234 324 v 9 h 9 v -9 h -9 z M 234 333 v 9 h 9 v -9 h -9 z M 234 351 v 9 h 9 v -9 h -9 z M 234 360 v 9 h 9 v -9 h -9 z M 234 369 v 9 h 9 v -9 h -9 z M 243 9 v 9 h 9 v -9 h -9 z M 243 18 v 9 h 9 v -9 h -9 z M 243 27 v 9 h 9 v -9 h -9 z M 243 63 v 9 h 9 v -9 h -9 z M 243 81 v 9 h 9 v -9 h -9 z M 243 90 v 9 h 9 v -9 h -9 z M 243 126 v 9 h 9 v -9 h -9 z M 243 135 v 9 h 9 v -9 h -9 z M 243 162 v 9 h 9 v -9 h -9 z M 243 171 v 9 h 9 v -9 h -9 z M 243 180 v 9 h 9 v -9 h -9 z M 243 198 v 9 h 9 v -9 h -9 z M 243 225 v 9 h 9 v -9 h -9 z M 243 243 v 9 h 9 v -9 h -9 z M 243 252 v 9 h 9 v -9 h -9 z M 243 270 v 9 h 9 v -9 h -9 z M 243 279 v 9 h 9 v -9 h -9 z M 243 288 v 9 h 9 v -9 h -9 z M 243 297 v 9 h 9 v -9 h -9 z M 243 342 v 9 h 9 v -9 h -9 z M 243 360 v 9 h 9 v -9 h -9 z M 243 369 v 9 h 9 v -9 h -9 z M 252 9 v 9 h 9 v -9 h -9 z M 252 18 v 9 h 9 v -9 h -9 z M 252 27 v 9 h 9 v -9 h -9 z M 252 45 v 9 h 9 v -9 h -9 z M 252 54 v 9 h 9 v -9 h -9 z M 252 99 v 9 h 9 v -9 h -9 z M 252 108 v 9 h 9 v -9 h -9 z M 252 117 v 9 h 9 v -9 h -9 z M 252 126 v 9 h 9 v -9 h -9 z M 252 135 v 9 h 9 v -9 h -9 z M 252 144 v 9 h 9 v -9 h -9 z M 252 207 v 9 h 9 v -9 h -9 z M 252 216 v 9 h 9 v -9 h -9 z M 252 225 v 9 h 9 v -9 h -9 z M 252 243 v 9 h 9 v -9 h -9 z M 252 252 v 9 h 9 v -9 h -9 z M 252 288 v 9 h 9 v -9 h -9 z M 252 333 v 9 h 9 v -9 h -9 z M 252 342 v 9 h 9 v -9 h -9 z M 252 351 v 9 h 9 v -9 h -9 z M 252 360 v 9 h 9 v -9 h -9 z M 261 9 v 9 h 9 v -9 h -9 z M 261 18 v 9 h 9 v -9 h -9 z M 261 27 v 9 h 9 v -9 h -9 z M 261 36 v 9 h 9 v -9 h -9 z M 261 63 v 9 h 9 v -9 h -9 z M 261 72 v 9 h 9 v -9 h -9 z M 261 81 v 9 h 9 v -9 h -9 z M 261 108 v 9 h 9 v -9 h -9 z M 261 117 v 9 h 9 v -9 h -9 z M 261 144 v 9 h 9 v -9 h -9 z M 261 171 v 9 h 9 v -9 h -9 z M 261 189 v 9 h 9 v -9 h -9 z M 261 207 v 9 h 9 v -9 h -9 z M 261 216 v 9 h 9 v -9 h -9 z M 261 234 v 9 h 9 v -9 h -9 z M 261 252 v 9 h 9 v -9 h -9 z M 261 279 v 9 h 9 v -9 h -9 z M 261 288 v 9 h 9 v -9 h -9 z M 261 315 v 9 h 9 v -9 h -9 z M 261 324 v 9 h 9 v -9 h -9 z M 261 342 v 9 h 9 v -9 h -9 z M 261 360 v 9 h 9 v -9 h -9 z M 270 9 v 9 h 9 v -9 h -9 z M 270 36 v 9 h 9 v -9 h -9 z M 270 45 v 9 h 9 v -9 h -9 z M 270 54 v 9 h 9 v -9 h -9 z M 270 72 v 9 h 9 v -9 h -9 z M 270 90 v 9 h 9 v -9 h -9 z M 270 117 v 9 h 9 v -9 h -9 z M 270 126 v 9 h 9 v -9 h -9 z M 270 135 v 9 h 9 v -9 h -9 z M 270 153 v 9 h 9 v -9 h -9 z M 270 162 v 9 h 9 v -9 h -9 z M 270 171 v 9 h 9 v -9 h -9 z M 270 189 v 9 h 9 v -9 h -9 z M 270 207 v 9 h 9 v -9 h -9 z M 270 216 v 9 h 9 v -9 h -9 z M 270 225 v 9 h 9 v -9 h -9 z M 270 243 v 9 h 9 v -9 h -9 z M 270 270 v 9 h 9 v -9 h -9 z M 270 279 v 9 h 9 v -9 h -9 z M 270 315 v 9 h 9 v -9 h -9 z M 270 333 v 9 h 9 v -9 h -9 z M 270 342 v 9 h 9 v -9 h -9 z M 270 351 v 9 h 9 v -9 h -9 z M 270 360 v 9 h 9 v -9 h -9 z M 279 9 v 9 h 9 v -9 h -9 z M 279 18 v 9 h 9 v -9 h -9 z M 279 45 v 9 h 9 v -9 h -9 z M 279 63 v 9 h 9 v -9 h -9 z M 279 90 v 9 h 9 v -9 h -9 z M 279 108 v 9 h 9 v -9 h -9 z M 279 117 v 9 h 9 v -9 h -9 z M 279 144 v 9 h 9 v -9 h -9 z M 279 162 v 9 h 9 v -9 h -9 z M 279 189 v 9 h 9 v -9 h -9 z M 279 207 v 9 h 9 v -9 h -9 z M 279 216 v 9 h 9 v -9 h -9 z M 279 234 v 9 h 9 v -9 h -9 z M 279 261 v 9 h 9 v -9 h -9 z M 279 270 v 9 h 9 v -9 h -9 z M 279 279 v 9 h 9 v -9 h -9 z M 279 288 v 9 h 9 v -9 h -9 z M 279 306 v 9 h 9 v -9 h -9 z M 279 360 v 9 h 9 v -9 h -9 z M 279 369 v 9 h 9 v -9 h -9 z M 288 9 v 9 h 9 v -9 h -9 z M 288 18 v 9 h 9 v -9 h -9 z M 288 45 v 9 h 9 v -9 h -9 z M 288 90 v 9 h 9 v -9 h -9 z M 288 99 v 9 h 9 v -9 h -9 z M 288 108 v 9 h 9 v -9 h -9 z M 288 117 v 9 h 9 v -9 h -9 z M 288 126 v 9 h 9 v -9 h -9 z M 288 135 v 9 h 9 v -9 h -9 z M 288 153 v 9 h 9 v -9 h -9 z M 288 225 v 9 h 9 v -9 h -9 z M 288 234 v 9 h 9 v -9 h -9 z M 288 252 v 9 h 9 v -9 h -9 z M 288 261 v 9 h 9 v -9 h -9 z M 288 288 v 9 h 9 v -9 h -9 z M 288 297 v 9 h 9 v -9 h -9 z M 288 315 v 9 h 9 v -9 h -9 z M 288 333 v 9 h 9 v -9 h -9 z M 288 351 v 9 h 9 v -9 h -9 z M 288 360 v 9 h 9 v -9 h -9 z M 297 9 v 9 h 9 v -9 h -9 z M 297 18 v 9 h 9 v -9 h -9 z M 297 27 v 9 h 9 v -9 h -9 z M 297 36 v 9 h 9 v -9 h -9 z M 297 45 v 9 h 9 v -9 h -9 z M 297 54 v 9 h 9 v -9 h -9 z M 297 63 v 9 h 9 v -9 h -9 z M 297 99 v 9 h 9 v -9 h -9 z M 297 135 v 9 h 9 v -9 h -9 z M 297 144 v 9 h 9 v -9 h -9 z M 297 153 v 9 h 9 v -9 h -9 z M 297 207 v 9 h 9 v -9 h -9 z M 297 243 v 9 h 9 v -9 h -9 z M 297 261 v 9 h 9 v -9 h -9 z M 297 270 v 9 h 9 v -9 h -9 z M 297 288 v 9 h 9 v -9 h -9 z M 297 297 v 9 h 9 v -9 h -9 z M 297 306 v 9 h 9 v -9 h -9 z M 297 315 v 9 h 9 v -9 h -9 z M 297 324 v 9 h 9 v -9 h -9 z M 297 333 v 9 h 9 v -9 h -9 z M 297 369 v 9 h 9 v -9 h -9 z M 306 81 v 9 h 9 v -9 h -9 z M 306 90 v 9 h 9 v -9 h -9 z M 306 135 v 9 h 9 v -9 h -9 z M 306 153 v 9 h 9 v -9 h -9 z M 306 162 v 9 h 9 v -9 h -9 z M 306 171 v 9 h 9 v -9 h -9 z M 306 180 v 9 h 9 v -9 h -9 z M 306 216 v 9 h 9 v -9 h -9 z M 306 234 v 9 h 9 v -9 h -9 z M 306 243 v 9 h 9 v -9 h -9 z M 306 252 v 9 h 9 v -9 h -9 z M 306 261 v 9 h 9 v -9 h -9 z M 306 297 v 9 h 9 v -9 h -9 z M 306 333 v 9 h 9 v -9 h -9 z M 306 342 v 9 h 9 v -9 h -9 z M 306 351 v 9 h 9 v -9 h -9 z M 315 81 v 9 h 9 v -9 h -9 z M 315 90 v 9 h 9 v -9 h -9 z M 315 99 v 9 h 9 v -9 h -9 z M 315 135 v 9 h 9 v -9 h -9 z M 315 144 v 9 h 9 v -9 h -9 z M 315 153 v 9 h 9 v -9 h -9 z M 315 189 v 9 h 9 v -9 h -9 z M 315 198 v 9 h 9 v -9 h -9 z M 315 216 v 9 h 9 v -9 h -9 z M 315 225 v 9 h 9 v -9 h -9 z M 315 234 v 9 h 9 v -9 h -9 z M 315 252 v 9 h 9 v -9 h -9 z M 315 261 v 9 h 9 v -9 h -9 z M 315 270 v 9 h 9 v -9 h -9 z M 315 279 v 9 h 9 v -9 h -9 z M 315 288 v 9 h 9 v -9 h -9 z M 315 297 v 9 h 9 v -9 h -9 z M 315 315 v 9 h 9 v -9 h -9 z M 315 333 v 9 h 9 v -9 h -9 z M 315 351 v 9 h 9 v -9 h -9 z M 324 81 v 9 h 9 v -9 h -9 z M 324 108 v 9 h 9 v -9 h -9 z M 324 117 v 9 h 9 v -9 h -9 z M 324 126 v 9 h 9 v -9 h -9 z M 324 144 v 9 h 9 v -9 h -9 z M 324 171 v 9 h 9 v -9 h -9 z M 324 216 v 9 h 9 v -9 h -9 z M 324 234 v 9 h 9 v -9 h -9 z M 324 252 v 9 h 9 v -9 h -9 z M 324 261 v 9 h 9 v -9 h -9 z M 324 270 v 9 h 9 v -9 h -9 z M 324 288 v 9 h 9 v -9 h -9 z M 324 297 v 9 h 9 v -9 h -9 z M 324 333 v 9 h 9 v -9 h -9 z M 324 342 v 9 h 9 v -9 h -9 z M 333 81 v 9 h 9 v -9 h -9 z M 333 90 v 9 h 9 v -9 h -9 z M 333 108 v 9 h 9 v -9 h -9 z M 333 162 v 9 h 9 v -9 h -9 z M 333 180 v 9 h 9 v -9 h -9 z M 333 189 v 9 h 9 v -9 h -9 z M 333 198 v 9 h 9 v -9 h -9 z M 333 207 v 9 h 9 v -9 h -9 z M 333 216 v 9 h 9 v -9 h -9 z M 333 225 v 9 h 9 v -9 h -9 z M 333 234 v 9 h 9 v -9 h -9 z M 333 252 v 9 h 9 v -9 h -9 z M 333 270 v 9 h 9 v -9 h -9 z M 333 279 v 9 h 9 v -9 h -9 z M 333 288 v 9 h 9 v -9 h -9 z M 333 297 v 9 h 9 v -9 h -9 z M 333 306 v 9 h 9 v -9 h -9 z M 333 315 v 9 h 9 v -9 h -9 z M 333 324 v 9 h 9 v -9 h -9 z M 333 333 v 9 h 9 v -9 h -9 z M 342 81 v 9 h 9 v -9 h -9 z M 342 90 v 9 h 9 v -9 h -9 z M 342 108 v 9 h 9 v -9 h -9 z M 342 126 v 9 h 9 v -9 h -9 z M 342 135 v 9 h 9 v -9 h -9 z M 342 171 v 9 h 9 v -9 h -9 z M 342 198 v 9 h 9 v -9 h -9 z M 342 207 v 9 h 9 v -9 h -9 z M 342 216 v 9 h 9 v -9 h -9 z M 342 234 v 9 h 9 v -9 h -9 z M 342 243 v 9 h 9 v -9 h -9 z M 342 252 v 9 h 9 v -9 h -9 z M 342 261 v 9 h 9 v -9 h -9 z M 342 297 v 9 h 9 v -9 h -9 z M 342 324 v 9 h 9 v -9 h -9 z M 342 342 v 9 h 9 v -9 h -9 z M 342 351 v 9 h 9 v -9 h -9 z M 342 360 v 9 h 9 v -9 h -9 z M 351 90 v 9 h 9 v -9 h -9 z M 351 99 v 9 h 9 v -9 h -9 z M 351 117 v 9 h 9 v -9 h -9 z M 351 135 v 9 h 9 v -9 h -9 z M 351 144 v 9 h 9 v -9 h -9 z M 351 180 v 9 h 9 v -9 h -9 z M 351 189 v 9 h 9 v -9 h -9 z M 351 198 v 9 h 9 v -9 h -9 z M 351 207 v 9 h 9 v -9 h -9 z M 351 225 v 9 h 9 v -9 h -9 z M 351 234 v 9 h 9 v -9 h -9 z M 351 252 v 9 h 9 v -9 h -9 z M 351 288 v 9 h 9 v -9 h -9 z M 351 306 v 9 h 9 v -9 h -9 z M 351 324 v 9 h 9 v -9 h -9 z M 351 333 v 9 h 9 v -9 h -9 z M 351 342 v 9 h 9 v -9 h -9 z M 351 351 v 9 h 9 v -9 h -9 z M 351 369 v 9 h 9 v -9 h -9 z M 360 90 v 9 h 9 v -9 h -9 z M 360 108 v 9 h 9 v -9 h -9 z M 360 126 v 9 h 9 v -9 h -9 z M 360 135 v 9 h 9 v -9 h -9 z M 360 144 v 9 h 9 v -9 h -9 z M 360 153 v 9 h 9 v -9 h -9 z M 360 189 v 9 h 9 v -9 h -9 z M 360 252 v 9 h 9 v -9 h -9 z M 360 306 v 9 h 9 v -9 h -9 z M 360 315 v 9 h 9 v -9 h -9 z M 360 333 v 9 h 9 v -9 h -9 z M 360 342 v 9 h 9 v -9 h -9 z M 360 351 v 9 h 9 v -9 h -9 z M 360 369 v 9 h 9 v -9 h -9 z M 369 81 v 9 h 9 v -9 h -9 z M 369 90 v 9 h 9 v -9 h -9 z M 369 99 v 9 h 9 v -9 h -9 z M 369 108 v 9 h 9 v -9 h -9 z M 369 117 v 9 h 9 v -9 h -9 z M 369 126 v 9 h 9 v -9 h -9 z M 369 207 v 9 h 9 v -9 h -9 z M 369 216 v 9 h 9 v -9 h -9 z M 369 234 v 9 h 9 v -9 h -9 z M 369 243 v 9 h 9 v -9 h -9 z M 369 288 v 9 h 9 v -9 h -9 z M 369 297 v 9 h 9 v -9 h -9 z M 369 306 v 9 h 9 v -9 h -9 z M 369 333 v 9 h 9 v -9 h -9 z M 369 351 v 9 h 9 v -9 h -9 z" fill="#000000"/></svg>