<?xml version="1.0" encoding="utf-8"?><svg xmlns="http://www.w3.org/2000/svg" version="1.1" xmlns:xlink="http://www.w3.org/1999/xlink" viewBox="0 0 315 315"><rect width="315" height="315" fill="#FFFFFF"></rect><path shape-rendering="geometricPrecision" d="M 9 9 v 63 h 63 v -63 h -63 z M 18 18 v 45 h 45 v -45 h -45 z M 306 9 v 63 h -63 v -63 h 63 z M 297 18 v 45 h -45 v -45 h 45 z M 9 306 v -63 h 63 v 63 h -63 z M 18 297 v -45 h 45 v 45 h -45 z" fill-rule="evenodd" fill="#000000"/><path shape-rendering="geometricPrecision" d="M 27 27 v 27 h 27 v -27 h -27 z M 288 27 v 27 h -27 v -27 h 27 z M 27 288 v -27 h 27 v 27 h -27 z" fill="#000000"/><path shape-rendering="geometricPrecision" d="M 9 99 v 9 h 9 v -9 h -9 z M 9 108 v 9 h 9 v -9 h -9 z M 9 117 v 9 h 9 v -9 h -9 z M 9 135 v 9 h 9 v -9 h -9 z M 9 144 v 9 h 9 v -9 h -9 z M 9 153 v 9 h 9 v -9 h -9 z M 9 180 v 9 h 9 v -9 h -9 z M 9 189 v 9 h 9 v -9 h -9 z M 9 207 v 9 h 9 v -9 h -9 z M 9 216 v 9 h 9 v -9 h -9 z M 18 117 v 9 h 9 v -9 h -9 z M 18 144 v 9 h 9 v -9 h -9 z M 18 153 v 9 h 9 v -9 h -9 z M 18 162 v 9 h 9 v -9 h -9 z M 18 171 v 9 h 9 v -9 h -9 z M 18 189 v 9 h 9 v -9 h -9 z M 18 207 v 9 h 9 v -9 h -9 z M 27 81 v 9 h 9 v -9 h -9 z M 27 90 v 9 h 9 v -9 h -9 z M 27 99 v 9 h 9 v -9 h -9 z M 27 135 v 9 h 9 v -9 h -9 z M 27 153 v 9 h 9 v -9 h -9 z M 27 198 v 9 h 9 v -9 h -9 z M 27 207 v 9 h 9 v -9 h -9 z M 27 216 v 9 h 9 v -9 h -9 z M 36 81 v 9 h 9 v -9 h -9 z M 36 108 v 9 h 9 v -9 h -9 z M 36 117 v 9 h 9 v -9 h -9 z M 36 162 v 9 h 9 v -9 h -9 z M 36 171 v 9 h 9 v -9 h -9 z M 36 180 v 9 h 9 v -9 h -9 z M 36 189 v 9 h 9 v -9 h -9 z M 36 198 v 9 h 9 v -9 h -9 z M 36 207 v 9 h 9 v -9 h -9 z M 36 216 v 9 h 9 v -9 h -9 z M 36 225 v 9 h 9 v -9 h -9 z M 45 81 v 9 h 9 v -9 h -9 z M 45 99 v 9 h 9 v -9 h -9 z M 45 153 v 9 h 9 v -9 h -9 z M 45 171 v 9 h 9 v -9 h -9 z M 45 180 v 9 h 9 v -9 h -9 z M 45 189 v 9 h 9 v -9 h -9 z M 45 198 v 9 h 9 v -9 h -9 z M 45 216 v 9 h 9 v -9 h -9 z M 45 225 v 9 h 9 v -9 h -9 z M 54 81 v 9 h 9 v -9 h -9 z M 54 90 v 9 h 9 v -9 h -9 z M 54 99 v 9 h 9 v -9 h -9 z M 54 108 v 9 h 9 v -9 h -9 z M 54 117 v 9 h 9 v -9 h -9 z M 54 126 v 9 h 9 v -9 h -9 z M 54 144 v 9 h 9 v -9 h -9 z M 54 189 v 9 h 9 v -9 h -9 z M 54 198 v 9 h 9 v -9 h -9 z M 63 81 v 9 h 9 v -9 h -9 z M 63 99 v 9 h 9 v -9 h -9 z M 63 117 v 9 h 9 v -9 h -9 z M 63 135 v 9 h 9 v -9 h -9 z M 63 153 v 9 h 9 v -9 h -9 z M 63 171 v 9 h 9 v -9 h -9 z M 63 189 v 9 h 9 v -9 h -9 z M 63 207 v 9 h 9 v -9 h -9 z M 63 225 v 9 h 9 v -9 h -9 z M 72 81 v 9 h 9 v -9 h -9 z M 72 90 v 9 h 9 v -9 h -9 z M 72 99 v 9 h 9 v -9 h -9 z M 72 117 v 9 h 9 v -9 h -9 z M 72 135 v 9 h 9 v -9 h -9 z M 72 144 v 9 h 9 v -9 h -9 z M 72 153 v 9 h 9 v -9 h -9 z M 72 171 v 9 h 9 v -9 h -9 z M 72 180 v 9 h 9 v -9 h -9 z M 72 189 v 9 h 9 v -9 h -9 z M 72 198 v 9 h 9 v -9 h -9 z M 72 225 v 9 h 9 v -9 h -9 z M 81 9 v 9 h 9 v -9 h -9 z M 81 27 v 9 h 9 v -9 h -9 z M 81 36 v 9 h 9 v -9 h -9 z M 81 45 v 9 h 9 v -9 h -9 z M 81 54 v 9 h 9 v -9 h -9 z M 81 63 v 9 h 9 v -9 h -9 z M 81 108 v 9 h 9 v -9 h -9 z M 81 117 v 9 h 9 v -9 h -9 z M 81 126 v 9 h 9 v -9 h -9 z M 81 135 v 9 h 9 v -9 h -9 z M 81 144 v 9 h 9 v -9 h -9 z M 81 162 v 9 h 9 v -9 h -9 z M 81 180 v 9 h 9 v -9 h -9 z M 81 225 v 9 h 9 v -9 h -9 z M 81 243 v 9 h 9 v -9 h -9 z M 81 252 v 9 h 9 v -9 h -9 z M 81 261 v 9 h 9 v -9 h -9 z M 81 270 v 9 h 9 v -9 h -9 z M 81 279 v 9 h 9 v -9 h -9 z M 90 27 v 9 h 9 v -9 h -9 z M 90 36 v 9 h 9 v -9 h -9 z M 90 54 v 9 h 9 v -9 h -9 z M 90 72 v 9 h 9 v -9 h -9 z M 90 108 v 9 h 9 v -9 h -9 z M 90 117 v 9 h 9 v -9 h -9 z M 90 126 v 9 h 9 v -9 h -9 z M 90 162 v 9 h 9 v -9 h -9 z M 90 171 v 9 h 9 v -9 h -9 z M 90 180 v 9 h 9 v -9 h -9 z M 90 189 v 9 h 9 v -9 h -9 z M 90 198 v 9 h 9 v -9 h -9 z M 90 207 v 9 h 9 v -9 h -9 z M 90 216 v 9 h 9 v -9 h -9 z M 90 243 v 9 h 9 v -9 h -9 z M 90 252 v 9 h 9 v -9 h -9 z M 90 270 v 9 h 9 v -9 h -9 z M 90 279 v 9 h 9 v -9 h -9 z M 90 297 v 9 h 9 v -9 h -9 z M 99 9 v 9 h 9 v -9 h -9 z M 99 54 v 9 h 9 v -9 h -9 z M 99 63 v 9 h 9 v -9 h -9 z M 99 108 v 9 h 9 v -9 h -9 z M 99 117 v 9 h 9 v -9 h -9 z M 99 126 v 9 h 9 v -9 h -9 z M 99 135 v 9 h 9 v -9 h -9 z M 99 144 v 9 h 9 v -9 h -9 z M 99 153 v 9 h 9 v -9 h -9 z M 99 162 v 9 h 9 v -9 h -9 z M 99 189 v 9 h 9 v -9 h -9 z M 99 198 v 9 h 9 v -9 h -9 z M 99 261 v 9 h 9 v -9 h -9 z M 99 279 v 9 h 9 v -9 h -9 z M 99 288 v 9 h 9 v -9 h -9 z M 108 9 v 9 h 9 v -9 h -9 z M 108 27 v 9 h 9 v -9 h -9 z M 108 36 v 9 h 9 v -9 h -9 z M 108 81 v 9 h 9 v -9 h -9 z M 108 99 v 9 h 9 v -9 h -9 z M 108 126 v 9 h 9 v -9 h -9 z M 108 153 v 9 h 9 v -9 h -9 z M 108 180 v 9 h 9 v -9 h -9 z M 108 189 v 9 h 9 v -9 h -9 z M 108 198 v 9 h 9 v -9 h -9 z M 108 207 v 9 h 9 v -9 h -9 z M 108 216 v 9 h 9 v -9 h -9 z M 108 261 v 9 h 9 v -9 h -9 z M 108 270 v 9 h 9 v -9 h -9 z M 108 279 v 9 h 9 v -9 h -9 z M 117 18 v 9 h 9 v -9 h -9 z M 117 27 v 9 h 9 v -9 h -9 z M 117 36 v 9 h 9 v -9 h -9 z M 117 45 v 9 h 9 v -9 h -9 z M 117 63 v 9 h 9 v -9 h -9 z M 117 99 v 9 h 9 v -9 h -9 z M 117 135 v 9 h 9 v -9 h -9 z M 117 207 v 9 h 9 v -9 h -9 z M 117 225 v 9 h 9 v -9 h -9 z M 117 234 v 9 h 9 v -9 h -9 z M 117 261 v 9 h 9 v -9 h -9 z M 117 270 v 9 h 9 v -9 h -9 z M 117 288 v 9 h 9 v -9 h -9 z M 126 9 v 9 h 9 v -9 h -9 z M 126 18 v 9 h 9 v -9 h -9 z M 126 45 v 9 h 9 v -9 h -9 z M 126 54 v 9 h 9 v -9 h -9 z M 126 90 v 9 h 9 v -9 h -9 z M 126 99 v 9 h 9 v -9 h -9 z M 126 117 v 9 h 9 v -9 h -9 z M 126 153 v 9 h 9 v -9 h -9 z M 126 162 v 9 h 9 v -9 h -9 z M 126 171 v 9 h 9 v -9 h -9 z M 126 180 v 9 h 9 v -9 h -9 z M 126 189 v 9 h 9 v -9 h -9 z M 126 198 v 9 h 9 v -9 h -9 z M 126 207 v 9 h 9 v -9 h -9 z M 126 216 v 9 h 9 v -9 h -9 z M 126 243 v 9 h 9 v -9 h -9 z M 126 288 v 9 h 9 v -9 h -9 z M 126 297 v 9 h 9 v -9 h -9 z M 135 9 v 9 h 9 v -9 h -9 z M 135 18 v 9 h 9 v -9 h -9 z M 135 27 v 9 h 9 v -9 h -9 z M 135 45 v 9 h 9 v -9 h -9 z M 135 54 v 9 h 9 v -9 h -9 z M 135 63 v 9 h 9 v -9 h -9 z M 135 90 v 9 h 9 v -9 h -9 z M 135 108 v 9 h 9 v -9 h -9 z M 135 117 v 9 h 9 v -9 h -9 z M 135 126 v 9 h 9 v -9 h -9 z M 135 144 v 9 h 9 v -9 h -9 z M 135 171 v 9 h 9 v -9 h -9 z M 135 198 v 9 h 9 v -9 h -9 z M 135 225 v 9 h 9 v -9 h -9 z M 135 234 v 9 h 9 v -9 h -9 z M 135 243 v 9 h 9 v -9 h -9 z M 135 261 v 9 h 9 v -9 h -9 z M 135 270 v 9 h 9 v -9 h -9 z M 135 279 v 9 h 9 v -9 h -9 z M 135 288 v 9 h 9 v -9 h -9 z M 144 9 v 9 h 9 v -9 h -9 z M 144 18 v 9 h 9 v -9 h -9 z M 144 27 v 9 h 9 v -9 h -9 z M 144 36 v 9 h 9 v -9 h -9 z M 144 54 v 9 h 9 v -9 h -9 z M 144 72 v 9 h 9 v -9 h -9 z M 144 126 v 9 h 9 v -9 h -9 z M 144 153 v 9 h 9 v -9 h -9 z M 144 171 v 9 h 9 v -9 h -9 z M 144 189 v 9 h 9 v -9 h -9 z M 144 198 v 9 h 9 v -9 h -9 z M 144 234 v 9 h 9 v -9 h -9 z M 144 243 v 9 h 9 v -9 h -9 z M 144 261 v 9 h 9 v -9 h -9 z M 144 270 v 9 h 9 v -9 h -9 z M 144 279 v 9 h 9 v -9 h -9 z M 153 9 v 9 h 9 v -9 h -9 z M 153 27 v 9 h 9 v -9 h -9 z M 153 36 v 9 h 9 v -9 h -9 z M 153 63 v 9 h 9 v -9 h -9 z M 153 72 v 9 h 9 v -9 h -9 z M 153 81 v 9 h 9 v -9 h -9 z M 153 90 v 9 h 9 v -9 h -9 z M 153 108 v 9 h 9 v -9 h -9 z M 153 126 v 9 h 9 v -9 h -9 z M 153 135 v 9 h 9 v -9 h -9 z M 153 162 v 9 h 9 v -9 h -9 z M 153 225 v 9 h 9 v -9 h -9 z M 153 234 v 9 h 9 v -9 h -9 z M 153 252 v 9 h 9 v -9 h -9 z M 153 261 v 9 h 9 v -9 h -9 z M 153 297 v 9 h 9 v -9 h -9 z M 162 9 v 9 h 9 v -9 h -9 z M 162 18 v 9 h 9 v -9 h -9 z M 162 45 v 9 h 9 v -9 h -9 z M 162 99 v 9 h 9 v -9 h -9 z M 162 108 v 9 h 9 v -9 h -9 z M 162 117 v 9 h 9 v -9 h -9 z M 162 153 v 9 h 9 v -9 h -9 z M 162 162 v 9 h 9 v -9 h -9 z M 162 180 v 9 h 9 v -9 h -9 z M 162 189 v 9 h 9 v -9 h -9 z M 162 198 v 9 h 9 v -9 h -9 z M 162 207 v 9 h 9 v -9 h -9 z M 162 216 v 9 h 9 v -9 h -9 z M 162 243 v 9 h 9 v -9 h -9 z M 162 252 v 9 h 9 v -9 h -9 z M 162 270 v 9 h 9 v -9 h -9 z M 162 279 v 9 h 9 v -9 h -9 z M 162 297 v 9 h 9 v -9 h -9 z M 171 9 v 9 h 9 v -9 h -9 z M 171 36 v 9 h 9 v -9 h -9 z M 171 45 v 9 h 9 v -9 h -9 z M 171 54 v 9 h 9 v -9 h -9 z M 171 63 v 9 h 9 v -9 h -9 z M 171 72 v 9 h 9 v -9 h -9 z M 171 144 v 9 h 9 v -9 h -9 z M 171 153 v 9 h 9 v -9 h -9 z M 171 234 v 9 h 9 v -9 h -9 z M 171 243 v 9 h 9 v -9 h -9 z M 171 252 v 9 h 9 v -9 h -9 z M 171 261 v 9 h 9 v -9 h -9 z M 171 279 v 9 h 9 v -9 h -9 z M 171 288 v 9 h 9 v -9 h -9 z M 180 9 v 9 h 9 v -9 h -9 z M 180 36 v 9 h 9 v -9 h -9 z M 180 45 v 9 h 9 v -9 h -9 z M 180 117 v 9 h 9 v -9 h -9 z M 180 126 v 9 h 9 v -9 h -9 z M 180 135 v 9 h 9 v -9 h -9 z M 180 144 v 9 h 9 v -9 h -9 z M 180 171 v 9 h 9 v -9 h -9 z M 180 180 v 9 h 9 v -9 h -9 z M 180 189 v 9 h 9 v -9 h -9 z M 180 198 v 9 h 9 v -9 h -9 z M 180 252 v 9 h 9 v -9 h -9 z M 180 261 v 9 h 9 v -9 h -9 z M 180 270 v 9 h 9 v -9 h -9 z M 180 279 v 9 h 9 v -9 h -9 z M 180 288 v 9 h 9 v -9 h -9 z M 189 27 v 9 h 9 v -9 h -9 z M 189 63 v 9 h 9 v -9 h -9 z M 189 81 v 9 h 9 v -9 h -9 z M 189 108 v 9 h 9 v -9 h -9 z M 189 126 v 9 h 9 v -9 h -9 z M 189 135 v 9 h 9 v -9 h -9 z M 189 162 v 9 h 9 v -9 h -9 z M 189 180 v 9 h 9 v -9 h -9 z M 189 189 v 9 h 9 v -9 h -9 z M 189 207 v 9 h 9 v -9 h -9 z M 189 234 v 9 h 9 v -9 h -9 z M 189 252 v 9 h 9 v -9 h -9 z M 189 261 v 9 h 9 v -9 h -9 z M 189 270 v 9 h 9 v -9 h -9 z M 189 288 v 9 h 9 v -9 h -9 z M 198 9 v 9 h 9 v -9 h -9 z M 198 18 v 9 h 9 v -9 h -9 z M 198 54 v 9 h 9 v -9 h -9 z M 198 72 v 9 h 9 v -9 h -9 z M 198 90 v 9 h 9 v -9 h -9 z M 198 108 v 9 h 9 v -9 h -9 z M 198 117 v 9 h 9 v -9 h -9 z M 198 135 v 9 h 9 v -9 h -9 z M 198 153 v 9 h 9 v -9 h -9 z M 198 171 v 9 h 9 v -9 h -9 z M 198 180 v 9 h 9 v -9 h -9 z M 198 189 v 9 h 9 v -9 h -9 z M 198 198 v 9 h 9 v -9 h -9 z M 198 216 v 9 h 9 v -9 h -9 z M 198 243 v 9 h 9 v -9 h -9 z M 198 252 v 9 h 9 v -9 h -9 z M 198 270 v 9 h 9 v -9 h -9 z M 198 279 v 9 h 9 v -9 h -9 z M 198 297 v 9 h 9 v -9 h -9 z M 207 9 v 9 h 9 v -9 h -9 z M 207 27 v 9 h 9 v -9 h -9 z M 207 45 v 9 h 9 v -9 h -9 z M 207 54 v 9 h 9 v -9 h -9 z M 207 63 v 9 h 9 v -9 h -9 z M 207 90 v 9 h 9 v -9 h -9 z M 207 117 v 9 h 9 v -9 h -9 z M 207 126 v 9 h 9 v -9 h -9 z M 207 144 v 9 h 9 v -9 h -9 z M 207 153 v 9 h 9 v -9 h -9 z M 207 189 v 9 h 9 v -9 h -9 z M 207 198 v 9 h 9 v -9 h -9 z M 207 225 v 9 h 9 v -9 h -9 z M 207 234 v 9 h 9 v -9 h -9 z M 207 261 v 9 h 9 v -9 h -9 z M 207 270 v 9 h 9 v -9 h -9 z M 207 279 v 9 h 9 v -9 h -9 z M 207 288 v 9 h 9 v -9 h -9 z M 216 9 v 9 h 9 v -9 h -9 z M 216 90 v 9 h 9 v -9 h -9 z M 216 99 v 9 h 9 v -9 h -9 z M 216 108 v 9 h 9 v -9 h -9 z M 216 117 v 9 h 9 v -9 h -9 z M 216 126 v 9 h 9 v -9 h -9 z M 216 144 v 9 h 9 v -9 h -9 z M 216 180 v 9 h 9 v -9 h -9 z M 216 198 v 9 h 9 v -9 h -9 z M 216 207 v 9 h 9 v -9 h -9 z M 216 216 v 9 h 9 v -9 h -9 z M 216 252 v 9 h 9 v -9 h -9 z M 216 279 v 9 h 9 v -9 h -9 z M 216 288 v 9 h 9 v -9 h -9 z M 225 9 v 9 h 9 v -9 h -9 z M 225 27 v 9 h 9 v -9 h -9 z M 225 36 v 9 h 9 v -9 h -9 z M 225 54 v 9 h 9 v -9 h -9 z M 225 63 v 9 h 9 v -9 h -9 z M 225 72 v 9 h 9 v -9 h -9 z M 225 99 v 9 h 9 v -9 h -9 z M 225 108 v 9 h 9 v -9 h -9 z M 225 117 v 9 h 9 v -9 h -9 z M 225 144 v 9 h 9 v -9 h -9 z M 225 162 v 9 h 9 v -9 h -9 z M 225 216 v 9 h 9 v -9 h -9 z M 225 225 v 9 h 9 v -9 h -9 z M 225 234 v 9 h 9 v -9 h -9 z M 225 243 v 9 h 9 v -9 h -9 z M 225 252 v 9 h 9 v -9 h -9 z M 225 261 v 9 h 9 v -9 h -9 z M 225 288 v 9 h 9 v -9 h -9 z M 225 297 v 9 h 9 v -9 h -9 z M 234 81 v 9 h 9 v -9 h -9 z M 234 90 v 9 h 9 v -9 h -9 z M 234 153 v 9 h 9 v -9 h -9 z M 234 171 v 9 h 9 v -9 h -9 z M 234 180 v 9 h 9 v -9 h -9 z M 234 198 v 9 h 9 v -9 h -9 z M 234 207 v 9 h 9 v -9 h -9 z M 234 225 v 9 h 9 v -9 h -9 z M 234 261 v 9 h 9 v -9 h -9 z M 234 279 v 9 h 9 v -9 h -9 z M 234 297 v 9 h 9 v -9 h -9 z M 243 99 v 9 h 9 v -9 h -9 z M 243 108 v 9 h 9 v -9 h -9 z M 243 117 v 9 h 9 v -9 h -9 z M 243 144 v 9 h 9 v -9 h -9 z M 243 171 v 9 h 9 v -9 h -9 z M 243 189 v 9 h 9 v -9 h -9 z M 243 216 v 9 h 9 v -9 h -9 z M 243 225 v 9 h 9 v -9 h -9 z M 243 243 v 9 h 9 v -9 h -9 z M 243 261 v 9 h 9 v -9 h -9 z M 243 279 v 9 h 9 v -9 h -9 z M 243 288 v 9 h 9 v -9 h -9 z M 252 81 v 9 h 9 v -9 h -9 z M 252 90 v 9 h 9 v -9 h -9 z M 252 99 v 9 h 9 v -9 h -9 z M 252 135 v 9 h 9 v -9 h -9 z M 252 153 v 9 h 9 v -9 h -9 z M 252 180 v 9 h 9 v -9 h -9 z M 252 198 v 9 h 9 v -9 h -9 z M 252 216 v 9 h 9 v -9 h -9 z M 252 225 v 9 h 9 v -9 h -9 z M 252 261 v 9 h 9 v -9 h -9 z M 252 270 v 9 h 9 v -9 h -9 z M 252 279 v 9 h 9 v -9 h -9 z M 252 288 v 9 h 9 v -9 h -9 z M 261 81 v 9 h 9 v -9 h -9 z M 261 99 v 9 h 9 v -9 h -9 z M 261 108 v 9 h 9 v -9 h -9 z M 261 126 v 9 h 9 v -9 h -9 z M 261 162 v 9 h 9 v -9 h -9 z M 261 189 v 9 h 9 v -9 h -9 z M 261 207 v 9 h 9 v -9 h -9 z M 261 225 v 9 h 9 v -9 h -9 z M 261 234 v 9 h 9 v -9 h -9 z M 261 243 v 9 h 9 v -9 h -9 z M 261 252 v 9 h 9 v -9 h -9 z M 261 261 v 9 h 9 v -9 h -9 z M 261 270 v 9 h 9 v -9 h -9 z M 261 288 v 9 h 9 v -9 h -9 z M 270 81 v 9 h 9 v -9 h -9 z M 270 108 v 9 h 9 v -9 h -9 z M 270 153 v 9 h 9 v -9 h -9 z M 270 180 v 9 h 9 v -9 h -9 z M 270 189 v 9 h 9 v -9 h -9 z M 270 198 v 9 h 9 v -9 h -9 z M 270 207 v 9 h 9 v -9 h -9 z M 270 216 v 9 h 9 v -9 h -9 z M 270 225 v 9 h 9 v -9 h -9 z M 270 234 v 9 h 9 v -9 h -9 z M 270 261 v 9 h 9 v -9 h -9 z M 270 270 v 9 h 9 v -9 h -9 z M 270 288 v 9 h 9 v -9 h -9 z M 270 297 v 9 h 9 v -9 h -9 z M 279 81 v 9 h 9 v -9 h -9 z M 279 90 v 9 h 9 v -9 h -9 z M 279 99 v 9 h 9 v -9 h -9 z M 279 108 v 9 h 9 v -9 h -9 z M 279 117 v 9 h 9 v -9 h -9 z M 279 144 v 9 h 9 v -9 h -9 z M 279 162 v 9 h 9 v -9 h -9 z M 279 171 v 9 h 9 v -9 h -9 z M 279 189 v 9 h 9 v -9 h -9 z M 279 243 v 9 h 9 v -9 h -9 z M 279 252 v 9 h 9 v -9 h -9 z M 279 270 v 9 h 9 v -9 h -9 z M 288 117 v 9 h 9 v -9 h -9 z M 288 126 v 9 h 9 v -9 h -9 z M 288 135 v 9 h 9 v -9 h -9 z M 288 153 v 9 h 9 v -9 h -9 z M 288 171 v 9 h 9 v -9 h -9 z M 288 189 v 9 h 9 v -9 h -9 z M 288 198 v 9 h 9 v -9 h -9 z M 288 261 v 9 h 9 v -9 h -9 z M 288 279 v 9 h 9 v -9 h -9 z M 297 81 v 9 h 9 v -9 h -9 z M 297 108 v 9 h 9 v -9 h -9 z M 297 117 v 9 h 9 v -9 h -9 z M 297 144 v 9 h 9 v -9 h -9 z M 297 162 v 9 h 9 v -9 h -9 z M 297 171 v 9 h 9 v -9 h -9 z M 297 189 v 9 h 9 v -9 h -9 z M 297 216 v 9 h 9 v -9 h -9 z M 297 225 v 9 h 9 v -9 h -9 z M 297 234 v 9 h 9 v -9 h -9 z M 297 252 v 9 h 9 v -9 h -9 z M 297 288 v 9 h 9 v -9 h -9 z" fill="#000000"/></svg>