<?xml version="1.0" encoding="utf-8"?><svg xmlns="http://www.w3.org/2000/svg" version="1.1" xmlns:xlink="http://www.w3.org/1999/xlink" viewBox="0 0 387 387"><rect width="387" height="387" fill="#FFFFFF"></rect><path shape-rendering="geometricPrecision" d="M 9 9 v 63 h 63 v -63 h -63 z M 18 18 v 45 h 45 v -45 h -45 z M 378 9 v 63 h -63 v -63 h 63 z M 369 18 v 45 h -45 v -45 h 45 z M 9 378 v -63 h 63 v 63 h -63 z M 18 369 v -45 h 45 v 45 h -45 z" fill-rule="evenodd" fill="#000000"/><path shape-rendering="geometricPrecision" d="M 27 27 v 27 h 27 v -27 h -27 z M 360 27 v 27 h -27 v -27 h 27 z M 27 360 v -27 h 27 v 27 h -27 z" fill="#000000"/><path shape-rendering="geometricPrecision" d="M 9 99 v 9 h 9 v -9 h -9 z M 9 126 v 9 h 9 v -9 h -9 z M 9 153 v 9 h 9 v -9 h -9 z M 9 162 v 9 h 9 v -9 h -9 z M 9 171 v 9 h 9 v -9 h -9 z M 9 180 v 9 h 9 v -9 h -9 z M 9 198 v 9 h 9 v -9 h -9 z M 9 216 v 9 h 9 v -9 h -9 z M 9 234 v 9 h 9 v -9 h -9 z M 9 261 v 9 h 9 v -9 h -9 z M 9 279 v 9 h 9 v -9 h -9 z M 9 297 v 9 h 9 v -9 h -9 z M 18 90 v 9 h 9 v -9 h -9 z M 18 99 v 9 h 9 v -9 h -9 z M 18 126 v 9 h 9 v -9 h -9 z M 18 144 v 9 h 9 v -9 h -9 z M 18 153 v 9 h 9 v -9 h -9 z M 18 162 v 9 h 9 v -9 h -9 z M 18 189 v 9 h 9 v -9 h -9 z M 18 198 v 9 h 9 v -9 h -9 z M 18 234 v 9 h 9 v -9 h -9 z M 18 243 v 9 h 9 v -9 h -9 z M 18 252 v 9 h 9 v -9 h -9 z M 18 261 v 9 h 9 v -9 h -9 z M 18 279 v 9 h 9 v -9 h -9 z M 18 297 v 9 h 9 v -9 h -9 z M 27 81 v 9 h 9 v -9 h -9 z M 27 99 v 9 h 9 v -9 h -9 z M 27 153 v 9 h 9 v -9 h -9 z M 27 162 v 9 h 9 v -9 h -9 z M 27 171 v 9 h 9 v -9 h -9 z M 27 198 v 9 h 9 v -9 h -9 z M 27 207 v 9 h 9 v -9 h -9 z M 27 234 v 9 h 9 v -9 h -9 z M 27 297 v 9 h 9 v -9 h -9 z M 36 81 v 9 h 9 v -9 h -9 z M 36 90 v 9 h 9 v -9 h -9 z M 36 99 v 9 h 9 v -9 h -9 z M 36 108 v 9 h 9 v -9 h -9 z M 36 126 v 9 h 9 v -9 h -9 z M 36 135 v 9 h 9 v -9 h -9 z M 36 144 v 9 h 9 v -9 h -9 z M 36 198 v 9 h 9 v -9 h -9 z M 36 243 v 9 h 9 v -9 h -9 z M 36 252 v 9 h 9 v -9 h -9 z M 36 279 v 9 h 9 v -9 h -9 z M 45 81 v 9 h 9 v -9 h -9 z M 45 135 v 9 h 9 v -9 h -9 z M 45 144 v 9 h 9 v -9 h -9 z M 45 153 v 9 h 9 v -9 h -9 z M 45 171 v 9 h 9 v -9 h -9 z M 45 180 v 9 h 9 v -9 h -9 z M 45 189 v 9 h 9 v -9 h -9 z M 45 207 v 9 h 9 v -9 h -9 z M 45 261 v 9 h 9 v -9 h -9 z M 45 279 v 9 h 9 v -9 h -9 z M 45 288 v 9 h 9 v -9 h -9 z M 54 81 v 9 h 9 v -9 h -9 z M 54 90 v 9 h 9 v -9 h -9 z M 54 117 v 9 h 9 v -9 h -9 z M 54 126 v 9 h 9 v -9 h -9 z M 54 135 v 9 h 9 v -9 h -9 z M 54 144 v 9 h 9 v -9 h -9 z M 54 207 v 9 h 9 v -9 h -9 z M 54 252 v 9 h 9 v -9 h -9 z M 54 297 v 9 h 9 v -9 h -9 z M 63 81 v 9 h 9 v -9 h -9 z M 63 99 v 9 h 9 v -9 h -9 z M 63 117 v 9 h 9 v -9 h -9 z M 63 135 v 9 h 9 v -9 h -9 z M 63 153 v 9 h 9 v -9 h -9 z M 63 171 v 9 h 9 v -9 h -9 z M 63 189 v 9 h 9 v -9 h -9 z M 63 207 v 9 h 9 v -9 h -9 z M 63 225 v 9 h 9 v -9 h -9 z M 63 243 v 9 h 9 v -9 h -9 z M 63 261 v 9 h 9 v -9 h -9 z M 63 279 v 9 h 9 v -9 h -9 z M 63 297 v 9 h 9 v -9 h -9 z M 72 81 v 9 h 9 v -9 h -9 z M 72 90 v 9 h 9 v -9 h -9 z M 72 99 v 9 h 9 v -9 h -9 z M 72 108 v 9 h 9 v -9 h -9 z M 72 117 v 9 h 9 v -9 h -9 z M 72 153 v 9 h 9 v -9 h -9 z M 72 189 v 9 h 9 v -9 h -9 z M 72 198 v 9 h 9 v -9 h -9 z M 72 216 v 9 h 9 v -9 h -9 z M 72 252 v 9 h 9 v -9 h -9 z M 72 261 v 9 h 9 v -9 h -9 z M 72 279 v 9 h 9 v -9 h -9 z M 72 297 v 9 h 9 v -9 h -9 z M 81 9 v 9 h 9 v -9 h -9 z M 81 27 v 9 h 9 v -9 h -9 z M 81 36 v 9 h 9 v -9 h -9 z M 81 45 v 9 h 9 v -9 h -9 z M 81 54 v 9 h 9 v -9 h -9 z M 81 63 v 9 h 9 v -9 h -9 z M 81 90 v 9 h 9 v -9 h -9 z M 81 108 v 9 h 9 v -9 h -9 z M 81 126 v 9 h 9 v -9 h -9 z M 81 135 v 9 h 9 v -9 h -9 z M 81 144 v 9 h 9 v -9 h -9 z M 81 153 v 9 h 9 v -9 h -9 z M 81 162 v 9 h 9 v -9 h -9 z M 81 189 v 9 h 9 v -9 h -9 z M 81 207 v 9 h 9 v -9 h -9 z M 81 216 v 9 h 9 v -9 h -9 z M 81 225 v 9 h 9 v -9 h -9 z M 81 234 v 9 h 9 v -9 h -9 z M 81 261 v 9 h 9 v -9 h -9 z M 81 270 v 9 h 9 v -9 h -9 z M 81 315 v 9 h 9 v -9 h -9 z M 81 324 v 9 h 9 v -9 h -9 z M 81 333 v 9 h 9 v -9 h -9 z M 81 342 v 9 h 9 v -9 h -9 z M 81 351 v 9 h 9 v -9 h -9 z M 90 9 v 9 h 9 v -9 h -9 z M 90 18 v 9 h 9 v -9 h -9 z M 90 27 v 9 h 9 v -9 h -9 z M 90 36 v 9 h 9 v -9 h -9 z M 90 81 v 9 h 9 v -9 h -9 z M 90 99 v 9 h 9 v -9 h -9 z M 90 108 v 9 h 9 v -9 h -9 z M 90 126 v 9 h 9 v -9 h -9 z M 90 144 v 9 h 9 v -9 h -9 z M 90 153 v 9 h 9 v -9 h -9 z M 90 171 v 9 h 9 v -9 h -9 z M 90 180 v 9 h 9 v -9 h -9 z M 90 189 v 9 h 9 v -9 h -9 z M 90 198 v 9 h 9 v -9 h -9 z M 90 216 v 9 h 9 v -9 h -9 z M 90 225 v 9 h 9 v -9 h -9 z M 90 243 v 9 h 9 v -9 h -9 z M 90 261 v 9 h 9 v -9 h -9 z M 90 270 v 9 h 9 v -9 h -9 z M 90 279 v 9 h 9 v -9 h -9 z M 90 288 v 9 h 9 v -9 h -9 z M 90 297 v 9 h 9 v -9 h -9 z M 90 306 v 9 h 9 v -9 h -9 z M 90 315 v 9 h 9 v -9 h -9 z M 90 333 v 9 h 9 v -9 h -9 z M 90 351 v 9 h 9 v -9 h -9 z M 90 360 v 9 h 9 v -9 h -9 z M 90 369 v 9 h 9 v -9 h -9 z M 99 9 v 9 h 9 v -9 h -9 z M 99 18 v 9 h 9 v -9 h -9 z M 99 27 v 9 h 9 v -9 h -9 z M 99 45 v 9 h 9 v -9 h -9 z M 99 63 v 9 h 9 v -9 h -9 z M 99 90 v 9 h 9 v -9 h -9 z M 99 108 v 9 h 9 v -9 h -9 z M 99 135 v 9 h 9 v -9 h -9 z M 99 144 v 9 h 9 v -9 h -9 z M 99 153 v 9 h 9 v -9 h -9 z M 99 171 v 9 h 9 v -9 h -9 z M 99 198 v 9 h 9 v -9 h -9 z M 99 252 v 9 h 9 v -9 h -9 z M 99 261 v 9 h 9 v -9 h -9 z M 99 270 v 9 h 9 v -9 h -9 z M 99 297 v 9 h 9 v -9 h -9 z M 99 306 v 9 h 9 v -9 h -9 z M 99 324 v 9 h 9 v -9 h -9 z M 99 333 v 9 h 9 v -9 h -9 z M 108 45 v 9 h 9 v -9 h -9 z M 108 81 v 9 h 9 v -9 h -9 z M 108 90 v 9 h 9 v -9 h -9 z M 108 99 v 9 h 9 v -9 h -9 z M 108 108 v 9 h 9 v -9 h -9 z M 108 117 v 9 h 9 v -9 h -9 z M 108 126 v 9 h 9 v -9 h -9 z M 108 153 v 9 h 9 v -9 h -9 z M 108 198 v 9 h 9 v -9 h -9 z M 108 216 v 9 h 9 v -9 h -9 z M 108 225 v 9 h 9 v -9 h -9 z M 108 243 v 9 h 9 v -9 h -9 z M 108 261 v 9 h 9 v -9 h -9 z M 108 288 v 9 h 9 v -9 h -9 z M 108 297 v 9 h 9 v -9 h -9 z M 108 306 v 9 h 9 v -9 h -9 z M 108 324 v 9 h 9 v -9 h -9 z M 108 333 v 9 h 9 v -9 h -9 z M 108 342 v 9 h 9 v -9 h -9 z M 108 360 v 9 h 9 v -9 h -9 z M 117 9 v 9 h 9 v -9 h -9 z M 117 27 v 9 h 9 v -9 h -9 z M 117 45 v 9 h 9 v -9 h -9 z M 117 54 v 9 h 9 v -9 h -9 z M 117 63 v 9 h 9 v -9 h -9 z M 117 72 v 9 h 9 v -9 h -9 z M 117 81 v 9 h 9 v -9 h -9 z M 117 90 v 9 h 9 v -9 h -9 z M 117 162 v 9 h 9 v -9 h -9 z M 117 180 v 9 h 9 v -9 h -9 z M 117 189 v 9 h 9 v -9 h -9 z M 117 207 v 9 h 9 v -9 h -9 z M 117 225 v 9 h 9 v -9 h -9 z M 117 234 v 9 h 9 v -9 h -9 z M 117 243 v 9 h 9 v -9 h -9 z M 117 261 v 9 h 9 v -9 h -9 z M 117 270 v 9 h 9 v -9 h -9 z M 117 279 v 9 h 9 v -9 h -9 z M 117 288 v 9 h 9 v -9 h -9 z M 117 342 v 9 h 9 v -9 h -9 z M 117 351 v 9 h 9 v -9 h -9 z M 126 9 v 9 h 9 v -9 h -9 z M 126 18 v 9 h 9 v -9 h -9 z M 126 36 v 9 h 9 v -9 h -9 z M 126 45 v 9 h 9 v -9 h -9 z M 126 54 v 9 h 9 v -9 h -9 z M 126 72 v 9 h 9 v -9 h -9 z M 126 81 v 9 h 9 v -9 h -9 z M 126 90 v 9 h 9 v -9 h -9 z M 126 99 v 9 h 9 v -9 h -9 z M 126 117 v 9 h 9 v -9 h -9 z M 126 126 v 9 h 9 v -9 h -9 z M 126 198 v 9 h 9 v -9 h -9 z M 126 252 v 9 h 9 v -9 h -9 z M 126 279 v 9 h 9 v -9 h -9 z M 126 288 v 9 h 9 v -9 h -9 z M 126 297 v 9 h 9 v -9 h -9 z M 126 306 v 9 h 9 v -9 h -9 z M 126 315 v 9 h 9 v -9 h -9 z M 126 324 v 9 h 9 v -9 h -9 z M 126 333 v 9 h 9 v -9 h -9 z M 126 342 v 9 h 9 v -9 h -9 z M 126 351 v 9 h 9 v -9 h -9 z M 126 369 v 9 h 9 v -9 h -9 z M 135 9 v 9 h 9 v -9 h -9 z M 135 27 v 9 h 9 v -9 h -9 z M 135 36 v 9 h 9 v -9 h -9 z M 135 45 v 9 h 9 v -9 h -9 z M 135 63 v 9 h 9 v -9 h -9 z M 135 72 v 9 h 9 v -9 h -9 z M 135 81 v 9 h 9 v -9 h -9 z M 135 135 v 9 h 9 v -9 h -9 z M 135 144 v 9 h 9 v -9 h -9 z M 135 189 v 9 h 9 v -9 h -9 z M 135 216 v 9 h 9 v -9 h -9 z M 135 225 v 9 h 9 v -9 h -9 z M 135 252 v 9 h 9 v -9 h -9 z M 135 261 v 9 h 9 v -9 h -9 z M 135 279 v 9 h 9 v -9 h -9 z M 135 297 v 9 h 9 v -9 h -9 z M 135 306 v 9 h 9 v -9 h -9 z M 135 324 v 9 h 9 v -9 h -9 z M 135 333 v 9 h 9 v -9 h -9 z M 135 342 v 9 h 9 v -9 h -9 z M 135 351 v 9 h 9 v -9 h -9 z M 135 360 v 9 h 9 v -9 h -9 z M 144 27 v 9 h 9 v -9 h -9 z M 144 54 v 9 h 9 v -9 h -9 z M 144 99 v 9 h 9 v -9 h -9 z M 144 108 v 9 h 9 v -9 h -9 z M 144 117 v 9 h 9 v -9 h -9 z M 144 126 v 9 h 9 v -9 h -9 z M 144 153 v 9 h 9 v -9 h -9 z M 144 198 v 9 h 9 v -9 h -9 z M 144 207 v 9 h 9 v -9 h -9 z M 144 216 v 9 h 9 v -9 h -9 z M 144 243 v 9 h 9 v -9 h -9 z M 144 252 v 9 h 9 v -9 h -9 z M 144 297 v 9 h 9 v -9 h -9 z M 144 315 v 9 h 9 v -9 h -9 z M 144 324 v 9 h 9 v -9 h -9 z M 144 333 v 9 h 9 v -9 h -9 z M 144 360 v 9 h 9 v -9 h -9 z M 144 369 v 9 h 9 v -9 h -9 z M 153 18 v 9 h 9 v -9 h -9 z M 153 36 v 9 h 9 v -9 h -9 z M 153 63 v 9 h 9 v -9 h -9 z M 153 72 v 9 h 9 v -9 h -9 z M 153 90 v 9 h 9 v -9 h -9 z M 153 135 v 9 h 9 v -9 h -9 z M 153 162 v 9 h 9 v -9 h -9 z M 153 171 v 9 h 9 v -9 h -9 z M 153 207 v 9 h 9 v -9 h -9 z M 153 216 v 9 h 9 v -9 h -9 z M 153 225 v 9 h 9 v -9 h -9 z M 153 234 v 9 h 9 v -9 h -9 z M 153 243 v 9 h 9 v -9 h -9 z M 153 252 v 9 h 9 v -9 h -9 z M 153 270 v 9 h 9 v -9 h -9 z M 153 279 v 9 h 9 v -9 h -9 z M 153 306 v 9 h 9 v -9 h -9 z M 153 324 v 9 h 9 v -9 h -9 z M 153 351 v 9 h 9 v -9 h -9 z M 153 360 v 9 h 9 v -9 h -9 z M 162 18 v 9 h 9 v -9 h -9 z M 162 27 v 9 h 9 v -9 h -9 z M 162 45 v 9 h 9 v -9 h -9 z M 162 72 v 9 h 9 v -9 h -9 z M 162 99 v 9 h 9 v -9 h -9 z M 162 108 v 9 h 9 v -9 h -9 z M 162 135 v 9 h 9 v -9 h -9 z M 162 144 v 9 h 9 v -9 h -9 z M 162 180 v 9 h 9 v -9 h -9 z M 162 189 v 9 h 9 v -9 h -9 z M 162 216 v 9 h 9 v -9 h -9 z M 162 243 v 9 h 9 v -9 h -9 z M 162 261 v 9 h 9 v -9 h -9 z M 162 270 v 9 h 9 v -9 h -9 z M 162 288 v 9 h 9 v -9 h -9 z M 162 315 v 9 h 9 v -9 h -9 z M 162 324 v 9 h 9 v -9 h -9 z M 162 333 v 9 h 9 v -9 h -9 z M 162 360 v 9 h 9 v -9 h -9 z M 162 369 v 9 h 9 v -9 h -9 z M 171 9 v 9 h 9 v -9 h -9 z M 171 18 v 9 h 9 v -9 h -9 z M 171 27 v 9 h 9 v -9 h -9 z M 171 36 v 9 h 9 v -9 h -9 z M 171 63 v 9 h 9 v -9 h -9 z M 171 99 v 9 h 9 v -9 h -9 z M 171 117 v 9 h 9 v -9 h -9 z M 171 171 v 9 h 9 v -9 h -9 z M 171 189 v 9 h 9 v -9 h -9 z M 171 207 v 9 h 9 v -9 h -9 z M 171 225 v 9 h 9 v -9 h -9 z M 171 252 v 9 h 9 v -9 h -9 z M 171 261 v 9 h 9 v -9 h -9 z M 171 270 v 9 h 9 v -9 h -9 z M 171 297 v 9 h 9 v -9 h -9 z M 171 333 v 9 h 9 v -9 h -9 z M 180 18 v 9 h 9 v -9 h -9 z M 180 27 v 9 h 9 v -9 h -9 z M 180 36 v 9 h 9 v -9 h -9 z M 180 45 v 9 h 9 v -9 h -9 z M 180 90 v 9 h 9 v -9 h -9 z M 180 108 v 9 h 9 v -9 h -9 z M 180 135 v 9 h 9 v -9 h -9 z M 180 153 v 9 h 9 v -9 h -9 z M 180 180 v 9 h 9 v -9 h -9 z M 180 189 v 9 h 9 v -9 h -9 z M 180 243 v 9 h 9 v -9 h -9 z M 180 252 v 9 h 9 v -9 h -9 z M 180 270 v 9 h 9 v -9 h -9 z M 180 279 v 9 h 9 v -9 h -9 z M 180 288 v 9 h 9 v -9 h -9 z M 180 333 v 9 h 9 v -9 h -9 z M 180 342 v 9 h 9 v -9 h -9 z M 189 45 v 9 h 9 v -9 h -9 z M 189 63 v 9 h 9 v -9 h -9 z M 189 72 v 9 h 9 v -9 h -9 z M 189 81 v 9 h 9 v -9 h -9 z M 189 90 v 9 h 9 v -9 h -9 z M 189 108 v 9 h 9 v -9 h -9 z M 189 126 v 9 h 9 v -9 h -9 z M 189 135 v 9 h 9 v -9 h -9 z M 189 144 v 9 h 9 v -9 h -9 z M 189 171 v 9 h 9 v -9 h -9 z M 189 189 v 9 h 9 v -9 h -9 z M 189 198 v 9 h 9 v -9 h -9 z M 189 207 v 9 h 9 v -9 h -9 z M 189 216 v 9 h 9 v -9 h -9 z M 189 225 v 9 h 9 v -9 h -9 z M 189 324 v 9 h 9 v -9 h -9 z M 189 351 v 9 h 9 v -9 h -9 z M 189 360 v 9 h 9 v -9 h -9 z M 189 369 v 9 h 9 v -9 h -9 z M 198 9 v 9 h 9 v -9 h -9 z M 198 45 v 9 h 9 v -9 h -9 z M 198 54 v 9 h 9 v -9 h -9 z M 198 81 v 9 h 9 v -9 h -9 z M 198 108 v 9 h 9 v -9 h -9 z M 198 126 v 9 h 9 v -9 h -9 z M 198 135 v 9 h 9 v -9 h -9 z M 198 144 v 9 h 9 v -9 h -9 z M 198 180 v 9 h 9 v -9 h -9 z M 198 189 v 9 h 9 v -9 h -9 z M 198 198 v 9 h 9 v -9 h -9 z M 198 216 v 9 h 9 v -9 h -9 z M 198 225 v 9 h 9 v -9 h -9 z M 198 243 v 9 h 9 v -9 h -9 z M 198 261 v 9 h 9 v -9 h -9 z M 198 270 v 9 h 9 v -9 h -9 z M 198 279 v 9 h 9 v -9 h -9 z M 198 288 v 9 h 9 v -9 h -9 z M 198 297 v 9 h 9 v -9 h -9 z M 198 306 v 9 h 9 v -9 h -9 z M 198 315 v 9 h 9 v -9 h -9 z M 198 333 v 9 h 9 v -9 h -9 z M 198 342 v 9 h 9 v -9 h -9 z M 198 360 v 9 h 9 v -9 h -9 z M 198 369 v 9 h 9 v -9 h -9 z M 207 9 v 9 h 9 v -9 h -9 z M 207 18 v 9 h 9 v -9 h -9 z M 207 27 v 9 h 9 v -9 h -9 z M 207 36 v 9 h 9 v -9 h -9 z M 207 54 v 9 h 9 v -9 h -9 z M 207 63 v 9 h 9 v -9 h -9 z M 207 72 v 9 h 9 v -9 h -9 z M 207 90 v 9 h 9 v -9 h -9 z M 207 99 v 9 h 9 v -9 h -9 z M 207 126 v 9 h 9 v -9 h -9 z M 207 144 v 9 h 9 v -9 h -9 z M 207 162 v 9 h 9 v -9 h -9 z M 207 171 v 9 h 9 v -9 h -9 z M 207 207 v 9 h 9 v -9 h -9 z M 207 252 v 9 h 9 v -9 h -9 z M 207 279 v 9 h 9 v -9 h -9 z M 207 297 v 9 h 9 v -9 h -9 z M 207 342 v 9 h 9 v -9 h -9 z M 216 9 v 9 h 9 v -9 h -9 z M 216 18 v 9 h 9 v -9 h -9 z M 216 54 v 9 h 9 v -9 h -9 z M 216 90 v 9 h 9 v -9 h -9 z M 216 108 v 9 h 9 v -9 h -9 z M 216 117 v 9 h 9 v -9 h -9 z M 216 135 v 9 h 9 v -9 h -9 z M 216 171 v 9 h 9 v -9 h -9 z M 216 180 v 9 h 9 v -9 h -9 z M 216 189 v 9 h 9 v -9 h -9 z M 216 198 v 9 h 9 v -9 h -9 z M 216 207 v 9 h 9 v -9 h -9 z M 216 225 v 9 h 9 v -9 h -9 z M 216 252 v 9 h 9 v -9 h -9 z M 216 333 v 9 h 9 v -9 h -9 z M 225 9 v 9 h 9 v -9 h -9 z M 225 27 v 9 h 9 v -9 h -9 z M 225 54 v 9 h 9 v -9 h -9 z M 225 63 v 9 h 9 v -9 h -9 z M 225 81 v 9 h 9 v -9 h -9 z M 225 90 v 9 h 9 v -9 h -9 z M 225 99 v 9 h 9 v -9 h -9 z M 225 126 v 9 h 9 v -9 h -9 z M 225 144 v 9 h 9 v -9 h -9 z M 225 153 v 9 h 9 v -9 h -9 z M 225 162 v 9 h 9 v -9 h -9 z M 225 171 v 9 h 9 v -9 h -9 z M 225 180 v 9 h 9 v -9 h -9 z M 225 207 v 9 h 9 v -9 h -9 z M 225 234 v 9 h 9 v -9 h -9 z M 225 252 v 9 h 9 v -9 h -9 z M 225 270 v 9 h 9 v -9 h -9 z M 225 288 v 9 h 9 v -9 h -9 z M 225 324 v 9 h 9 v -9 h -9 z M 225 351 v 9 h 9 v -9 h -9 z M 225 360 v 9 h 9 v -9 h -9 z M 225 369 v 9 h 9 v -9 h -9 z M 234 9 v 9 h 9 v -9 h -9 z M 234 54 v 9 h 9 v -9 h -9 z M 234 72 v 9 h 9 v -9 h -9 z M 234 90 v 9 h 9 v -9 h -9 z M 234 99 v 9 h 9 v -9 h -9 z M 234 126 v 9 h 9 v -9 h -9 z M 234 135 v 9 h 9 v -9 h -9 z M 234 144 v 9 h 9 v -9 h -9 z M 234 171 v 9 h 9 v -9 h -9 z M 234 180 v 9 h 9 v -9 h -9 z M 234 189 v 9 h 9 v -9 h -9 z M 234 216 v 9 h 9 v -9 h -9 z M 234 225 v 9 h 9 v -9 h -9 z M 234 234 v 9 h 9 v -9 h -9 z M 234 243 v 9 h 9 v -9 h -9 z M 234 261 v 9 h 9 v -9 h -9 z M 234 279 v 9 h 9 v -9 h -9 z M 234 288 v 9 h 9 v -9 h -9 z M 234 306 v 9 h 9 v -9 h -9 z M 234 324 v 9 h 9 v -9 h -9 z M 234 333 v 9 h 9 v -9 h -9 z M 234 342 v 9 h 9 v -9 h -9 z M 234 360 v 9 h 9 v -9 h -9 z M 234 369 v 9 h 9 v -9 h -9 z M 243 9 v 9 h 9 v -9 h -9 z M 243 18 v 9 h 9 v -9 h -9 z M 243 27 v 9 h 9 v -9 h -9 z M 243 54 v 9 h 9 v -9 h -9 z M 243 63 v 9 h 9 v -9 h -9 z M 243 72 v 9 h 9 v -9 h -9 z M 243 81 v 9 h 9 v -9 h -9 z M 243 90 v 9 h 9 v -9 h -9 z M 243 99 v 9 h 9 v -9 h -9 z M 243 108 v 9 h 9 v -9 h -9 z M 243 117 v 9 h 9 v -9 h -9 z M 243 135 v 9 h 9 v -9 h -9 z M 243 144 v 9 h 9 v -9 h -9 z M 243 153 v 9 h 9 v -9 h -9 z M 243 162 v 9 h 9 v -9 h -9 z M 243 171 v 9 h 9 v -9 h -9 z M 243 198 v 9 h 9 v -9 h -9 z M 243 207 v 9 h 9 v -9 h -9 z M 243 225 v 9 h 9 v -9 h -9 z M 243 234 v 9 h 9 v -9 h -9 z M 243 243 v 9 h 9 v -9 h -9 z M 243 252 v 9 h 9 v -9 h -9 z M 243 261 v 9 h 9 v -9 h -9 z M 243 270 v 9 h 9 v -9 h -9 z M 243 279 v 9 h 9 v -9 h -9 z M 243 297 v 9 h 9 v -9 h -9 z M 243 306 v 9 h 9 v -9 h -9 z M 243 324 v 9 h 9 v -9 h -9 z M 252 9 v 9 h 9 v -9 h -9 z M 252 27 v 9 h 9 v -9 h -9 z M 252 36 v 9 h 9 v -9 h -9 z M 252 72 v 9 h 9 v -9 h -9 z M 252 90 v 9 h 9 v -9 h -9 z M 252 117 v 9 h 9 v -9 h -9 z M 252 126 v 9 h 9 v -9 h -9 z M 252 153 v 9 h 9 v -9 h -9 z M 252 189 v 9 h 9 v -9 h -9 z M 252 198 v 9 h 9 v -9 h -9 z M 252 216 v 9 h 9 v -9 h -9 z M 252 225 v 9 h 9 v -9 h -9 z M 252 261 v 9 h 9 v -9 h -9 z M 252 288 v 9 h 9 v -9 h -9 z M 252 297 v 9 h 9 v -9 h -9 z M 252 333 v 9 h 9 v -9 h -9 z M 252 342 v 9 h 9 v -9 h -9 z M 252 360 v 9 h 9 v -9 h -9 z M 261 27 v 9 h 9 v -9 h -9 z M 261 36 v 9 h 9 v -9 h -9 z M 261 63 v 9 h 9 v -9 h -9 z M 261 72 v 9 h 9 v -9 h -9 z M 261 108 v 9 h 9 v -9 h -9 z M 261 135 v 9 h 9 v -9 h -9 z M 261 144 v 9 h 9 v -9 h -9 z M 261 162 v 9 h 9 v -9 h -9 z M 261 171 v 9 h 9 v -9 h -9 z M 261 207 v 9 h 9 v -9 h -9 z M 261 234 v 9 h 9 v -9 h -9 z M 261 243 v 9 h 9 v -9 h -9 z M 261 252 v 9 h 9 v -9 h -9 z M 261 270 v 9 h 9 v -9 h -9 z M 261 279 v 9 h 9 v -9 h -9 z M 261 288 v 9 h 9 v -9 h -9 z M 261 297 v 9 h 9 v -9 h -9 z M 261 342 v 9 h 9 v -9 h -9 z M 261 351 v 9 h 9 v -9 h -9 z M 261 360 v 9 h 9 v -9 h -9 z M 270 9 v 9 h 9 v -9 h -9 z M 270 45 v 9 h 9 v -9 h -9 z M 270 54 v 9 h 9 v -9 h -9 z M 270 72 v 9 h 9 v -9 h -9 z M 270 90 v 9 h 9 v -9 h -9 z M 270 99 v 9 h 9 v -9 h -9 z M 270 117 v 9 h 9 v -9 h -9 z M 270 135 v 9 h 9 v -9 h -9 z M 270 171 v 9 h 9 v -9 h -9 z M 270 189 v 9 h 9 v -9 h -9 z M 270 225 v 9 h 9 v -9 h -9 z M 270 243 v 9 h 9 v -9 h -9 z M 270 252 v 9 h 9 v -9 h -9 z M 270 261 v 9 h 9 v -9 h -9 z M 270 279 v 9 h 9 v -9 h -9 z M 270 288 v 9 h 9 v -9 h -9 z M 270 297 v 9 h 9 v -9 h -9 z M 270 306 v 9 h 9 v -9 h -9 z M 270 315 v 9 h 9 v -9 h -9 z M 270 324 v 9 h 9 v -9 h -9 z M 270 333 v 9 h 9 v -9 h -9 z M 270 342 v 9 h 9 v -9 h -9 z M 270 351 v 9 h 9 v -9 h -9 z M 270 369 v 9 h 9 v -9 h -9 z M 279 9 v 9 h 9 v -9 h -9 z M 279 27 v 9 h 9 v -9 h -9 z M 279 45 v 9 h 9 v -9 h -9 z M 279 63 v 9 h 9 v -9 h -9 z M 279 72 v 9 h 9 v -9 h -9 z M 279 81 v 9 h 9 v -9 h -9 z M 279 90 v 9 h 9 v -9 h -9 z M 279 99 v 9 h 9 v -9 h -9 z M 279 108 v 9 h 9 v -9 h -9 z M 279 135 v 9 h 9 v -9 h -9 z M 279 162 v 9 h 9 v -9 h -9 z M 279 171 v 9 h 9 v -9 h -9 z M 279 180 v 9 h 9 v -9 h -9 z M 279 198 v 9 h 9 v -9 h -9 z M 279 234 v 9 h 9 v -9 h -9 z M 279 279 v 9 h 9 v -9 h -9 z M 279 297 v 9 h 9 v -9 h -9 z M 279 306 v 9 h 9 v -9 h -9 z M 279 315 v 9 h 9 v -9 h -9 z M 279 324 v 9 h 9 v -9 h -9 z M 279 342 v 9 h 9 v -9 h -9 z M 279 351 v 9 h 9 v -9 h -9 z M 279 360 v 9 h 9 v -9 h -9 z M 288 9 v 9 h 9 v -9 h -9 z M 288 27 v 9 h 9 v -9 h -9 z M 288 36 v 9 h 9 v -9 h -9 z M 288 45 v 9 h 9 v -9 h -9 z M 288 54 v 9 h 9 v -9 h -9 z M 288 72 v 9 h 9 v -9 h -9 z M 288 81 v 9 h 9 v -9 h -9 z M 288 90 v 9 h 9 v -9 h -9 z M 288 99 v 9 h 9 v -9 h -9 z M 288 126 v 9 h 9 v -9 h -9 z M 288 144 v 9 h 9 v -9 h -9 z M 288 153 v 9 h 9 v -9 h -9 z M 288 171 v 9 h 9 v -9 h -9 z M 288 180 v 9 h 9 v -9 h -9 z M 288 189 v 9 h 9 v -9 h -9 z M 288 198 v 9 h 9 v -9 h -9 z M 288 225 v 9 h 9 v -9 h -9 z M 288 243 v 9 h 9 v -9 h -9 z M 288 261 v 9 h 9 v -9 h -9 z M 288 288 v 9 h 9 v -9 h -9 z M 288 297 v 9 h 9 v -9 h -9 z M 288 306 v 9 h 9 v -9 h -9 z M 288 315 v 9 h 9 v -9 h -9 z M 288 333 v 9 h 9 v -9 h -9 z M 288 342 v 9 h 9 v -9 h -9 z M 297 9 v 9 h 9 v -9 h -9 z M 297 27 v 9 h 9 v -9 h -9 z M 297 36 v 9 h 9 v -9 h -9 z M 297 63 v 9 h 9 v -9 h -9 z M 297 72 v 9 h 9 v -9 h -9 z M 297 90 v 9 h 9 v -9 h -9 z M 297 99 v 9 h 9 v -9 h -9 z M 297 108 v 9 h 9 v -9 h -9 z M 297 117 v 9 h 9 v -9 h -9 z M 297 126 v 9 h 9 v -9 h -9 z M 297 135 v 9 h 9 v -9 h -9 z M 297 144 v 9 h 9 v -9 h -9 z M 297 162 v 9 h 9 v -9 h -9 z M 297 171 v 9 h 9 v -9 h -9 z M 297 180 v 9 h 9 v -9 h -9 z M 297 207 v 9 h 9 v -9 h -9 z M 297 225 v 9 h 9 v -9 h -9 z M 297 234 v 9 h 9 v -9 h -9 z M 297 270 v 9 h 9 v -9 h -9 z M 297 297 v 9 h 9 v -9 h -9 z M 297 306 v 9 h 9 v -9 h -9 z M 297 315 v 9 h 9 v -9 h -9 z M 297 324 v 9 h 9 v -9 h -9 z M 297 333 v 9 h 9 v -9 h -9 z M 297 342 v 9 h 9 v -9 h -9 z M 306 81 v 9 h 9 v -9 h -9 z M 306 90 v 9 h 9 v -9 h -9 z M 306 99 v 9 h 9 v -9 h -9 z M 306 108 v 9 h 9 v -9 h -9 z M 306 117 v 9 h 9 v -9 h -9 z M 306 126 v 9 h 9 v -9 h -9 z M 306 135 v 9 h 9 v -9 h -9 z M 306 144 v 9 h 9 v -9 h -9 z M 306 162 v 9 h 9 v -9 h -9 z M 306 180 v 9 h 9 v -9 h -9 z M 306 189 v 9 h 9 v -9 h -9 z M 306 198 v 9 h 9 v -9 h -9 z M 306 207 v 9 h 9 v -9 h -9 z M 306 234 v 9 h 9 v -9 h -9 z M 306 261 v 9 h 9 v -9 h -9 z M 306 288 v 9 h 9 v -9 h -9 z M 306 297 v 9 h 9 v -9 h -9 z M 306 333 v 9 h 9 v -9 h -9 z M 306 360 v 9 h 9 v -9 h -9 z M 306 369 v 9 h 9 v -9 h -9 z M 315 90 v 9 h 9 v -9 h -9 z M 315 99 v 9 h 9 v -9 h -9 z M 315 108 v 9 h 9 v -9 h -9 z M 315 117 v 9 h 9 v -9 h -9 z M 315 144 v 9 h 9 v -9 h -9 z M 315 162 v 9 h 9 v -9 h -9 z M 315 189 v 9 h 9 v -9 h -9 z M 315 198 v 9 h 9 v -9 h -9 z M 315 234 v 9 h 9 v -9 h -9 z M 315 243 v 9 h 9 v -9 h -9 z M 315 252 v 9 h 9 v -9 h -9 z M 315 279 v 9 h 9 v -9 h -9 z M 315 288 v 9 h 9 v -9 h -9 z M 315 297 v 9 h 9 v -9 h -9 z M 315 315 v 9 h 9 v -9 h -9 z M 315 333 v 9 h 9 v -9 h -9 z M 315 342 v 9 h 9 v -9 h -9 z M 324 81 v 9 h 9 v -9 h -9 z M 324 90 v 9 h 9 v -9 h -9 z M 324 99 v 9 h 9 v -9 h -9 z M 324 117 v 9 h 9 v -9 h -9 z M 324 135 v 9 h 9 v -9 h -9 z M 324 144 v 9 h 9 v -9 h -9 z M 324 162 v 9 h 9 v -9 h -9 z M 324 171 v 9 h 9 v -9 h -9 z M 324 189 v 9 h 9 v -9 h -9 z M 324 198 v 9 h 9 v -9 h -9 z M 324 207 v 9 h 9 v -9 h -9 z M 324 216 v 9 h 9 v -9 h -9 z M 324 234 v 9 h 9 v -9 h -9 z M 324 252 v 9 h 9 v -9 h -9 z M 324 261 v 9 h 9 v -9 h -9 z M 324 297 v 9 h 9 v -9 h -9 z M 324 333 v 9 h 9 v -9 h -9 z M 324 342 v 9 h 9 v -9 h -9 z M 324 360 v 9 h 9 v -9 h -9 z M 324 369 v 9 h 9 v -9 h -9 z M 333 81 v 9 h 9 v -9 h -9 z M 333 99 v 9 h 9 v -9 h -9 z M 333 108 v 9 h 9 v -9 h -9 z M 333 153 v 9 h 9 v -9 h -9 z M 333 198 v 9 h 9 v -9 h -9 z M 333 216 v 9 h 9 v -9 h -9 z M 333 225 v 9 h 9 v -9 h -9 z M 333 243 v 9 h 9 v -9 h -9 z M 333 252 v 9 h 9 v -9 h -9 z M 333 261 v 9 h 9 v -9 h -9 z M 333 279 v 9 h 9 v -9 h -9 z M 333 297 v 9 h 9 v -9 h -9 z M 333 306 v 9 h 9 v -9 h -9 z M 333 315 v 9 h 9 v -9 h -9 z M 333 324 v 9 h 9 v -9 h -9 z M 333 333 v 9 h 9 v -9 h -9 z M 333 351 v 9 h 9 v -9 h -9 z M 333 369 v 9 h 9 v -9 h -9 z M 342 81 v 9 h 9 v -9 h -9 z M 342 90 v 9 h 9 v -9 h -9 z M 342 99 v 9 h 9 v -9 h -9 z M 342 108 v 9 h 9 v -9 h -9 z M 342 135 v 9 h 9 v -9 h -9 z M 342 144 v 9 h 9 v -9 h -9 z M 342 171 v 9 h 9 v -9 h -9 z M 342 180 v 9 h 9 v -9 h -9 z M 342 189 v 9 h 9 v -9 h -9 z M 342 207 v 9 h 9 v -9 h -9 z M 342 216 v 9 h 9 v -9 h -9 z M 342 261 v 9 h 9 v -9 h -9 z M 342 288 v 9 h 9 v -9 h -9 z M 342 297 v 9 h 9 v -9 h -9 z M 342 306 v 9 h 9 v -9 h -9 z M 342 324 v 9 h 9 v -9 h -9 z M 342 342 v 9 h 9 v -9 h -9 z M 351 81 v 9 h 9 v -9 h -9 z M 351 90 v 9 h 9 v -9 h -9 z M 351 99 v 9 h 9 v -9 h -9 z M 351 117 v 9 h 9 v -9 h -9 z M 351 135 v 9 h 9 v -9 h -9 z M 351 144 v 9 h 9 v -9 h -9 z M 351 153 v 9 h 9 v -9 h -9 z M 351 162 v 9 h 9 v -9 h -9 z M 351 189 v 9 h 9 v -9 h -9 z M 351 198 v 9 h 9 v -9 h -9 z M 351 225 v 9 h 9 v -9 h -9 z M 351 252 v 9 h 9 v -9 h -9 z M 351 261 v 9 h 9 v -9 h -9 z M 351 306 v 9 h 9 v -9 h -9 z M 351 315 v 9 h 9 v -9 h -9 z M 351 324 v 9 h 9 v -9 h -9 z M 351 333 v 9 h 9 v -9 h -9 z M 351 342 v 9 h 9 v -9 h -9 z M 360 108 v 9 h 9 v -9 h -9 z M 360 126 v 9 h 9 v -9 h -9 z M 360 162 v 9 h 9 v -9 h -9 z M 360 171 v 9 h 9 v -9 h -9 z M 360 198 v 9 h 9 v -9 h -9 z M 360 207 v 9 h 9 v -9 h -9 z M 360 243 v 9 h 9 v -9 h -9 z M 360 261 v 9 h 9 v -9 h -9 z M 360 297 v 9 h 9 v -9 h -9 z M 360 333 v 9 h 9 v -9 h -9 z M 360 360 v 9 h 9 v -9 h -9 z M 369 81 v 9 h 9 v -9 h -9 z M 369 117 v 9 h 9 v -9 h -9 z M 369 126 v 9 h 9 v -9 h -9 z M 369 153 v 9 h 9 v -9 h -9 z M 369 189 v 9 h 9 v -9 h -9 z M 369 207 v 9 h 9 v -9 h -9 z M 369 234 v 9 h 9 v -9 h -9 z M 369 270 v 9 h 9 v -9 h -9 z M 369 288 v 9 h 9 v -9 h -9 z M 369 306 v 9 h 9 v -9 h -9 z M 369 324 v 9 h 9 v -9 h -9 z M 369 333 v 9 h 9 v -9 h -9 z M 369 342 v 9 h 9 v -9 h -9 z M 369 351 v 9 h 9 v -9 h -9 z" fill="#000000"/></svg>