<?xml version="1.0" encoding="utf-8"?><svg xmlns="http://www.w3.org/2000/svg" version="1.1" xmlns:xlink="http://www.w3.org/1999/xlink" viewBox="0 0 387 387"><rect width="387" height="387" fill="#FFFFFF"></rect><path shape-rendering="geometricPrecision" d="M 9 9 v 63 h 63 v -63 h -63 z M 18 18 v 45 h 45 v -45 h -45 z M 378 9 v 63 h -63 v -63 h 63 z M 369 18 v 45 h -45 v -45 h 45 z M 9 378 v -63 h 63 v 63 h -63 z M 18 369 v -45 h 45 v 45 h -45 z" fill-rule="evenodd" fill="#000000"/><path shape-rendering="geometricPrecision" d="M 27 27 v 27 h 27 v -27 h -27 z M 360 27 v 27 h -27 v -27 h 27 z M 27 360 v -27 h 27 v 27 h -27 z" fill="#000000"/><path shape-rendering="geometricPrecision" d="M 9 99 v 9 h 9 v -9 h -9 z M 9 117 v 9 h 9 v -9 h -9 z M 9 135 v 9 h 9 v -9 h -9 z M 9 171 v 9 h 9 v -9 h -9 z M 9 180 v 9 h 9 v -9 h -9 z M 9 189 v 9 h 9 v -9 h -9 z M 9 207 v 9 h 9 v -9 h -9 z M 9 216 v 9 h 9 v -9 h -9 z M 9 225 v 9 h 9 v -9 h -9 z M 9 261 v 9 h 9 v -9 h -9 z M 9 270 v 9 h 9 v -9 h -9 z M 9 279 v 9 h 9 v -9 h -9 z M 9 288 v 9 h 9 v -9 h -9 z M 18 90 v 9 h 9 v -9 h -9 z M 18 126 v 9 h 9 v -9 h -9 z M 18 153 v 9 h 9 v -9 h -9 z M 18 171 v 9 h 9 v -9 h -9 z M 18 207 v 9 h 9 v -9 h -9 z M 18 225 v 9 h 9 v -9 h -9 z M 18 252 v 9 h 9 v -9 h -9 z M 18 261 v 9 h 9 v -9 h -9 z M 18 270 v 9 h 9 v -9 h -9 z M 18 297 v 9 h 9 v -9 h -9 z M 27 81 v 9 h 9 v -9 h -9 z M 27 90 v 9 h 9 v -9 h -9 z M 27 99 v 9 h 9 v -9 h -9 z M 27 144 v 9 h 9 v -9 h -9 z M 27 153 v 9 h 9 v -9 h -9 z M 27 216 v 9 h 9 v -9 h -9 z M 27 225 v 9 h 9 v -9 h -9 z M 27 243 v 9 h 9 v -9 h -9 z M 27 252 v 9 h 9 v -9 h -9 z M 27 288 v 9 h 9 v -9 h -9 z M 36 81 v 9 h 9 v -9 h -9 z M 36 99 v 9 h 9 v -9 h -9 z M 36 117 v 9 h 9 v -9 h -9 z M 36 144 v 9 h 9 v -9 h -9 z M 36 171 v 9 h 9 v -9 h -9 z M 36 198 v 9 h 9 v -9 h -9 z M 36 207 v 9 h 9 v -9 h -9 z M 36 225 v 9 h 9 v -9 h -9 z M 45 81 v 9 h 9 v -9 h -9 z M 45 90 v 9 h 9 v -9 h -9 z M 45 126 v 9 h 9 v -9 h -9 z M 45 153 v 9 h 9 v -9 h -9 z M 45 180 v 9 h 9 v -9 h -9 z M 45 189 v 9 h 9 v -9 h -9 z M 45 261 v 9 h 9 v -9 h -9 z M 45 279 v 9 h 9 v -9 h -9 z M 45 288 v 9 h 9 v -9 h -9 z M 54 81 v 9 h 9 v -9 h -9 z M 54 90 v 9 h 9 v -9 h -9 z M 54 99 v 9 h 9 v -9 h -9 z M 54 117 v 9 h 9 v -9 h -9 z M 54 144 v 9 h 9 v -9 h -9 z M 54 153 v 9 h 9 v -9 h -9 z M 54 207 v 9 h 9 v -9 h -9 z M 54 252 v 9 h 9 v -9 h -9 z M 54 297 v 9 h 9 v -9 h -9 z M 63 81 v 9 h 9 v -9 h -9 z M 63 99 v 9 h 9 v -9 h -9 z M 63 117 v 9 h 9 v -9 h -9 z M 63 135 v 9 h 9 v -9 h -9 z M 63 153 v 9 h 9 v -9 h -9 z M 63 171 v 9 h 9 v -9 h -9 z M 63 189 v 9 h 9 v -9 h -9 z M 63 207 v 9 h 9 v -9 h -9 z M 63 225 v 9 h 9 v -9 h -9 z M 63 243 v 9 h 9 v -9 h -9 z M 63 261 v 9 h 9 v -9 h -9 z M 63 279 v 9 h 9 v -9 h -9 z M 63 297 v 9 h 9 v -9 h -9 z M 72 81 v 9 h 9 v -9 h -9 z M 72 90 v 9 h 9 v -9 h -9 z M 72 99 v 9 h 9 v -9 h -9 z M 72 117 v 9 h 9 v -9 h -9 z M 72 126 v 9 h 9 v -9 h -9 z M 72 180 v 9 h 9 v -9 h -9 z M 72 198 v 9 h 9 v -9 h -9 z M 72 216 v 9 h 9 v -9 h -9 z M 72 252 v 9 h 9 v -9 h -9 z M 72 261 v 9 h 9 v -9 h -9 z M 72 279 v 9 h 9 v -9 h -9 z M 72 297 v 9 h 9 v -9 h -9 z M 81 9 v 9 h 9 v -9 h -9 z M 81 27 v 9 h 9 v -9 h -9 z M 81 36 v 9 h 9 v -9 h -9 z M 81 45 v 9 h 9 v -9 h -9 z M 81 54 v 9 h 9 v -9 h -9 z M 81 63 v 9 h 9 v -9 h -9 z M 81 99 v 9 h 9 v -9 h -9 z M 81 126 v 9 h 9 v -9 h -9 z M 81 144 v 9 h 9 v -9 h -9 z M 81 153 v 9 h 9 v -9 h -9 z M 81 162 v 9 h 9 v -9 h -9 z M 81 189 v 9 h 9 v -9 h -9 z M 81 207 v 9 h 9 v -9 h -9 z M 81 216 v 9 h 9 v -9 h -9 z M 81 225 v 9 h 9 v -9 h -9 z M 81 234 v 9 h 9 v -9 h -9 z M 81 261 v 9 h 9 v -9 h -9 z M 81 270 v 9 h 9 v -9 h -9 z M 81 315 v 9 h 9 v -9 h -9 z M 81 324 v 9 h 9 v -9 h -9 z M 81 333 v 9 h 9 v -9 h -9 z M 81 342 v 9 h 9 v -9 h -9 z M 81 351 v 9 h 9 v -9 h -9 z M 90 9 v 9 h 9 v -9 h -9 z M 90 18 v 9 h 9 v -9 h -9 z M 90 27 v 9 h 9 v -9 h -9 z M 90 36 v 9 h 9 v -9 h -9 z M 90 54 v 9 h 9 v -9 h -9 z M 90 72 v 9 h 9 v -9 h -9 z M 90 81 v 9 h 9 v -9 h -9 z M 90 90 v 9 h 9 v -9 h -9 z M 90 99 v 9 h 9 v -9 h -9 z M 90 135 v 9 h 9 v -9 h -9 z M 90 144 v 9 h 9 v -9 h -9 z M 90 153 v 9 h 9 v -9 h -9 z M 90 171 v 9 h 9 v -9 h -9 z M 90 180 v 9 h 9 v -9 h -9 z M 90 189 v 9 h 9 v -9 h -9 z M 90 216 v 9 h 9 v -9 h -9 z M 90 225 v 9 h 9 v -9 h -9 z M 90 243 v 9 h 9 v -9 h -9 z M 90 261 v 9 h 9 v -9 h -9 z M 90 270 v 9 h 9 v -9 h -9 z M 90 279 v 9 h 9 v -9 h -9 z M 90 288 v 9 h 9 v -9 h -9 z M 90 297 v 9 h 9 v -9 h -9 z M 90 306 v 9 h 9 v -9 h -9 z M 90 315 v 9 h 9 v -9 h -9 z M 90 324 v 9 h 9 v -9 h -9 z M 90 333 v 9 h 9 v -9 h -9 z M 90 351 v 9 h 9 v -9 h -9 z M 90 360 v 9 h 9 v -9 h -9 z M 90 369 v 9 h 9 v -9 h -9 z M 99 18 v 9 h 9 v -9 h -9 z M 99 27 v 9 h 9 v -9 h -9 z M 99 36 v 9 h 9 v -9 h -9 z M 99 63 v 9 h 9 v -9 h -9 z M 99 81 v 9 h 9 v -9 h -9 z M 99 90 v 9 h 9 v -9 h -9 z M 99 126 v 9 h 9 v -9 h -9 z M 99 135 v 9 h 9 v -9 h -9 z M 99 153 v 9 h 9 v -9 h -9 z M 99 171 v 9 h 9 v -9 h -9 z M 99 198 v 9 h 9 v -9 h -9 z M 99 252 v 9 h 9 v -9 h -9 z M 99 261 v 9 h 9 v -9 h -9 z M 99 270 v 9 h 9 v -9 h -9 z M 99 297 v 9 h 9 v -9 h -9 z M 99 306 v 9 h 9 v -9 h -9 z M 99 324 v 9 h 9 v -9 h -9 z M 108 9 v 9 h 9 v -9 h -9 z M 108 36 v 9 h 9 v -9 h -9 z M 108 54 v 9 h 9 v -9 h -9 z M 108 81 v 9 h 9 v -9 h -9 z M 108 90 v 9 h 9 v -9 h -9 z M 108 99 v 9 h 9 v -9 h -9 z M 108 135 v 9 h 9 v -9 h -9 z M 108 198 v 9 h 9 v -9 h -9 z M 108 216 v 9 h 9 v -9 h -9 z M 108 225 v 9 h 9 v -9 h -9 z M 108 243 v 9 h 9 v -9 h -9 z M 108 261 v 9 h 9 v -9 h -9 z M 108 288 v 9 h 9 v -9 h -9 z M 108 297 v 9 h 9 v -9 h -9 z M 108 324 v 9 h 9 v -9 h -9 z M 108 342 v 9 h 9 v -9 h -9 z M 117 36 v 9 h 9 v -9 h -9 z M 117 45 v 9 h 9 v -9 h -9 z M 117 63 v 9 h 9 v -9 h -9 z M 117 72 v 9 h 9 v -9 h -9 z M 117 81 v 9 h 9 v -9 h -9 z M 117 99 v 9 h 9 v -9 h -9 z M 117 108 v 9 h 9 v -9 h -9 z M 117 117 v 9 h 9 v -9 h -9 z M 117 126 v 9 h 9 v -9 h -9 z M 117 153 v 9 h 9 v -9 h -9 z M 117 162 v 9 h 9 v -9 h -9 z M 117 180 v 9 h 9 v -9 h -9 z M 117 207 v 9 h 9 v -9 h -9 z M 117 234 v 9 h 9 v -9 h -9 z M 117 243 v 9 h 9 v -9 h -9 z M 117 270 v 9 h 9 v -9 h -9 z M 117 279 v 9 h 9 v -9 h -9 z M 117 288 v 9 h 9 v -9 h -9 z M 117 342 v 9 h 9 v -9 h -9 z M 117 351 v 9 h 9 v -9 h -9 z M 117 360 v 9 h 9 v -9 h -9 z M 117 369 v 9 h 9 v -9 h -9 z M 126 18 v 9 h 9 v -9 h -9 z M 126 27 v 9 h 9 v -9 h -9 z M 126 45 v 9 h 9 v -9 h -9 z M 126 90 v 9 h 9 v -9 h -9 z M 126 108 v 9 h 9 v -9 h -9 z M 126 135 v 9 h 9 v -9 h -9 z M 126 162 v 9 h 9 v -9 h -9 z M 126 189 v 9 h 9 v -9 h -9 z M 126 198 v 9 h 9 v -9 h -9 z M 126 225 v 9 h 9 v -9 h -9 z M 126 261 v 9 h 9 v -9 h -9 z M 126 279 v 9 h 9 v -9 h -9 z M 126 288 v 9 h 9 v -9 h -9 z M 126 306 v 9 h 9 v -9 h -9 z M 126 315 v 9 h 9 v -9 h -9 z M 126 324 v 9 h 9 v -9 h -9 z M 126 333 v 9 h 9 v -9 h -9 z M 126 342 v 9 h 9 v -9 h -9 z M 126 351 v 9 h 9 v -9 h -9 z M 126 369 v 9 h 9 v -9 h -9 z M 135 9 v 9 h 9 v -9 h -9 z M 135 36 v 9 h 9 v -9 h -9 z M 135 54 v 9 h 9 v -9 h -9 z M 135 63 v 9 h 9 v -9 h -9 z M 135 72 v 9 h 9 v -9 h -9 z M 135 81 v 9 h 9 v -9 h -9 z M 135 90 v 9 h 9 v -9 h -9 z M 135 108 v 9 h 9 v -9 h -9 z M 135 153 v 9 h 9 v -9 h -9 z M 135 180 v 9 h 9 v -9 h -9 z M 135 198 v 9 h 9 v -9 h -9 z M 135 234 v 9 h 9 v -9 h -9 z M 135 252 v 9 h 9 v -9 h -9 z M 135 297 v 9 h 9 v -9 h -9 z M 135 306 v 9 h 9 v -9 h -9 z M 135 324 v 9 h 9 v -9 h -9 z M 135 333 v 9 h 9 v -9 h -9 z M 135 342 v 9 h 9 v -9 h -9 z M 135 351 v 9 h 9 v -9 h -9 z M 135 360 v 9 h 9 v -9 h -9 z M 144 9 v 9 h 9 v -9 h -9 z M 144 27 v 9 h 9 v -9 h -9 z M 144 36 v 9 h 9 v -9 h -9 z M 144 45 v 9 h 9 v -9 h -9 z M 144 54 v 9 h 9 v -9 h -9 z M 144 90 v 9 h 9 v -9 h -9 z M 144 99 v 9 h 9 v -9 h -9 z M 144 108 v 9 h 9 v -9 h -9 z M 144 144 v 9 h 9 v -9 h -9 z M 144 153 v 9 h 9 v -9 h -9 z M 144 180 v 9 h 9 v -9 h -9 z M 144 189 v 9 h 9 v -9 h -9 z M 144 198 v 9 h 9 v -9 h -9 z M 144 225 v 9 h 9 v -9 h -9 z M 144 243 v 9 h 9 v -9 h -9 z M 144 252 v 9 h 9 v -9 h -9 z M 144 261 v 9 h 9 v -9 h -9 z M 144 288 v 9 h 9 v -9 h -9 z M 144 315 v 9 h 9 v -9 h -9 z M 144 324 v 9 h 9 v -9 h -9 z M 144 333 v 9 h 9 v -9 h -9 z M 144 360 v 9 h 9 v -9 h -9 z M 144 369 v 9 h 9 v -9 h -9 z M 153 45 v 9 h 9 v -9 h -9 z M 153 54 v 9 h 9 v -9 h -9 z M 153 63 v 9 h 9 v -9 h -9 z M 153 72 v 9 h 9 v -9 h -9 z M 153 81 v 9 h 9 v -9 h -9 z M 153 90 v 9 h 9 v -9 h -9 z M 153 99 v 9 h 9 v -9 h -9 z M 153 117 v 9 h 9 v -9 h -9 z M 153 153 v 9 h 9 v -9 h -9 z M 153 162 v 9 h 9 v -9 h -9 z M 153 180 v 9 h 9 v -9 h -9 z M 153 189 v 9 h 9 v -9 h -9 z M 153 207 v 9 h 9 v -9 h -9 z M 153 234 v 9 h 9 v -9 h -9 z M 153 243 v 9 h 9 v -9 h -9 z M 153 252 v 9 h 9 v -9 h -9 z M 153 297 v 9 h 9 v -9 h -9 z M 153 306 v 9 h 9 v -9 h -9 z M 153 324 v 9 h 9 v -9 h -9 z M 153 351 v 9 h 9 v -9 h -9 z M 153 360 v 9 h 9 v -9 h -9 z M 162 9 v 9 h 9 v -9 h -9 z M 162 27 v 9 h 9 v -9 h -9 z M 162 36 v 9 h 9 v -9 h -9 z M 162 45 v 9 h 9 v -9 h -9 z M 162 90 v 9 h 9 v -9 h -9 z M 162 108 v 9 h 9 v -9 h -9 z M 162 117 v 9 h 9 v -9 h -9 z M 162 126 v 9 h 9 v -9 h -9 z M 162 135 v 9 h 9 v -9 h -9 z M 162 153 v 9 h 9 v -9 h -9 z M 162 162 v 9 h 9 v -9 h -9 z M 162 171 v 9 h 9 v -9 h -9 z M 162 180 v 9 h 9 v -9 h -9 z M 162 198 v 9 h 9 v -9 h -9 z M 162 207 v 9 h 9 v -9 h -9 z M 162 216 v 9 h 9 v -9 h -9 z M 162 225 v 9 h 9 v -9 h -9 z M 162 234 v 9 h 9 v -9 h -9 z M 162 261 v 9 h 9 v -9 h -9 z M 162 270 v 9 h 9 v -9 h -9 z M 162 279 v 9 h 9 v -9 h -9 z M 162 288 v 9 h 9 v -9 h -9 z M 162 315 v 9 h 9 v -9 h -9 z M 162 324 v 9 h 9 v -9 h -9 z M 162 333 v 9 h 9 v -9 h -9 z M 162 360 v 9 h 9 v -9 h -9 z M 162 369 v 9 h 9 v -9 h -9 z M 171 63 v 9 h 9 v -9 h -9 z M 171 81 v 9 h 9 v -9 h -9 z M 171 90 v 9 h 9 v -9 h -9 z M 171 117 v 9 h 9 v -9 h -9 z M 171 162 v 9 h 9 v -9 h -9 z M 171 198 v 9 h 9 v -9 h -9 z M 171 234 v 9 h 9 v -9 h -9 z M 171 243 v 9 h 9 v -9 h -9 z M 171 252 v 9 h 9 v -9 h -9 z M 171 297 v 9 h 9 v -9 h -9 z M 171 333 v 9 h 9 v -9 h -9 z M 180 9 v 9 h 9 v -9 h -9 z M 180 18 v 9 h 9 v -9 h -9 z M 180 27 v 9 h 9 v -9 h -9 z M 180 36 v 9 h 9 v -9 h -9 z M 180 45 v 9 h 9 v -9 h -9 z M 180 54 v 9 h 9 v -9 h -9 z M 180 81 v 9 h 9 v -9 h -9 z M 180 90 v 9 h 9 v -9 h -9 z M 180 99 v 9 h 9 v -9 h -9 z M 180 108 v 9 h 9 v -9 h -9 z M 180 117 v 9 h 9 v -9 h -9 z M 180 144 v 9 h 9 v -9 h -9 z M 180 153 v 9 h 9 v -9 h -9 z M 180 162 v 9 h 9 v -9 h -9 z M 180 171 v 9 h 9 v -9 h -9 z M 180 180 v 9 h 9 v -9 h -9 z M 180 198 v 9 h 9 v -9 h -9 z M 180 207 v 9 h 9 v -9 h -9 z M 180 234 v 9 h 9 v -9 h -9 z M 180 252 v 9 h 9 v -9 h -9 z M 180 261 v 9 h 9 v -9 h -9 z M 180 288 v 9 h 9 v -9 h -9 z M 180 333 v 9 h 9 v -9 h -9 z M 180 342 v 9 h 9 v -9 h -9 z M 189 9 v 9 h 9 v -9 h -9 z M 189 18 v 9 h 9 v -9 h -9 z M 189 54 v 9 h 9 v -9 h -9 z M 189 63 v 9 h 9 v -9 h -9 z M 189 72 v 9 h 9 v -9 h -9 z M 189 81 v 9 h 9 v -9 h -9 z M 189 99 v 9 h 9 v -9 h -9 z M 189 108 v 9 h 9 v -9 h -9 z M 189 117 v 9 h 9 v -9 h -9 z M 189 126 v 9 h 9 v -9 h -9 z M 189 135 v 9 h 9 v -9 h -9 z M 189 144 v 9 h 9 v -9 h -9 z M 189 198 v 9 h 9 v -9 h -9 z M 189 225 v 9 h 9 v -9 h -9 z M 189 243 v 9 h 9 v -9 h -9 z M 189 252 v 9 h 9 v -9 h -9 z M 189 270 v 9 h 9 v -9 h -9 z M 189 351 v 9 h 9 v -9 h -9 z M 189 360 v 9 h 9 v -9 h -9 z M 189 369 v 9 h 9 v -9 h -9 z M 198 18 v 9 h 9 v -9 h -9 z M 198 72 v 9 h 9 v -9 h -9 z M 198 117 v 9 h 9 v -9 h -9 z M 198 126 v 9 h 9 v -9 h -9 z M 198 135 v 9 h 9 v -9 h -9 z M 198 144 v 9 h 9 v -9 h -9 z M 198 153 v 9 h 9 v -9 h -9 z M 198 171 v 9 h 9 v -9 h -9 z M 198 180 v 9 h 9 v -9 h -9 z M 198 189 v 9 h 9 v -9 h -9 z M 198 198 v 9 h 9 v -9 h -9 z M 198 207 v 9 h 9 v -9 h -9 z M 198 216 v 9 h 9 v -9 h -9 z M 198 225 v 9 h 9 v -9 h -9 z M 198 261 v 9 h 9 v -9 h -9 z M 198 270 v 9 h 9 v -9 h -9 z M 198 279 v 9 h 9 v -9 h -9 z M 198 288 v 9 h 9 v -9 h -9 z M 198 297 v 9 h 9 v -9 h -9 z M 198 306 v 9 h 9 v -9 h -9 z M 198 315 v 9 h 9 v -9 h -9 z M 198 324 v 9 h 9 v -9 h -9 z M 198 333 v 9 h 9 v -9 h -9 z M 198 360 v 9 h 9 v -9 h -9 z M 198 369 v 9 h 9 v -9 h -9 z M 207 18 v 9 h 9 v -9 h -9 z M 207 27 v 9 h 9 v -9 h -9 z M 207 45 v 9 h 9 v -9 h -9 z M 207 54 v 9 h 9 v -9 h -9 z M 207 63 v 9 h 9 v -9 h -9 z M 207 72 v 9 h 9 v -9 h -9 z M 207 81 v 9 h 9 v -9 h -9 z M 207 90 v 9 h 9 v -9 h -9 z M 207 99 v 9 h 9 v -9 h -9 z M 207 126 v 9 h 9 v -9 h -9 z M 207 162 v 9 h 9 v -9 h -9 z M 207 171 v 9 h 9 v -9 h -9 z M 207 207 v 9 h 9 v -9 h -9 z M 207 252 v 9 h 9 v -9 h -9 z M 207 279 v 9 h 9 v -9 h -9 z M 207 297 v 9 h 9 v -9 h -9 z M 207 315 v 9 h 9 v -9 h -9 z M 207 342 v 9 h 9 v -9 h -9 z M 207 351 v 9 h 9 v -9 h -9 z M 216 18 v 9 h 9 v -9 h -9 z M 216 27 v 9 h 9 v -9 h -9 z M 216 54 v 9 h 9 v -9 h -9 z M 216 72 v 9 h 9 v -9 h -9 z M 216 81 v 9 h 9 v -9 h -9 z M 216 90 v 9 h 9 v -9 h -9 z M 216 99 v 9 h 9 v -9 h -9 z M 216 126 v 9 h 9 v -9 h -9 z M 216 144 v 9 h 9 v -9 h -9 z M 216 153 v 9 h 9 v -9 h -9 z M 216 171 v 9 h 9 v -9 h -9 z M 216 180 v 9 h 9 v -9 h -9 z M 216 198 v 9 h 9 v -9 h -9 z M 216 207 v 9 h 9 v -9 h -9 z M 216 225 v 9 h 9 v -9 h -9 z M 216 252 v 9 h 9 v -9 h -9 z M 216 324 v 9 h 9 v -9 h -9 z M 216 342 v 9 h 9 v -9 h -9 z M 216 360 v 9 h 9 v -9 h -9 z M 216 369 v 9 h 9 v -9 h -9 z M 225 9 v 9 h 9 v -9 h -9 z M 225 27 v 9 h 9 v -9 h -9 z M 225 36 v 9 h 9 v -9 h -9 z M 225 45 v 9 h 9 v -9 h -9 z M 225 63 v 9 h 9 v -9 h -9 z M 225 81 v 9 h 9 v -9 h -9 z M 225 99 v 9 h 9 v -9 h -9 z M 225 108 v 9 h 9 v -9 h -9 z M 225 126 v 9 h 9 v -9 h -9 z M 225 135 v 9 h 9 v -9 h -9 z M 225 153 v 9 h 9 v -9 h -9 z M 225 162 v 9 h 9 v -9 h -9 z M 225 171 v 9 h 9 v -9 h -9 z M 225 207 v 9 h 9 v -9 h -9 z M 225 234 v 9 h 9 v -9 h -9 z M 225 252 v 9 h 9 v -9 h -9 z M 225 270 v 9 h 9 v -9 h -9 z M 225 288 v 9 h 9 v -9 h -9 z M 225 306 v 9 h 9 v -9 h -9 z M 225 351 v 9 h 9 v -9 h -9 z M 225 369 v 9 h 9 v -9 h -9 z M 234 18 v 9 h 9 v -9 h -9 z M 234 27 v 9 h 9 v -9 h -9 z M 234 36 v 9 h 9 v -9 h -9 z M 234 45 v 9 h 9 v -9 h -9 z M 234 72 v 9 h 9 v -9 h -9 z M 234 171 v 9 h 9 v -9 h -9 z M 234 180 v 9 h 9 v -9 h -9 z M 234 189 v 9 h 9 v -9 h -9 z M 234 216 v 9 h 9 v -9 h -9 z M 234 225 v 9 h 9 v -9 h -9 z M 234 234 v 9 h 9 v -9 h -9 z M 234 243 v 9 h 9 v -9 h -9 z M 234 261 v 9 h 9 v -9 h -9 z M 234 279 v 9 h 9 v -9 h -9 z M 234 288 v 9 h 9 v -9 h -9 z M 234 306 v 9 h 9 v -9 h -9 z M 234 315 v 9 h 9 v -9 h -9 z M 234 324 v 9 h 9 v -9 h -9 z M 234 333 v 9 h 9 v -9 h -9 z M 234 342 v 9 h 9 v -9 h -9 z M 234 360 v 9 h 9 v -9 h -9 z M 234 369 v 9 h 9 v -9 h -9 z M 243 18 v 9 h 9 v -9 h -9 z M 243 27 v 9 h 9 v -9 h -9 z M 243 54 v 9 h 9 v -9 h -9 z M 243 63 v 9 h 9 v -9 h -9 z M 243 72 v 9 h 9 v -9 h -9 z M 243 81 v 9 h 9 v -9 h -9 z M 243 90 v 9 h 9 v -9 h -9 z M 243 108 v 9 h 9 v -9 h -9 z M 243 135 v 9 h 9 v -9 h -9 z M 243 144 v 9 h 9 v -9 h -9 z M 243 153 v 9 h 9 v -9 h -9 z M 243 162 v 9 h 9 v -9 h -9 z M 243 171 v 9 h 9 v -9 h -9 z M 243 198 v 9 h 9 v -9 h -9 z M 243 225 v 9 h 9 v -9 h -9 z M 243 234 v 9 h 9 v -9 h -9 z M 243 243 v 9 h 9 v -9 h -9 z M 243 252 v 9 h 9 v -9 h -9 z M 243 261 v 9 h 9 v -9 h -9 z M 243 270 v 9 h 9 v -9 h -9 z M 243 279 v 9 h 9 v -9 h -9 z M 243 297 v 9 h 9 v -9 h -9 z M 243 315 v 9 h 9 v -9 h -9 z M 252 9 v 9 h 9 v -9 h -9 z M 252 18 v 9 h 9 v -9 h -9 z M 252 36 v 9 h 9 v -9 h -9 z M 252 45 v 9 h 9 v -9 h -9 z M 252 72 v 9 h 9 v -9 h -9 z M 252 90 v 9 h 9 v -9 h -9 z M 252 99 v 9 h 9 v -9 h -9 z M 252 108 v 9 h 9 v -9 h -9 z M 252 117 v 9 h 9 v -9 h -9 z M 252 135 v 9 h 9 v -9 h -9 z M 252 189 v 9 h 9 v -9 h -9 z M 252 198 v 9 h 9 v -9 h -9 z M 252 207 v 9 h 9 v -9 h -9 z M 252 216 v 9 h 9 v -9 h -9 z M 252 225 v 9 h 9 v -9 h -9 z M 252 261 v 9 h 9 v -9 h -9 z M 252 288 v 9 h 9 v -9 h -9 z M 252 297 v 9 h 9 v -9 h -9 z M 252 306 v 9 h 9 v -9 h -9 z M 252 333 v 9 h 9 v -9 h -9 z M 252 342 v 9 h 9 v -9 h -9 z M 252 360 v 9 h 9 v -9 h -9 z M 261 18 v 9 h 9 v -9 h -9 z M 261 36 v 9 h 9 v -9 h -9 z M 261 45 v 9 h 9 v -9 h -9 z M 261 54 v 9 h 9 v -9 h -9 z M 261 63 v 9 h 9 v -9 h -9 z M 261 81 v 9 h 9 v -9 h -9 z M 261 126 v 9 h 9 v -9 h -9 z M 261 135 v 9 h 9 v -9 h -9 z M 261 144 v 9 h 9 v -9 h -9 z M 261 162 v 9 h 9 v -9 h -9 z M 261 171 v 9 h 9 v -9 h -9 z M 261 189 v 9 h 9 v -9 h -9 z M 261 207 v 9 h 9 v -9 h -9 z M 261 225 v 9 h 9 v -9 h -9 z M 261 234 v 9 h 9 v -9 h -9 z M 261 243 v 9 h 9 v -9 h -9 z M 261 252 v 9 h 9 v -9 h -9 z M 261 261 v 9 h 9 v -9 h -9 z M 261 270 v 9 h 9 v -9 h -9 z M 261 279 v 9 h 9 v -9 h -9 z M 261 288 v 9 h 9 v -9 h -9 z M 261 297 v 9 h 9 v -9 h -9 z M 261 342 v 9 h 9 v -9 h -9 z M 261 351 v 9 h 9 v -9 h -9 z M 270 9 v 9 h 9 v -9 h -9 z M 270 27 v 9 h 9 v -9 h -9 z M 270 36 v 9 h 9 v -9 h -9 z M 270 54 v 9 h 9 v -9 h -9 z M 270 90 v 9 h 9 v -9 h -9 z M 270 99 v 9 h 9 v -9 h -9 z M 270 108 v 9 h 9 v -9 h -9 z M 270 117 v 9 h 9 v -9 h -9 z M 270 126 v 9 h 9 v -9 h -9 z M 270 144 v 9 h 9 v -9 h -9 z M 270 171 v 9 h 9 v -9 h -9 z M 270 243 v 9 h 9 v -9 h -9 z M 270 261 v 9 h 9 v -9 h -9 z M 270 279 v 9 h 9 v -9 h -9 z M 270 288 v 9 h 9 v -9 h -9 z M 270 297 v 9 h 9 v -9 h -9 z M 270 306 v 9 h 9 v -9 h -9 z M 270 315 v 9 h 9 v -9 h -9 z M 270 324 v 9 h 9 v -9 h -9 z M 270 333 v 9 h 9 v -9 h -9 z M 270 342 v 9 h 9 v -9 h -9 z M 270 351 v 9 h 9 v -9 h -9 z M 270 369 v 9 h 9 v -9 h -9 z M 279 9 v 9 h 9 v -9 h -9 z M 279 27 v 9 h 9 v -9 h -9 z M 279 45 v 9 h 9 v -9 h -9 z M 279 63 v 9 h 9 v -9 h -9 z M 279 99 v 9 h 9 v -9 h -9 z M 279 108 v 9 h 9 v -9 h -9 z M 279 117 v 9 h 9 v -9 h -9 z M 279 126 v 9 h 9 v -9 h -9 z M 279 153 v 9 h 9 v -9 h -9 z M 279 189 v 9 h 9 v -9 h -9 z M 279 198 v 9 h 9 v -9 h -9 z M 279 216 v 9 h 9 v -9 h -9 z M 279 225 v 9 h 9 v -9 h -9 z M 279 252 v 9 h 9 v -9 h -9 z M 279 279 v 9 h 9 v -9 h -9 z M 279 297 v 9 h 9 v -9 h -9 z M 279 306 v 9 h 9 v -9 h -9 z M 279 315 v 9 h 9 v -9 h -9 z M 279 324 v 9 h 9 v -9 h -9 z M 279 342 v 9 h 9 v -9 h -9 z M 279 351 v 9 h 9 v -9 h -9 z M 279 360 v 9 h 9 v -9 h -9 z M 288 9 v 9 h 9 v -9 h -9 z M 288 36 v 9 h 9 v -9 h -9 z M 288 81 v 9 h 9 v -9 h -9 z M 288 108 v 9 h 9 v -9 h -9 z M 288 117 v 9 h 9 v -9 h -9 z M 288 126 v 9 h 9 v -9 h -9 z M 288 198 v 9 h 9 v -9 h -9 z M 288 207 v 9 h 9 v -9 h -9 z M 288 216 v 9 h 9 v -9 h -9 z M 288 243 v 9 h 9 v -9 h -9 z M 288 261 v 9 h 9 v -9 h -9 z M 288 297 v 9 h 9 v -9 h -9 z M 288 306 v 9 h 9 v -9 h -9 z M 288 315 v 9 h 9 v -9 h -9 z M 288 333 v 9 h 9 v -9 h -9 z M 288 342 v 9 h 9 v -9 h -9 z M 297 9 v 9 h 9 v -9 h -9 z M 297 36 v 9 h 9 v -9 h -9 z M 297 45 v 9 h 9 v -9 h -9 z M 297 63 v 9 h 9 v -9 h -9 z M 297 72 v 9 h 9 v -9 h -9 z M 297 90 v 9 h 9 v -9 h -9 z M 297 117 v 9 h 9 v -9 h -9 z M 297 162 v 9 h 9 v -9 h -9 z M 297 189 v 9 h 9 v -9 h -9 z M 297 216 v 9 h 9 v -9 h -9 z M 297 225 v 9 h 9 v -9 h -9 z M 297 234 v 9 h 9 v -9 h -9 z M 297 243 v 9 h 9 v -9 h -9 z M 297 261 v 9 h 9 v -9 h -9 z M 297 270 v 9 h 9 v -9 h -9 z M 297 279 v 9 h 9 v -9 h -9 z M 297 297 v 9 h 9 v -9 h -9 z M 297 306 v 9 h 9 v -9 h -9 z M 297 315 v 9 h 9 v -9 h -9 z M 297 324 v 9 h 9 v -9 h -9 z M 297 333 v 9 h 9 v -9 h -9 z M 297 342 v 9 h 9 v -9 h -9 z M 306 81 v 9 h 9 v -9 h -9 z M 306 126 v 9 h 9 v -9 h -9 z M 306 153 v 9 h 9 v -9 h -9 z M 306 171 v 9 h 9 v -9 h -9 z M 306 180 v 9 h 9 v -9 h -9 z M 306 216 v 9 h 9 v -9 h -9 z M 306 225 v 9 h 9 v -9 h -9 z M 306 243 v 9 h 9 v -9 h -9 z M 306 261 v 9 h 9 v -9 h -9 z M 306 297 v 9 h 9 v -9 h -9 z M 306 333 v 9 h 9 v -9 h -9 z M 306 360 v 9 h 9 v -9 h -9 z M 306 369 v 9 h 9 v -9 h -9 z M 315 99 v 9 h 9 v -9 h -9 z M 315 135 v 9 h 9 v -9 h -9 z M 315 144 v 9 h 9 v -9 h -9 z M 315 171 v 9 h 9 v -9 h -9 z M 315 189 v 9 h 9 v -9 h -9 z M 315 207 v 9 h 9 v -9 h -9 z M 315 252 v 9 h 9 v -9 h -9 z M 315 261 v 9 h 9 v -9 h -9 z M 315 297 v 9 h 9 v -9 h -9 z M 315 315 v 9 h 9 v -9 h -9 z M 315 333 v 9 h 9 v -9 h -9 z M 315 342 v 9 h 9 v -9 h -9 z M 324 81 v 9 h 9 v -9 h -9 z M 324 99 v 9 h 9 v -9 h -9 z M 324 189 v 9 h 9 v -9 h -9 z M 324 216 v 9 h 9 v -9 h -9 z M 324 225 v 9 h 9 v -9 h -9 z M 324 243 v 9 h 9 v -9 h -9 z M 324 252 v 9 h 9 v -9 h -9 z M 324 288 v 9 h 9 v -9 h -9 z M 324 297 v 9 h 9 v -9 h -9 z M 324 333 v 9 h 9 v -9 h -9 z M 324 342 v 9 h 9 v -9 h -9 z M 324 360 v 9 h 9 v -9 h -9 z M 324 369 v 9 h 9 v -9 h -9 z M 333 81 v 9 h 9 v -9 h -9 z M 333 90 v 9 h 9 v -9 h -9 z M 333 99 v 9 h 9 v -9 h -9 z M 333 108 v 9 h 9 v -9 h -9 z M 333 117 v 9 h 9 v -9 h -9 z M 333 135 v 9 h 9 v -9 h -9 z M 333 144 v 9 h 9 v -9 h -9 z M 333 171 v 9 h 9 v -9 h -9 z M 333 189 v 9 h 9 v -9 h -9 z M 333 198 v 9 h 9 v -9 h -9 z M 333 207 v 9 h 9 v -9 h -9 z M 333 225 v 9 h 9 v -9 h -9 z M 333 252 v 9 h 9 v -9 h -9 z M 333 261 v 9 h 9 v -9 h -9 z M 333 270 v 9 h 9 v -9 h -9 z M 333 297 v 9 h 9 v -9 h -9 z M 333 306 v 9 h 9 v -9 h -9 z M 333 315 v 9 h 9 v -9 h -9 z M 333 324 v 9 h 9 v -9 h -9 z M 333 333 v 9 h 9 v -9 h -9 z M 333 342 v 9 h 9 v -9 h -9 z M 333 351 v 9 h 9 v -9 h -9 z M 333 369 v 9 h 9 v -9 h -9 z M 342 81 v 9 h 9 v -9 h -9 z M 342 90 v 9 h 9 v -9 h -9 z M 342 117 v 9 h 9 v -9 h -9 z M 342 135 v 9 h 9 v -9 h -9 z M 342 144 v 9 h 9 v -9 h -9 z M 342 153 v 9 h 9 v -9 h -9 z M 342 180 v 9 h 9 v -9 h -9 z M 342 189 v 9 h 9 v -9 h -9 z M 342 216 v 9 h 9 v -9 h -9 z M 342 243 v 9 h 9 v -9 h -9 z M 342 261 v 9 h 9 v -9 h -9 z M 342 279 v 9 h 9 v -9 h -9 z M 342 288 v 9 h 9 v -9 h -9 z M 342 306 v 9 h 9 v -9 h -9 z M 342 324 v 9 h 9 v -9 h -9 z M 342 351 v 9 h 9 v -9 h -9 z M 351 81 v 9 h 9 v -9 h -9 z M 351 90 v 9 h 9 v -9 h -9 z M 351 99 v 9 h 9 v -9 h -9 z M 351 117 v 9 h 9 v -9 h -9 z M 351 135 v 9 h 9 v -9 h -9 z M 351 144 v 9 h 9 v -9 h -9 z M 351 189 v 9 h 9 v -9 h -9 z M 351 198 v 9 h 9 v -9 h -9 z M 351 225 v 9 h 9 v -9 h -9 z M 351 252 v 9 h 9 v -9 h -9 z M 351 261 v 9 h 9 v -9 h -9 z M 351 288 v 9 h 9 v -9 h -9 z M 351 306 v 9 h 9 v -9 h -9 z M 351 315 v 9 h 9 v -9 h -9 z M 351 324 v 9 h 9 v -9 h -9 z M 351 333 v 9 h 9 v -9 h -9 z M 351 342 v 9 h 9 v -9 h -9 z M 360 126 v 9 h 9 v -9 h -9 z M 360 135 v 9 h 9 v -9 h -9 z M 360 144 v 9 h 9 v -9 h -9 z M 360 162 v 9 h 9 v -9 h -9 z M 360 171 v 9 h 9 v -9 h -9 z M 360 189 v 9 h 9 v -9 h -9 z M 360 198 v 9 h 9 v -9 h -9 z M 360 207 v 9 h 9 v -9 h -9 z M 360 243 v 9 h 9 v -9 h -9 z M 360 261 v 9 h 9 v -9 h -9 z M 360 297 v 9 h 9 v -9 h -9 z M 360 333 v 9 h 9 v -9 h -9 z M 360 342 v 9 h 9 v -9 h -9 z M 360 360 v 9 h 9 v -9 h -9 z M 369 81 v 9 h 9 v -9 h -9 z M 369 90 v 9 h 9 v -9 h -9 z M 369 126 v 9 h 9 v -9 h -9 z M 369 135 v 9 h 9 v -9 h -9 z M 369 144 v 9 h 9 v -9 h -9 z M 369 171 v 9 h 9 v -9 h -9 z M 369 189 v 9 h 9 v -9 h -9 z M 369 207 v 9 h 9 v -9 h -9 z M 369 234 v 9 h 9 v -9 h -9 z M 369 270 v 9 h 9 v -9 h -9 z M 369 288 v 9 h 9 v -9 h -9 z M 369 306 v 9 h 9 v -9 h -9 z M 369 324 v 9 h 9 v -9 h -9 z M 369 333 v 9 h 9 v -9 h -9 z M 369 351 v 9 h 9 v -9 h -9 z" fill="#000000"/></svg>