<?xml version="1.0" encoding="utf-8"?><svg xmlns="http://www.w3.org/2000/svg" version="1.1" xmlns:xlink="http://www.w3.org/1999/xlink" viewBox="0 0 387 387"><rect width="387" height="387" fill="#FFFFFF"></rect><path shape-rendering="geometricPrecision" d="M 9 9 v 63 h 63 v -63 h -63 z M 18 18 v 45 h 45 v -45 h -45 z M 378 9 v 63 h -63 v -63 h 63 z M 369 18 v 45 h -45 v -45 h 45 z M 9 378 v -63 h 63 v 63 h -63 z M 18 369 v -45 h 45 v 45 h -45 z" fill-rule="evenodd" fill="#000000"/><path shape-rendering="geometricPrecision" d="M 27 27 v 27 h 27 v -27 h -27 z M 360 27 v 27 h -27 v -27 h 27 z M 27 360 v -27 h 27 v 27 h -27 z" fill="#000000"/><path shape-rendering="geometricPrecision" d="M 9 81 v 9 h 9 v -9 h -9 z M 9 99 v 9 h 9 v -9 h -9 z M 9 108 v 9 h 9 v -9 h -9 z M 9 126 v 9 h 9 v -9 h -9 z M 9 135 v 9 h 9 v -9 h -9 z M 9 153 v 9 h 9 v -9 h -9 z M 9 180 v 9 h 9 v -9 h -9 z M 9 189 v 9 h 9 v -9 h -9 z M 9 198 v 9 h 9 v -9 h -9 z M 9 207 v 9 h 9 v -9 h -9 z M 9 216 v 9 h 9 v -9 h -9 z M 9 243 v 9 h 9 v -9 h -9 z M 9 261 v 9 h 9 v -9 h -9 z M 9 288 v 9 h 9 v -9 h -9 z M 9 297 v 9 h 9 v -9 h -9 z M 18 81 v 9 h 9 v -9 h -9 z M 18 108 v 9 h 9 v -9 h -9 z M 18 117 v 9 h 9 v -9 h -9 z M 18 144 v 9 h 9 v -9 h -9 z M 18 153 v 9 h 9 v -9 h -9 z M 18 162 v 9 h 9 v -9 h -9 z M 18 198 v 9 h 9 v -9 h -9 z M 18 216 v 9 h 9 v -9 h -9 z M 18 261 v 9 h 9 v -9 h -9 z M 18 270 v 9 h 9 v -9 h -9 z M 18 279 v 9 h 9 v -9 h -9 z M 18 297 v 9 h 9 v -9 h -9 z M 27 99 v 9 h 9 v -9 h -9 z M 27 108 v 9 h 9 v -9 h -9 z M 27 135 v 9 h 9 v -9 h -9 z M 27 144 v 9 h 9 v -9 h -9 z M 27 153 v 9 h 9 v -9 h -9 z M 27 171 v 9 h 9 v -9 h -9 z M 27 180 v 9 h 9 v -9 h -9 z M 27 189 v 9 h 9 v -9 h -9 z M 27 216 v 9 h 9 v -9 h -9 z M 27 225 v 9 h 9 v -9 h -9 z M 27 234 v 9 h 9 v -9 h -9 z M 27 252 v 9 h 9 v -9 h -9 z M 27 279 v 9 h 9 v -9 h -9 z M 27 297 v 9 h 9 v -9 h -9 z M 36 81 v 9 h 9 v -9 h -9 z M 36 90 v 9 h 9 v -9 h -9 z M 36 99 v 9 h 9 v -9 h -9 z M 36 135 v 9 h 9 v -9 h -9 z M 36 144 v 9 h 9 v -9 h -9 z M 36 162 v 9 h 9 v -9 h -9 z M 36 171 v 9 h 9 v -9 h -9 z M 36 207 v 9 h 9 v -9 h -9 z M 36 216 v 9 h 9 v -9 h -9 z M 36 234 v 9 h 9 v -9 h -9 z M 36 243 v 9 h 9 v -9 h -9 z M 36 270 v 9 h 9 v -9 h -9 z M 36 288 v 9 h 9 v -9 h -9 z M 45 99 v 9 h 9 v -9 h -9 z M 45 108 v 9 h 9 v -9 h -9 z M 45 117 v 9 h 9 v -9 h -9 z M 45 126 v 9 h 9 v -9 h -9 z M 45 135 v 9 h 9 v -9 h -9 z M 45 153 v 9 h 9 v -9 h -9 z M 45 162 v 9 h 9 v -9 h -9 z M 45 180 v 9 h 9 v -9 h -9 z M 45 198 v 9 h 9 v -9 h -9 z M 45 207 v 9 h 9 v -9 h -9 z M 45 216 v 9 h 9 v -9 h -9 z M 45 225 v 9 h 9 v -9 h -9 z M 45 243 v 9 h 9 v -9 h -9 z M 45 252 v 9 h 9 v -9 h -9 z M 45 261 v 9 h 9 v -9 h -9 z M 45 270 v 9 h 9 v -9 h -9 z M 45 288 v 9 h 9 v -9 h -9 z M 45 297 v 9 h 9 v -9 h -9 z M 54 90 v 9 h 9 v -9 h -9 z M 54 126 v 9 h 9 v -9 h -9 z M 54 135 v 9 h 9 v -9 h -9 z M 54 153 v 9 h 9 v -9 h -9 z M 54 171 v 9 h 9 v -9 h -9 z M 54 180 v 9 h 9 v -9 h -9 z M 54 198 v 9 h 9 v -9 h -9 z M 54 225 v 9 h 9 v -9 h -9 z M 54 234 v 9 h 9 v -9 h -9 z M 54 261 v 9 h 9 v -9 h -9 z M 54 279 v 9 h 9 v -9 h -9 z M 54 288 v 9 h 9 v -9 h -9 z M 54 297 v 9 h 9 v -9 h -9 z M 63 81 v 9 h 9 v -9 h -9 z M 63 99 v 9 h 9 v -9 h -9 z M 63 117 v 9 h 9 v -9 h -9 z M 63 135 v 9 h 9 v -9 h -9 z M 63 153 v 9 h 9 v -9 h -9 z M 63 171 v 9 h 9 v -9 h -9 z M 63 189 v 9 h 9 v -9 h -9 z M 63 207 v 9 h 9 v -9 h -9 z M 63 225 v 9 h 9 v -9 h -9 z M 63 243 v 9 h 9 v -9 h -9 z M 63 261 v 9 h 9 v -9 h -9 z M 63 279 v 9 h 9 v -9 h -9 z M 63 297 v 9 h 9 v -9 h -9 z M 72 81 v 9 h 9 v -9 h -9 z M 72 90 v 9 h 9 v -9 h -9 z M 72 126 v 9 h 9 v -9 h -9 z M 72 144 v 9 h 9 v -9 h -9 z M 72 153 v 9 h 9 v -9 h -9 z M 72 162 v 9 h 9 v -9 h -9 z M 72 171 v 9 h 9 v -9 h -9 z M 72 225 v 9 h 9 v -9 h -9 z M 72 243 v 9 h 9 v -9 h -9 z M 72 261 v 9 h 9 v -9 h -9 z M 72 270 v 9 h 9 v -9 h -9 z M 81 9 v 9 h 9 v -9 h -9 z M 81 27 v 9 h 9 v -9 h -9 z M 81 36 v 9 h 9 v -9 h -9 z M 81 54 v 9 h 9 v -9 h -9 z M 81 63 v 9 h 9 v -9 h -9 z M 81 72 v 9 h 9 v -9 h -9 z M 81 108 v 9 h 9 v -9 h -9 z M 81 135 v 9 h 9 v -9 h -9 z M 81 153 v 9 h 9 v -9 h -9 z M 81 162 v 9 h 9 v -9 h -9 z M 81 171 v 9 h 9 v -9 h -9 z M 81 180 v 9 h 9 v -9 h -9 z M 81 189 v 9 h 9 v -9 h -9 z M 81 198 v 9 h 9 v -9 h -9 z M 81 216 v 9 h 9 v -9 h -9 z M 81 252 v 9 h 9 v -9 h -9 z M 81 270 v 9 h 9 v -9 h -9 z M 81 279 v 9 h 9 v -9 h -9 z M 81 288 v 9 h 9 v -9 h -9 z M 81 315 v 9 h 9 v -9 h -9 z M 81 342 v 9 h 9 v -9 h -9 z M 81 360 v 9 h 9 v -9 h -9 z M 81 369 v 9 h 9 v -9 h -9 z M 90 27 v 9 h 9 v -9 h -9 z M 90 72 v 9 h 9 v -9 h -9 z M 90 81 v 9 h 9 v -9 h -9 z M 90 99 v 9 h 9 v -9 h -9 z M 90 108 v 9 h 9 v -9 h -9 z M 90 117 v 9 h 9 v -9 h -9 z M 90 126 v 9 h 9 v -9 h -9 z M 90 144 v 9 h 9 v -9 h -9 z M 90 153 v 9 h 9 v -9 h -9 z M 90 171 v 9 h 9 v -9 h -9 z M 90 180 v 9 h 9 v -9 h -9 z M 90 189 v 9 h 9 v -9 h -9 z M 90 198 v 9 h 9 v -9 h -9 z M 90 216 v 9 h 9 v -9 h -9 z M 90 225 v 9 h 9 v -9 h -9 z M 90 243 v 9 h 9 v -9 h -9 z M 90 261 v 9 h 9 v -9 h -9 z M 90 270 v 9 h 9 v -9 h -9 z M 90 279 v 9 h 9 v -9 h -9 z M 90 288 v 9 h 9 v -9 h -9 z M 90 297 v 9 h 9 v -9 h -9 z M 90 315 v 9 h 9 v -9 h -9 z M 90 333 v 9 h 9 v -9 h -9 z M 90 351 v 9 h 9 v -9 h -9 z M 90 369 v 9 h 9 v -9 h -9 z M 99 9 v 9 h 9 v -9 h -9 z M 99 36 v 9 h 9 v -9 h -9 z M 99 45 v 9 h 9 v -9 h -9 z M 99 63 v 9 h 9 v -9 h -9 z M 99 72 v 9 h 9 v -9 h -9 z M 99 108 v 9 h 9 v -9 h -9 z M 99 153 v 9 h 9 v -9 h -9 z M 99 162 v 9 h 9 v -9 h -9 z M 99 189 v 9 h 9 v -9 h -9 z M 99 216 v 9 h 9 v -9 h -9 z M 99 225 v 9 h 9 v -9 h -9 z M 99 243 v 9 h 9 v -9 h -9 z M 99 261 v 9 h 9 v -9 h -9 z M 99 279 v 9 h 9 v -9 h -9 z M 99 306 v 9 h 9 v -9 h -9 z M 99 315 v 9 h 9 v -9 h -9 z M 99 351 v 9 h 9 v -9 h -9 z M 108 81 v 9 h 9 v -9 h -9 z M 108 108 v 9 h 9 v -9 h -9 z M 108 117 v 9 h 9 v -9 h -9 z M 108 171 v 9 h 9 v -9 h -9 z M 108 180 v 9 h 9 v -9 h -9 z M 108 207 v 9 h 9 v -9 h -9 z M 108 216 v 9 h 9 v -9 h -9 z M 108 234 v 9 h 9 v -9 h -9 z M 108 243 v 9 h 9 v -9 h -9 z M 108 252 v 9 h 9 v -9 h -9 z M 108 279 v 9 h 9 v -9 h -9 z M 108 297 v 9 h 9 v -9 h -9 z M 108 315 v 9 h 9 v -9 h -9 z M 108 324 v 9 h 9 v -9 h -9 z M 108 360 v 9 h 9 v -9 h -9 z M 108 369 v 9 h 9 v -9 h -9 z M 117 9 v 9 h 9 v -9 h -9 z M 117 18 v 9 h 9 v -9 h -9 z M 117 27 v 9 h 9 v -9 h -9 z M 117 45 v 9 h 9 v -9 h -9 z M 117 63 v 9 h 9 v -9 h -9 z M 117 72 v 9 h 9 v -9 h -9 z M 117 81 v 9 h 9 v -9 h -9 z M 117 90 v 9 h 9 v -9 h -9 z M 117 162 v 9 h 9 v -9 h -9 z M 117 180 v 9 h 9 v -9 h -9 z M 117 207 v 9 h 9 v -9 h -9 z M 117 234 v 9 h 9 v -9 h -9 z M 117 243 v 9 h 9 v -9 h -9 z M 117 270 v 9 h 9 v -9 h -9 z M 117 279 v 9 h 9 v -9 h -9 z M 117 288 v 9 h 9 v -9 h -9 z M 117 297 v 9 h 9 v -9 h -9 z M 117 342 v 9 h 9 v -9 h -9 z M 117 351 v 9 h 9 v -9 h -9 z M 126 9 v 9 h 9 v -9 h -9 z M 126 18 v 9 h 9 v -9 h -9 z M 126 27 v 9 h 9 v -9 h -9 z M 126 72 v 9 h 9 v -9 h -9 z M 126 99 v 9 h 9 v -9 h -9 z M 126 108 v 9 h 9 v -9 h -9 z M 126 126 v 9 h 9 v -9 h -9 z M 126 135 v 9 h 9 v -9 h -9 z M 126 144 v 9 h 9 v -9 h -9 z M 126 153 v 9 h 9 v -9 h -9 z M 126 162 v 9 h 9 v -9 h -9 z M 126 171 v 9 h 9 v -9 h -9 z M 126 180 v 9 h 9 v -9 h -9 z M 126 225 v 9 h 9 v -9 h -9 z M 126 243 v 9 h 9 v -9 h -9 z M 126 252 v 9 h 9 v -9 h -9 z M 126 261 v 9 h 9 v -9 h -9 z M 126 270 v 9 h 9 v -9 h -9 z M 126 288 v 9 h 9 v -9 h -9 z M 126 315 v 9 h 9 v -9 h -9 z M 126 342 v 9 h 9 v -9 h -9 z M 126 360 v 9 h 9 v -9 h -9 z M 126 369 v 9 h 9 v -9 h -9 z M 135 9 v 9 h 9 v -9 h -9 z M 135 27 v 9 h 9 v -9 h -9 z M 135 54 v 9 h 9 v -9 h -9 z M 135 63 v 9 h 9 v -9 h -9 z M 135 81 v 9 h 9 v -9 h -9 z M 135 99 v 9 h 9 v -9 h -9 z M 135 108 v 9 h 9 v -9 h -9 z M 135 117 v 9 h 9 v -9 h -9 z M 135 126 v 9 h 9 v -9 h -9 z M 135 135 v 9 h 9 v -9 h -9 z M 135 144 v 9 h 9 v -9 h -9 z M 135 153 v 9 h 9 v -9 h -9 z M 135 162 v 9 h 9 v -9 h -9 z M 135 180 v 9 h 9 v -9 h -9 z M 135 198 v 9 h 9 v -9 h -9 z M 135 207 v 9 h 9 v -9 h -9 z M 135 261 v 9 h 9 v -9 h -9 z M 135 279 v 9 h 9 v -9 h -9 z M 135 288 v 9 h 9 v -9 h -9 z M 135 297 v 9 h 9 v -9 h -9 z M 135 315 v 9 h 9 v -9 h -9 z M 135 324 v 9 h 9 v -9 h -9 z M 135 351 v 9 h 9 v -9 h -9 z M 135 369 v 9 h 9 v -9 h -9 z M 144 9 v 9 h 9 v -9 h -9 z M 144 18 v 9 h 9 v -9 h -9 z M 144 27 v 9 h 9 v -9 h -9 z M 144 54 v 9 h 9 v -9 h -9 z M 144 90 v 9 h 9 v -9 h -9 z M 144 99 v 9 h 9 v -9 h -9 z M 144 108 v 9 h 9 v -9 h -9 z M 144 126 v 9 h 9 v -9 h -9 z M 144 171 v 9 h 9 v -9 h -9 z M 144 180 v 9 h 9 v -9 h -9 z M 144 198 v 9 h 9 v -9 h -9 z M 144 207 v 9 h 9 v -9 h -9 z M 144 225 v 9 h 9 v -9 h -9 z M 144 252 v 9 h 9 v -9 h -9 z M 144 279 v 9 h 9 v -9 h -9 z M 144 288 v 9 h 9 v -9 h -9 z M 144 297 v 9 h 9 v -9 h -9 z M 144 315 v 9 h 9 v -9 h -9 z M 144 324 v 9 h 9 v -9 h -9 z M 144 333 v 9 h 9 v -9 h -9 z M 144 360 v 9 h 9 v -9 h -9 z M 144 369 v 9 h 9 v -9 h -9 z M 153 18 v 9 h 9 v -9 h -9 z M 153 27 v 9 h 9 v -9 h -9 z M 153 36 v 9 h 9 v -9 h -9 z M 153 45 v 9 h 9 v -9 h -9 z M 153 63 v 9 h 9 v -9 h -9 z M 153 72 v 9 h 9 v -9 h -9 z M 153 81 v 9 h 9 v -9 h -9 z M 153 90 v 9 h 9 v -9 h -9 z M 153 108 v 9 h 9 v -9 h -9 z M 153 126 v 9 h 9 v -9 h -9 z M 153 144 v 9 h 9 v -9 h -9 z M 153 153 v 9 h 9 v -9 h -9 z M 153 171 v 9 h 9 v -9 h -9 z M 153 189 v 9 h 9 v -9 h -9 z M 153 198 v 9 h 9 v -9 h -9 z M 153 207 v 9 h 9 v -9 h -9 z M 153 216 v 9 h 9 v -9 h -9 z M 153 234 v 9 h 9 v -9 h -9 z M 153 243 v 9 h 9 v -9 h -9 z M 153 279 v 9 h 9 v -9 h -9 z M 153 297 v 9 h 9 v -9 h -9 z M 153 333 v 9 h 9 v -9 h -9 z M 162 9 v 9 h 9 v -9 h -9 z M 162 18 v 9 h 9 v -9 h -9 z M 162 72 v 9 h 9 v -9 h -9 z M 162 90 v 9 h 9 v -9 h -9 z M 162 144 v 9 h 9 v -9 h -9 z M 162 153 v 9 h 9 v -9 h -9 z M 162 162 v 9 h 9 v -9 h -9 z M 162 189 v 9 h 9 v -9 h -9 z M 162 207 v 9 h 9 v -9 h -9 z M 162 216 v 9 h 9 v -9 h -9 z M 162 225 v 9 h 9 v -9 h -9 z M 162 234 v 9 h 9 v -9 h -9 z M 162 252 v 9 h 9 v -9 h -9 z M 162 297 v 9 h 9 v -9 h -9 z M 162 306 v 9 h 9 v -9 h -9 z M 162 324 v 9 h 9 v -9 h -9 z M 162 342 v 9 h 9 v -9 h -9 z M 171 9 v 9 h 9 v -9 h -9 z M 171 18 v 9 h 9 v -9 h -9 z M 171 63 v 9 h 9 v -9 h -9 z M 171 90 v 9 h 9 v -9 h -9 z M 171 117 v 9 h 9 v -9 h -9 z M 171 153 v 9 h 9 v -9 h -9 z M 171 171 v 9 h 9 v -9 h -9 z M 171 189 v 9 h 9 v -9 h -9 z M 171 198 v 9 h 9 v -9 h -9 z M 171 207 v 9 h 9 v -9 h -9 z M 171 243 v 9 h 9 v -9 h -9 z M 171 252 v 9 h 9 v -9 h -9 z M 171 261 v 9 h 9 v -9 h -9 z M 171 279 v 9 h 9 v -9 h -9 z M 171 297 v 9 h 9 v -9 h -9 z M 171 333 v 9 h 9 v -9 h -9 z M 180 9 v 9 h 9 v -9 h -9 z M 180 18 v 9 h 9 v -9 h -9 z M 180 36 v 9 h 9 v -9 h -9 z M 180 45 v 9 h 9 v -9 h -9 z M 180 54 v 9 h 9 v -9 h -9 z M 180 72 v 9 h 9 v -9 h -9 z M 180 81 v 9 h 9 v -9 h -9 z M 180 99 v 9 h 9 v -9 h -9 z M 180 108 v 9 h 9 v -9 h -9 z M 180 153 v 9 h 9 v -9 h -9 z M 180 162 v 9 h 9 v -9 h -9 z M 180 171 v 9 h 9 v -9 h -9 z M 180 189 v 9 h 9 v -9 h -9 z M 180 207 v 9 h 9 v -9 h -9 z M 180 216 v 9 h 9 v -9 h -9 z M 180 270 v 9 h 9 v -9 h -9 z M 180 279 v 9 h 9 v -9 h -9 z M 180 297 v 9 h 9 v -9 h -9 z M 180 306 v 9 h 9 v -9 h -9 z M 180 324 v 9 h 9 v -9 h -9 z M 180 342 v 9 h 9 v -9 h -9 z M 180 351 v 9 h 9 v -9 h -9 z M 180 360 v 9 h 9 v -9 h -9 z M 189 9 v 9 h 9 v -9 h -9 z M 189 18 v 9 h 9 v -9 h -9 z M 189 27 v 9 h 9 v -9 h -9 z M 189 63 v 9 h 9 v -9 h -9 z M 189 90 v 9 h 9 v -9 h -9 z M 189 99 v 9 h 9 v -9 h -9 z M 189 117 v 9 h 9 v -9 h -9 z M 189 126 v 9 h 9 v -9 h -9 z M 189 153 v 9 h 9 v -9 h -9 z M 189 189 v 9 h 9 v -9 h -9 z M 189 198 v 9 h 9 v -9 h -9 z M 189 252 v 9 h 9 v -9 h -9 z M 189 261 v 9 h 9 v -9 h -9 z M 189 270 v 9 h 9 v -9 h -9 z M 189 306 v 9 h 9 v -9 h -9 z M 189 315 v 9 h 9 v -9 h -9 z M 189 342 v 9 h 9 v -9 h -9 z M 189 351 v 9 h 9 v -9 h -9 z M 198 9 v 9 h 9 v -9 h -9 z M 198 27 v 9 h 9 v -9 h -9 z M 198 54 v 9 h 9 v -9 h -9 z M 198 81 v 9 h 9 v -9 h -9 z M 198 90 v 9 h 9 v -9 h -9 z M 198 99 v 9 h 9 v -9 h -9 z M 198 108 v 9 h 9 v -9 h -9 z M 198 135 v 9 h 9 v -9 h -9 z M 198 144 v 9 h 9 v -9 h -9 z M 198 171 v 9 h 9 v -9 h -9 z M 198 180 v 9 h 9 v -9 h -9 z M 198 189 v 9 h 9 v -9 h -9 z M 198 198 v 9 h 9 v -9 h -9 z M 198 216 v 9 h 9 v -9 h -9 z M 198 225 v 9 h 9 v -9 h -9 z M 198 261 v 9 h 9 v -9 h -9 z M 198 270 v 9 h 9 v -9 h -9 z M 198 279 v 9 h 9 v -9 h -9 z M 198 288 v 9 h 9 v -9 h -9 z M 198 297 v 9 h 9 v -9 h -9 z M 198 306 v 9 h 9 v -9 h -9 z M 198 315 v 9 h 9 v -9 h -9 z M 198 324 v 9 h 9 v -9 h -9 z M 198 333 v 9 h 9 v -9 h -9 z M 198 360 v 9 h 9 v -9 h -9 z M 198 369 v 9 h 9 v -9 h -9 z M 207 27 v 9 h 9 v -9 h -9 z M 207 36 v 9 h 9 v -9 h -9 z M 207 45 v 9 h 9 v -9 h -9 z M 207 63 v 9 h 9 v -9 h -9 z M 207 90 v 9 h 9 v -9 h -9 z M 207 108 v 9 h 9 v -9 h -9 z M 207 117 v 9 h 9 v -9 h -9 z M 207 126 v 9 h 9 v -9 h -9 z M 207 135 v 9 h 9 v -9 h -9 z M 207 189 v 9 h 9 v -9 h -9 z M 207 198 v 9 h 9 v -9 h -9 z M 207 207 v 9 h 9 v -9 h -9 z M 207 216 v 9 h 9 v -9 h -9 z M 207 225 v 9 h 9 v -9 h -9 z M 207 243 v 9 h 9 v -9 h -9 z M 207 270 v 9 h 9 v -9 h -9 z M 207 324 v 9 h 9 v -9 h -9 z M 207 360 v 9 h 9 v -9 h -9 z M 216 9 v 9 h 9 v -9 h -9 z M 216 18 v 9 h 9 v -9 h -9 z M 216 45 v 9 h 9 v -9 h -9 z M 216 54 v 9 h 9 v -9 h -9 z M 216 81 v 9 h 9 v -9 h -9 z M 216 108 v 9 h 9 v -9 h -9 z M 216 126 v 9 h 9 v -9 h -9 z M 216 144 v 9 h 9 v -9 h -9 z M 216 153 v 9 h 9 v -9 h -9 z M 216 189 v 9 h 9 v -9 h -9 z M 216 234 v 9 h 9 v -9 h -9 z M 216 261 v 9 h 9 v -9 h -9 z M 216 279 v 9 h 9 v -9 h -9 z M 216 288 v 9 h 9 v -9 h -9 z M 216 333 v 9 h 9 v -9 h -9 z M 216 342 v 9 h 9 v -9 h -9 z M 216 360 v 9 h 9 v -9 h -9 z M 216 369 v 9 h 9 v -9 h -9 z M 225 18 v 9 h 9 v -9 h -9 z M 225 45 v 9 h 9 v -9 h -9 z M 225 63 v 9 h 9 v -9 h -9 z M 225 81 v 9 h 9 v -9 h -9 z M 225 90 v 9 h 9 v -9 h -9 z M 225 117 v 9 h 9 v -9 h -9 z M 225 126 v 9 h 9 v -9 h -9 z M 225 135 v 9 h 9 v -9 h -9 z M 225 144 v 9 h 9 v -9 h -9 z M 225 162 v 9 h 9 v -9 h -9 z M 225 171 v 9 h 9 v -9 h -9 z M 225 180 v 9 h 9 v -9 h -9 z M 225 207 v 9 h 9 v -9 h -9 z M 225 234 v 9 h 9 v -9 h -9 z M 225 252 v 9 h 9 v -9 h -9 z M 225 270 v 9 h 9 v -9 h -9 z M 225 288 v 9 h 9 v -9 h -9 z M 225 306 v 9 h 9 v -9 h -9 z M 225 342 v 9 h 9 v -9 h -9 z M 225 351 v 9 h 9 v -9 h -9 z M 225 360 v 9 h 9 v -9 h -9 z M 225 369 v 9 h 9 v -9 h -9 z M 234 27 v 9 h 9 v -9 h -9 z M 234 72 v 9 h 9 v -9 h -9 z M 234 81 v 9 h 9 v -9 h -9 z M 234 126 v 9 h 9 v -9 h -9 z M 234 135 v 9 h 9 v -9 h -9 z M 234 144 v 9 h 9 v -9 h -9 z M 234 153 v 9 h 9 v -9 h -9 z M 234 162 v 9 h 9 v -9 h -9 z M 234 180 v 9 h 9 v -9 h -9 z M 234 198 v 9 h 9 v -9 h -9 z M 234 234 v 9 h 9 v -9 h -9 z M 234 252 v 9 h 9 v -9 h -9 z M 234 261 v 9 h 9 v -9 h -9 z M 234 270 v 9 h 9 v -9 h -9 z M 234 288 v 9 h 9 v -9 h -9 z M 234 297 v 9 h 9 v -9 h -9 z M 234 306 v 9 h 9 v -9 h -9 z M 234 315 v 9 h 9 v -9 h -9 z M 234 324 v 9 h 9 v -9 h -9 z M 234 342 v 9 h 9 v -9 h -9 z M 234 351 v 9 h 9 v -9 h -9 z M 234 369 v 9 h 9 v -9 h -9 z M 243 9 v 9 h 9 v -9 h -9 z M 243 36 v 9 h 9 v -9 h -9 z M 243 45 v 9 h 9 v -9 h -9 z M 243 63 v 9 h 9 v -9 h -9 z M 243 117 v 9 h 9 v -9 h -9 z M 243 126 v 9 h 9 v -9 h -9 z M 243 135 v 9 h 9 v -9 h -9 z M 243 162 v 9 h 9 v -9 h -9 z M 243 180 v 9 h 9 v -9 h -9 z M 243 243 v 9 h 9 v -9 h -9 z M 243 270 v 9 h 9 v -9 h -9 z M 243 288 v 9 h 9 v -9 h -9 z M 243 297 v 9 h 9 v -9 h -9 z M 243 306 v 9 h 9 v -9 h -9 z M 243 315 v 9 h 9 v -9 h -9 z M 243 324 v 9 h 9 v -9 h -9 z M 243 342 v 9 h 9 v -9 h -9 z M 243 369 v 9 h 9 v -9 h -9 z M 252 9 v 9 h 9 v -9 h -9 z M 252 45 v 9 h 9 v -9 h -9 z M 252 72 v 9 h 9 v -9 h -9 z M 252 81 v 9 h 9 v -9 h -9 z M 252 90 v 9 h 9 v -9 h -9 z M 252 108 v 9 h 9 v -9 h -9 z M 252 117 v 9 h 9 v -9 h -9 z M 252 126 v 9 h 9 v -9 h -9 z M 252 144 v 9 h 9 v -9 h -9 z M 252 153 v 9 h 9 v -9 h -9 z M 252 189 v 9 h 9 v -9 h -9 z M 252 198 v 9 h 9 v -9 h -9 z M 252 216 v 9 h 9 v -9 h -9 z M 252 225 v 9 h 9 v -9 h -9 z M 252 261 v 9 h 9 v -9 h -9 z M 252 288 v 9 h 9 v -9 h -9 z M 252 297 v 9 h 9 v -9 h -9 z M 252 324 v 9 h 9 v -9 h -9 z M 252 333 v 9 h 9 v -9 h -9 z M 252 342 v 9 h 9 v -9 h -9 z M 261 18 v 9 h 9 v -9 h -9 z M 261 27 v 9 h 9 v -9 h -9 z M 261 63 v 9 h 9 v -9 h -9 z M 261 81 v 9 h 9 v -9 h -9 z M 261 90 v 9 h 9 v -9 h -9 z M 261 108 v 9 h 9 v -9 h -9 z M 261 117 v 9 h 9 v -9 h -9 z M 261 144 v 9 h 9 v -9 h -9 z M 261 198 v 9 h 9 v -9 h -9 z M 261 207 v 9 h 9 v -9 h -9 z M 261 216 v 9 h 9 v -9 h -9 z M 261 225 v 9 h 9 v -9 h -9 z M 261 234 v 9 h 9 v -9 h -9 z M 261 261 v 9 h 9 v -9 h -9 z M 261 288 v 9 h 9 v -9 h -9 z M 261 297 v 9 h 9 v -9 h -9 z M 261 306 v 9 h 9 v -9 h -9 z M 261 324 v 9 h 9 v -9 h -9 z M 261 333 v 9 h 9 v -9 h -9 z M 261 342 v 9 h 9 v -9 h -9 z M 270 18 v 9 h 9 v -9 h -9 z M 270 36 v 9 h 9 v -9 h -9 z M 270 45 v 9 h 9 v -9 h -9 z M 270 108 v 9 h 9 v -9 h -9 z M 270 126 v 9 h 9 v -9 h -9 z M 270 135 v 9 h 9 v -9 h -9 z M 270 162 v 9 h 9 v -9 h -9 z M 270 189 v 9 h 9 v -9 h -9 z M 270 207 v 9 h 9 v -9 h -9 z M 270 216 v 9 h 9 v -9 h -9 z M 270 243 v 9 h 9 v -9 h -9 z M 270 252 v 9 h 9 v -9 h -9 z M 270 261 v 9 h 9 v -9 h -9 z M 270 297 v 9 h 9 v -9 h -9 z M 270 324 v 9 h 9 v -9 h -9 z M 270 351 v 9 h 9 v -9 h -9 z M 270 360 v 9 h 9 v -9 h -9 z M 279 9 v 9 h 9 v -9 h -9 z M 279 27 v 9 h 9 v -9 h -9 z M 279 45 v 9 h 9 v -9 h -9 z M 279 63 v 9 h 9 v -9 h -9 z M 279 72 v 9 h 9 v -9 h -9 z M 279 81 v 9 h 9 v -9 h -9 z M 279 90 v 9 h 9 v -9 h -9 z M 279 99 v 9 h 9 v -9 h -9 z M 279 108 v 9 h 9 v -9 h -9 z M 279 117 v 9 h 9 v -9 h -9 z M 279 153 v 9 h 9 v -9 h -9 z M 279 171 v 9 h 9 v -9 h -9 z M 279 189 v 9 h 9 v -9 h -9 z M 279 198 v 9 h 9 v -9 h -9 z M 279 207 v 9 h 9 v -9 h -9 z M 279 225 v 9 h 9 v -9 h -9 z M 279 234 v 9 h 9 v -9 h -9 z M 279 243 v 9 h 9 v -9 h -9 z M 279 252 v 9 h 9 v -9 h -9 z M 279 306 v 9 h 9 v -9 h -9 z M 279 315 v 9 h 9 v -9 h -9 z M 279 324 v 9 h 9 v -9 h -9 z M 279 342 v 9 h 9 v -9 h -9 z M 279 351 v 9 h 9 v -9 h -9 z M 279 360 v 9 h 9 v -9 h -9 z M 288 54 v 9 h 9 v -9 h -9 z M 288 72 v 9 h 9 v -9 h -9 z M 288 99 v 9 h 9 v -9 h -9 z M 288 117 v 9 h 9 v -9 h -9 z M 288 126 v 9 h 9 v -9 h -9 z M 288 135 v 9 h 9 v -9 h -9 z M 288 144 v 9 h 9 v -9 h -9 z M 288 153 v 9 h 9 v -9 h -9 z M 288 162 v 9 h 9 v -9 h -9 z M 288 171 v 9 h 9 v -9 h -9 z M 288 180 v 9 h 9 v -9 h -9 z M 288 207 v 9 h 9 v -9 h -9 z M 288 252 v 9 h 9 v -9 h -9 z M 288 270 v 9 h 9 v -9 h -9 z M 288 279 v 9 h 9 v -9 h -9 z M 288 288 v 9 h 9 v -9 h -9 z M 288 315 v 9 h 9 v -9 h -9 z M 288 324 v 9 h 9 v -9 h -9 z M 288 342 v 9 h 9 v -9 h -9 z M 288 351 v 9 h 9 v -9 h -9 z M 288 360 v 9 h 9 v -9 h -9 z M 297 18 v 9 h 9 v -9 h -9 z M 297 27 v 9 h 9 v -9 h -9 z M 297 36 v 9 h 9 v -9 h -9 z M 297 45 v 9 h 9 v -9 h -9 z M 297 63 v 9 h 9 v -9 h -9 z M 297 99 v 9 h 9 v -9 h -9 z M 297 108 v 9 h 9 v -9 h -9 z M 297 117 v 9 h 9 v -9 h -9 z M 297 126 v 9 h 9 v -9 h -9 z M 297 144 v 9 h 9 v -9 h -9 z M 297 162 v 9 h 9 v -9 h -9 z M 297 171 v 9 h 9 v -9 h -9 z M 297 180 v 9 h 9 v -9 h -9 z M 297 198 v 9 h 9 v -9 h -9 z M 297 234 v 9 h 9 v -9 h -9 z M 297 243 v 9 h 9 v -9 h -9 z M 297 261 v 9 h 9 v -9 h -9 z M 297 270 v 9 h 9 v -9 h -9 z M 297 279 v 9 h 9 v -9 h -9 z M 297 297 v 9 h 9 v -9 h -9 z M 297 306 v 9 h 9 v -9 h -9 z M 297 315 v 9 h 9 v -9 h -9 z M 297 324 v 9 h 9 v -9 h -9 z M 297 333 v 9 h 9 v -9 h -9 z M 297 360 v 9 h 9 v -9 h -9 z M 297 369 v 9 h 9 v -9 h -9 z M 306 81 v 9 h 9 v -9 h -9 z M 306 99 v 9 h 9 v -9 h -9 z M 306 108 v 9 h 9 v -9 h -9 z M 306 135 v 9 h 9 v -9 h -9 z M 306 162 v 9 h 9 v -9 h -9 z M 306 171 v 9 h 9 v -9 h -9 z M 306 180 v 9 h 9 v -9 h -9 z M 306 189 v 9 h 9 v -9 h -9 z M 306 198 v 9 h 9 v -9 h -9 z M 306 207 v 9 h 9 v -9 h -9 z M 306 216 v 9 h 9 v -9 h -9 z M 306 243 v 9 h 9 v -9 h -9 z M 306 261 v 9 h 9 v -9 h -9 z M 306 297 v 9 h 9 v -9 h -9 z M 306 333 v 9 h 9 v -9 h -9 z M 306 342 v 9 h 9 v -9 h -9 z M 306 360 v 9 h 9 v -9 h -9 z M 306 369 v 9 h 9 v -9 h -9 z M 315 81 v 9 h 9 v -9 h -9 z M 315 108 v 9 h 9 v -9 h -9 z M 315 126 v 9 h 9 v -9 h -9 z M 315 171 v 9 h 9 v -9 h -9 z M 315 189 v 9 h 9 v -9 h -9 z M 315 207 v 9 h 9 v -9 h -9 z M 315 216 v 9 h 9 v -9 h -9 z M 315 225 v 9 h 9 v -9 h -9 z M 315 270 v 9 h 9 v -9 h -9 z M 315 279 v 9 h 9 v -9 h -9 z M 315 288 v 9 h 9 v -9 h -9 z M 315 297 v 9 h 9 v -9 h -9 z M 315 315 v 9 h 9 v -9 h -9 z M 315 333 v 9 h 9 v -9 h -9 z M 315 351 v 9 h 9 v -9 h -9 z M 315 360 v 9 h 9 v -9 h -9 z M 324 81 v 9 h 9 v -9 h -9 z M 324 90 v 9 h 9 v -9 h -9 z M 324 108 v 9 h 9 v -9 h -9 z M 324 153 v 9 h 9 v -9 h -9 z M 324 162 v 9 h 9 v -9 h -9 z M 324 189 v 9 h 9 v -9 h -9 z M 324 216 v 9 h 9 v -9 h -9 z M 324 234 v 9 h 9 v -9 h -9 z M 324 243 v 9 h 9 v -9 h -9 z M 324 252 v 9 h 9 v -9 h -9 z M 324 261 v 9 h 9 v -9 h -9 z M 324 279 v 9 h 9 v -9 h -9 z M 324 297 v 9 h 9 v -9 h -9 z M 324 333 v 9 h 9 v -9 h -9 z M 333 99 v 9 h 9 v -9 h -9 z M 333 135 v 9 h 9 v -9 h -9 z M 333 153 v 9 h 9 v -9 h -9 z M 333 207 v 9 h 9 v -9 h -9 z M 333 225 v 9 h 9 v -9 h -9 z M 333 234 v 9 h 9 v -9 h -9 z M 333 252 v 9 h 9 v -9 h -9 z M 333 261 v 9 h 9 v -9 h -9 z M 333 270 v 9 h 9 v -9 h -9 z M 333 279 v 9 h 9 v -9 h -9 z M 333 297 v 9 h 9 v -9 h -9 z M 333 306 v 9 h 9 v -9 h -9 z M 333 315 v 9 h 9 v -9 h -9 z M 333 324 v 9 h 9 v -9 h -9 z M 333 333 v 9 h 9 v -9 h -9 z M 333 351 v 9 h 9 v -9 h -9 z M 333 369 v 9 h 9 v -9 h -9 z M 342 81 v 9 h 9 v -9 h -9 z M 342 117 v 9 h 9 v -9 h -9 z M 342 162 v 9 h 9 v -9 h -9 z M 342 180 v 9 h 9 v -9 h -9 z M 342 198 v 9 h 9 v -9 h -9 z M 342 225 v 9 h 9 v -9 h -9 z M 342 252 v 9 h 9 v -9 h -9 z M 342 261 v 9 h 9 v -9 h -9 z M 342 270 v 9 h 9 v -9 h -9 z M 342 279 v 9 h 9 v -9 h -9 z M 342 297 v 9 h 9 v -9 h -9 z M 342 333 v 9 h 9 v -9 h -9 z M 342 351 v 9 h 9 v -9 h -9 z M 342 369 v 9 h 9 v -9 h -9 z M 351 81 v 9 h 9 v -9 h -9 z M 351 90 v 9 h 9 v -9 h -9 z M 351 99 v 9 h 9 v -9 h -9 z M 351 126 v 9 h 9 v -9 h -9 z M 351 135 v 9 h 9 v -9 h -9 z M 351 180 v 9 h 9 v -9 h -9 z M 351 189 v 9 h 9 v -9 h -9 z M 351 207 v 9 h 9 v -9 h -9 z M 351 234 v 9 h 9 v -9 h -9 z M 351 279 v 9 h 9 v -9 h -9 z M 351 288 v 9 h 9 v -9 h -9 z M 351 324 v 9 h 9 v -9 h -9 z M 351 342 v 9 h 9 v -9 h -9 z M 351 360 v 9 h 9 v -9 h -9 z M 351 369 v 9 h 9 v -9 h -9 z M 360 99 v 9 h 9 v -9 h -9 z M 360 108 v 9 h 9 v -9 h -9 z M 360 162 v 9 h 9 v -9 h -9 z M 360 171 v 9 h 9 v -9 h -9 z M 360 198 v 9 h 9 v -9 h -9 z M 360 207 v 9 h 9 v -9 h -9 z M 360 243 v 9 h 9 v -9 h -9 z M 360 261 v 9 h 9 v -9 h -9 z M 360 297 v 9 h 9 v -9 h -9 z M 360 333 v 9 h 9 v -9 h -9 z M 360 360 v 9 h 9 v -9 h -9 z M 369 81 v 9 h 9 v -9 h -9 z M 369 90 v 9 h 9 v -9 h -9 z M 369 108 v 9 h 9 v -9 h -9 z M 369 135 v 9 h 9 v -9 h -9 z M 369 144 v 9 h 9 v -9 h -9 z M 369 153 v 9 h 9 v -9 h -9 z M 369 162 v 9 h 9 v -9 h -9 z M 369 171 v 9 h 9 v -9 h -9 z M 369 198 v 9 h 9 v -9 h -9 z M 369 207 v 9 h 9 v -9 h -9 z M 369 216 v 9 h 9 v -9 h -9 z M 369 225 v 9 h 9 v -9 h -9 z M 369 234 v 9 h 9 v -9 h -9 z M 369 243 v 9 h 9 v -9 h -9 z M 369 252 v 9 h 9 v -9 h -9 z M 369 279 v 9 h 9 v -9 h -9 z M 369 288 v 9 h 9 v -9 h -9 z M 369 297 v 9 h 9 v -9 h -9 z M 369 360 v 9 h 9 v -9 h -9 z" fill="#000000"/></svg>