<?xml version="1.0" standalone="no"?>
<!DOCTYPE svg PUBLIC "-//W3C//DTD SVG 20010904//EN"
 "http://www.w3.org/TR/2001/REC-SVG-20010904/DTD/svg10.dtd">
<svg version="1.0" xmlns="http://www.w3.org/2000/svg"
 width="256.000000pt" height="256.000000pt" viewBox="0 0 256.000000 256.000000"
 preserveAspectRatio="xMidYMid meet">

<g transform="translate(0.000000,256.000000) scale(0.100000,-0.100000)"
fill="#059669" stroke="none">
<path d="M398 2403 c-51 -6 -53 -17 -52 -248 0 -164 4 -206 26 -310 46 -218
115 -358 233 -480 151 -156 372 -253 649 -285 151 -18 156 -19 156 -39 0 -10
-22 -37 -50 -60 -58 -49 -114 -154 -131 -246 -41 -221 84 -506 259 -592 45
-22 62 -25 115 -21 35 3 78 13 97 23 63 32 135 116 178 206 85 179 95 358 26
504 -24 51 -79 125 -93 125 -5 0 -14 -28 -21 -62 -15 -80 -47 -144 -117 -238
-78 -105 -105 -168 -111 -257 -3 -40 -8 -73 -12 -73 -14 0 -33 121 -27 178 4
44 22 90 76 197 80 161 87 182 96 290 7 89 41 229 58 243 7 5 41 16 75 26 139
37 238 112 290 219 29 61 57 161 47 176 -7 12 -116 -6 -177 -29 -126 -47 -223
-141 -291 -282 -23 -49 -45 -88 -49 -88 -5 0 -8 30 -8 68 0 83 -23 243 -49
342 -103 400 -346 620 -771 695 -93 16 -349 27 -422 18z m407 -108 c116 -21
250 -66 334 -112 98 -54 227 -187 278 -288 50 -98 86 -210 107 -335 17 -102
33 -300 23 -300 -3 0 -29 33 -59 73 -168 228 -414 470 -606 595 -77 50 -86 53
-110 42 l-27 -12 41 -36 c22 -21 96 -86 163 -147 265 -236 512 -530 608 -722
30 -62 36 -84 40 -160 3 -48 0 -99 -5 -113 -10 -25 -10 -25 -27 15 -46 110
-97 209 -144 282 l-51 80 -117 16 c-275 37 -488 135 -606 279 -140 171 -217
428 -217 726 0 151 -5 146 154 139 72 -4 172 -14 221 -22z"/>
</g>
</svg>
